<svg width="375" height="160" viewBox="0 0 375 160" fill="none" xmlns="http://www.w3.org/2000/svg">
<g clip-path="url(#clip0_1976_13289)">
<path fill-rule="evenodd" clip-rule="evenodd" d="M548.536 120.409C553.172 119.98 556.772 118.541 557.81 115.271C558.475 113.174 557.773 110.844 556.753 108.965C554.5 104.813 550.827 101.971 547.242 99.2869C520.655 79.3815 492.985 61.3231 464.464 45.1739C437.027 29.639 406.268 11.4548 375.376 17.3533C358.497 20.5763 342.699 28.8919 327.768 38.3062C307.647 50.9936 287.662 66.528 270.591 84.0303C262.784 92.0346 254.846 100.259 248.473 109.816C248.02 110.496 239.148 126.359 244.744 125.687C301.855 118.834 358.806 114.915 416.169 114.289C439.2 114.133 462.231 114.395 485.235 115.348C496.694 115.823 508.145 116.468 519.582 117.323C524.13 117.664 538.675 121.322 548.535 120.41L548.536 120.409Z" fill="#108040"/>
<path fill-rule="evenodd" clip-rule="evenodd" d="M372.875 54.0765C349.455 37.9783 322.254 21.3486 296.413 26.6352C275.178 30.9793 246.24 45.9623 224.375 59.7876C203.604 72.9219 175.893 86.533 160.261 105.63C159.781 106.215 150.301 119.906 155.896 119.44C212.988 114.684 269.801 112.494 326.886 113.193C349.802 113.557 372.701 114.288 395.545 115.622C406.923 116.287 418.287 117.101 429.629 118.098C434.139 118.495 407.094 77.5977 372.875 54.0765Z" fill="#257046"/>
<path fill-rule="evenodd" clip-rule="evenodd" d="M173.536 120.409C178.172 119.98 181.772 118.541 182.81 115.271C183.475 113.174 182.773 110.844 181.753 108.965C179.5 104.813 175.827 101.971 172.242 99.2869C145.655 79.3815 117.985 61.3231 89.4642 45.1739C62.0268 29.639 31.2679 11.4548 0.376169 17.3533C-16.5033 20.5763 -32.3011 28.8919 -47.2317 38.3062C-67.3532 50.9936 -87.3383 66.528 -104.409 84.0303C-112.216 92.0346 -120.154 100.259 -126.527 109.816C-126.98 110.496 -135.852 126.359 -130.256 125.687C-73.145 118.834 -16.1944 114.915 41.1689 114.289C64.1999 114.133 87.2314 114.395 110.235 115.348C121.694 115.823 133.145 116.468 144.582 117.323C149.13 117.664 163.675 121.322 173.535 120.41L173.536 120.409Z" fill="#108040"/>
<rect y="47" width="375" height="113" fill="#BBE665"/>
<path fill-rule="evenodd" clip-rule="evenodd" d="M221.662 67.2097C221.554 65.3363 221.857 63.3378 221.775 61.4719C222.014 59.8905 221.742 58.0808 221.845 56.4454C225.065 54.8636 224.328 59.3502 224.561 61.1101C224.232 63.0528 226.246 68.3782 223.282 67.8732C222.999 67.8351 222.458 67.7918 222.205 67.9206C222.15 67.9151 222.052 67.8374 222.07 67.9225C221.91 67.876 221.784 67.7598 221.708 67.657C221.77 67.5101 221.658 67.3882 221.663 67.2102L221.662 67.2097Z" fill="#A26B4B"/>
<path fill-rule="evenodd" clip-rule="evenodd" d="M235.711 49.4845C235.711 49.279 235.706 49.0716 235.704 48.8638C235.748 48.7494 235.735 48.6322 235.713 48.5155C235.737 48.3528 235.744 48.191 235.706 48.0301C235.72 47.6065 235.651 47.1899 235.575 46.7737C235.586 46.7165 235.574 46.6505 235.54 46.5766C235.509 46.2906 235.49 46.0018 235.411 45.7205C235.408 45.6796 235.396 45.6368 235.375 45.5955C235.41 45.4095 235.433 45.2239 235.298 45.0533C235.28 44.6795 235.229 44.3107 235.101 43.9518C235.149 43.6988 235.014 43.4728 234.946 43.238C234.955 43.219 234.951 43.2031 234.929 43.192C234.923 43.0864 234.93 42.98 234.872 42.8823C234.872 42.8791 234.874 42.8763 234.872 42.873C234.869 42.8563 234.859 42.8465 234.851 42.8465C234.851 42.6982 234.83 42.5554 234.773 42.4122C234.597 41.9691 234.55 41.499 234.37 41.0573C234.366 41.0275 234.358 40.9982 234.339 40.9708C234.282 40.8299 234.288 40.6774 234.171 40.556C234.182 40.4812 234.171 40.411 234.092 40.3575C234.079 40.284 234.072 40.2078 234.01 40.1482C233.925 39.9622 233.878 39.7651 233.738 39.5991C233.73 39.5228 233.717 39.4494 233.656 39.3857C233.664 39.3634 233.659 39.3429 233.638 39.3243C233.648 39.2648 233.637 39.2127 233.57 39.1788C233.391 38.6598 233.208 38.1423 232.895 37.6653C232.896 37.6034 232.847 37.5639 232.794 37.5299C232.558 36.9924 232.226 36.4954 231.867 36.0085C231.866 35.9495 231.854 35.8969 231.789 35.863C231.789 35.863 231.789 35.863 231.789 35.863C231.788 35.8058 231.762 35.7607 231.708 35.7291C231.59 35.4273 231.407 35.1572 231.177 34.9061C231.147 34.7401 230.939 34.6866 230.849 34.5546C230.82 34.469 230.78 34.3895 230.678 34.3416C230.377 33.9515 229.998 33.6125 229.573 33.3112C229.562 33.2712 229.53 33.2503 229.48 33.2452H229.483C229.147 32.8792 228.697 32.6165 228.274 32.3296C228.228 32.2975 228.178 32.2869 228.12 32.2901C227.901 32.1585 227.72 31.9883 227.441 31.9367C227.257 31.8377 227.061 31.7614 226.854 31.7061C226.435 31.4759 225.977 31.303 225.493 31.1849C224.707 31.0733 223.94 30.8031 223.119 30.9886C223.007 30.99 222.894 30.9877 222.781 30.9891C222.754 30.9877 222.726 30.9868 222.697 30.9849C222.152 30.8743 221.622 30.9626 221.09 31.0579C221.064 31.0602 221.033 31.063 221.004 31.0663C220.672 31.0621 220.358 31.1174 220.063 31.2383C219.648 31.2988 219.266 31.455 218.863 31.5527C218.795 31.5703 218.739 31.6019 218.709 31.6587C218.505 31.6852 218.364 31.7958 218.212 31.8995C217.834 32.0032 217.527 32.2083 217.197 32.3771C217.168 32.4022 217.141 32.4259 217.107 32.4375C217.149 32.4282 217.179 32.4105 217.197 32.3771C217.146 32.3771 217.116 32.3994 217.103 32.437C216.922 32.4608 216.832 32.5914 216.693 32.663C216.399 32.8304 216.097 32.9853 215.835 33.1894C215.784 33.2043 215.761 33.2349 215.752 33.2782C215.729 33.3079 215.704 33.3312 215.667 33.3475C215.617 33.3535 215.586 33.3749 215.588 33.42C215.373 33.6144 215.151 33.8041 214.986 34.0328C214.986 34.0333 214.987 34.0338 214.988 34.0347C214.942 34.0473 214.92 34.0747 214.919 34.1151H214.916C214.818 34.1621 214.752 34.2267 214.745 34.3216C214.59 34.3727 214.535 34.4825 214.493 34.5992C214.22 34.9265 213.995 35.2753 213.669 35.5715C213.448 35.7663 213.33 36.0127 213.227 36.2606C212.95 36.6581 212.749 37.0803 212.557 37.5081C212.48 37.562 212.462 37.6336 212.459 37.7113C212.46 37.7113 212.461 37.7113 212.461 37.7108C212.401 37.7462 212.388 37.7959 212.387 37.8517C212.3 37.9061 212.275 37.9791 212.296 38.0619C212.298 38.1051 212.3 38.1474 212.303 38.1884C212.246 38.2269 212.229 38.2781 212.239 38.3358C212.201 38.4278 212.167 38.5217 212.125 38.6129C211.977 38.8045 211.871 39.0049 211.875 39.2355C211.765 39.6051 211.652 39.972 211.546 40.3426C211.528 40.4054 211.549 40.4784 211.552 40.5449C211.506 40.5876 211.438 40.6276 211.424 40.6769C211.293 41.1884 211.155 41.6966 211.059 42.2127C211.033 42.3676 210.948 42.514 210.954 42.6749C210.809 43.0902 210.684 43.5063 210.716 43.9434C210.687 44.0136 210.689 44.0829 210.724 44.1531C210.719 44.2591 210.714 44.3675 210.712 44.4763C210.55 44.7994 210.664 45.137 210.649 45.4671C210.647 46.0707 210.649 46.6723 210.649 47.2754C210.652 47.4131 210.653 47.5498 210.724 47.6758C210.583 47.965 210.632 48.2668 210.656 48.5578C210.693 48.934 210.749 49.3083 210.764 49.6849C210.764 49.7152 210.799 49.744 210.816 49.7747C210.823 49.8142 210.827 49.8542 210.833 49.8937C210.842 50.0565 210.774 50.2252 210.9 50.3768C211.012 50.6744 210.907 50.9883 211.005 51.2859C211.038 51.3951 211.064 51.5067 211.095 51.6202C211.104 51.9489 211.123 52.2777 211.256 52.5929C211.262 52.6682 211.249 52.751 211.336 52.8059C211.3 53.07 211.456 53.3029 211.528 53.5508C211.617 53.8628 211.714 54.1683 211.852 54.4672C211.866 54.5402 211.868 54.6184 211.939 54.6751C211.907 54.9443 212.106 55.1535 212.226 55.3744C212.381 55.6636 212.596 55.9254 212.782 56.2049C212.794 56.2728 212.792 56.3453 212.885 56.3834C212.904 56.4713 212.946 56.5536 213.05 56.6038C213.144 56.7731 213.207 56.9549 213.386 57.0818C213.501 57.2813 213.663 57.4505 213.902 57.5598C214.024 57.7244 214.215 57.8211 214.422 57.9034C214.594 58.0257 214.81 58.0885 215.008 58.1768C215.038 58.2429 215.093 58.2894 215.177 58.3182C215.374 58.3833 215.552 58.4749 215.673 58.6186C215.76 58.7185 215.877 58.7622 216.009 58.7832L215.989 58.7971L216.026 58.8627L216.102 58.7948C216.105 58.7948 216.108 58.7957 216.111 58.7957C216.21 58.8622 216.312 58.9231 216.443 58.9413C216.455 58.9799 216.48 58.9998 216.531 58.9975C216.514 58.9645 216.486 58.9468 216.444 58.9408C216.477 58.958 216.504 58.9757 216.531 58.9975C216.723 59.0742 216.886 59.2072 217.115 59.2189V59.2202C217.33 59.317 217.555 59.3932 217.799 59.4193C218.319 59.469 218.81 59.6294 219.327 59.6936C219.603 59.7796 219.895 59.7606 220.182 59.8219C220.644 59.9321 221.135 59.9177 221.615 59.9703C221.892 60.0409 222.178 60.0223 222.465 60.0126C222.86 60.0646 223.253 60.0893 223.644 60.0098C224.109 60.034 224.574 60.053 225.01 59.8754C225.183 59.8642 225.365 59.8973 225.517 59.8038C225.828 59.7336 226.141 59.661 226.449 59.5904C226.901 59.4783 227.351 59.3681 227.801 59.2565C228.766 59.2003 229.611 58.8841 230.432 58.4986C230.65 58.4382 230.83 58.3173 231.018 58.2103C231.323 58.102 231.615 57.9811 231.86 57.7923C232.034 57.7323 232.194 57.6579 232.276 57.5115C232.618 57.3561 232.812 57.0869 233.044 56.8475C233.13 56.7531 233.24 56.6587 233.301 56.5448V56.5457C233.369 56.5131 233.387 56.4634 233.385 56.4048C233.508 56.2542 233.652 56.1109 233.731 55.9361C233.837 55.8882 233.875 55.8013 233.917 55.719C234.201 55.1917 234.474 54.6593 234.713 54.1176C234.79 53.9372 234.878 53.7595 234.913 53.5675C235.021 53.3955 235.047 53.2109 235.028 53.0212C235.088 52.8891 235.152 52.7584 235.15 52.6134C235.216 52.5566 235.237 52.4874 235.241 52.412C235.325 52.3469 235.318 52.2637 235.309 52.1795C235.448 51.9889 235.466 51.7722 235.48 51.5621C235.508 51.1664 235.687 50.7851 235.631 50.3815C235.659 50.2982 235.671 50.215 235.653 50.1318C235.781 49.9211 235.678 49.6975 235.713 49.4817L235.711 49.4845ZM235.616 47.6883C235.616 47.6883 235.616 47.6851 235.616 47.6832C235.618 47.686 235.622 47.686 235.624 47.6883C235.621 47.6883 235.618 47.6883 235.615 47.6883H235.616ZM233.562 39.3252C233.56 39.3238 233.557 39.322 233.554 39.3206C233.557 39.321 233.56 39.3215 233.563 39.322C233.563 39.3229 233.562 39.3243 233.562 39.3252ZM213.021 56.4332C213.019 56.4569 213.029 56.4797 213.032 56.5034C213.024 56.4792 213.02 56.456 213.021 56.4332Z" fill="#12944A"/>
<path fill-rule="evenodd" clip-rule="evenodd" d="M203.463 68.3173C203.466 65.4623 203.741 62.6911 203.654 59.91C207.247 58.5025 205.936 63.2811 206.468 65.0801C206.505 68.4047 207.445 69.463 203.506 68.6637C203.523 68.6288 203.538 68.5954 203.553 68.5596C203.456 68.5637 203.498 68.3894 203.463 68.3178V68.3173Z" fill="#A26B4B"/>
<path fill-rule="evenodd" clip-rule="evenodd" d="M214.46 57.5231C214.463 57.4334 214.464 57.3436 214.46 57.2539C214.459 57.2311 214.459 57.2078 214.458 57.1846C214.452 57.0818 214.445 56.9791 214.436 56.8768C214.426 56.7554 214.415 56.6345 214.408 56.5132C214.437 56.3732 214.426 56.2346 214.391 56.0961C214.402 55.3912 214.312 54.6984 214.075 54.019C214.012 53.6164 213.849 53.2351 213.715 52.8463C213.735 52.6227 213.622 52.419 213.544 52.2103C213.489 51.9187 213.373 51.6402 213.208 51.3747C213.216 51.2003 213.129 51.0511 213.015 50.9134C212.898 50.5856 212.852 50.2397 212.627 49.9402C212.393 49.4171 212.028 48.9536 211.644 48.4951C211.342 48.1477 211.024 47.8116 210.619 47.533C210.618 47.5 210.591 47.48 210.551 47.4745L210.544 47.4675C210.103 47.0997 209.596 46.803 209.038 46.5636C209.019 46.5324 208.995 46.5147 208.951 46.5236C208.916 46.5138 208.889 46.5064 208.857 46.4971C208.82 46.4455 208.767 46.4194 208.7 46.4027C208.662 46.3566 208.609 46.3478 208.547 46.3464C208.386 46.2478 208.202 46.1967 208.009 46.1674C207.735 46.1107 207.494 45.993 207.239 45.9047C206.89 45.7024 206.477 45.6722 206.082 45.5941C205.601 45.4374 205.111 45.4778 204.623 45.5434C204.418 45.5504 204.213 45.5318 204.021 45.6071C203.585 45.5848 203.158 45.6071 202.754 45.7652C202.337 45.8508 201.91 45.9261 201.573 46.1693C201.278 46.2581 201.026 46.4036 200.794 46.5687C200.727 46.5808 200.685 46.6184 200.65 46.6659C200.653 46.6668 200.656 46.6691 200.658 46.6705L200.65 46.6659C200.603 46.6677 200.573 46.6886 200.553 46.7254C200.102 46.8965 199.784 47.1931 199.464 47.4917C199.144 47.6437 198.874 47.8348 198.696 48.1068C198.525 48.2677 198.332 48.4156 198.271 48.6374C198.219 48.6574 198.194 48.6894 198.185 48.7332C197.99 48.9508 197.791 49.1679 197.684 49.4278C197.241 50.0988 196.795 50.767 196.505 51.4956C196.363 51.8169 196.208 52.1331 196.166 52.4758C196.006 52.7296 196.045 53.0096 195.992 53.2778C195.849 53.9753 195.817 54.6807 195.758 55.3842C195.68 55.506 195.696 55.6288 195.758 55.752C195.685 55.978 195.713 56.2026 195.73 56.4346C195.78 57.1525 195.911 57.8676 195.981 58.5851C195.986 58.6316 196.009 58.6739 196.023 58.7176C196.012 58.9334 196.106 59.1315 196.169 59.3356C196.26 59.8829 196.491 60.4004 196.727 60.916C196.785 61.2187 196.947 61.4852 197.128 61.7484C197.132 61.8241 197.13 61.906 197.225 61.952C197.227 61.9641 197.233 61.9734 197.238 61.9832C197.249 62.006 197.267 62.0241 197.301 62.0315L197.3 62.0334C197.32 62.1106 197.359 62.178 197.432 62.2319C197.43 62.2561 197.449 62.271 197.477 62.2682C197.486 62.2928 197.508 62.3063 197.54 62.3068C197.552 62.3314 197.574 62.3468 197.6 62.3579C197.613 62.3644 197.628 62.371 197.643 62.3747V62.377C197.772 62.5848 197.911 62.7853 198.153 62.921C198.16 62.9601 198.189 62.9847 198.237 62.9936C198.246 63.0196 198.265 63.0354 198.291 63.0461C198.302 63.0517 198.313 63.0582 198.329 63.0605L198.332 63.0652C198.344 63.0996 198.371 63.1205 198.417 63.1279C198.637 63.366 198.922 63.5176 199.267 63.6087C199.553 63.7868 199.844 63.9547 200.194 64.0407C200.566 64.1342 200.903 64.3043 201.283 64.3662C201.418 64.4457 201.579 64.4145 201.725 64.4234L201.759 64.4373L201.795 64.4341C202.072 64.5364 202.361 64.4982 202.647 64.5001C202.668 64.5113 202.692 64.5168 202.711 64.5201C202.734 64.5271 202.758 64.5271 202.782 64.5317C202.828 64.541 202.874 64.5522 202.921 64.5545C202.945 64.5559 202.97 64.5545 202.995 64.555C203.081 64.555 203.168 64.5531 203.255 64.548C203.289 64.5461 203.324 64.5438 203.358 64.5429C203.435 64.5401 203.512 64.5405 203.588 64.5508C203.645 64.5573 203.699 64.5591 203.757 64.5638C203.818 64.6173 203.907 64.6168 203.991 64.6182C204.865 64.6438 205.746 64.6828 206.624 64.5963C206.663 64.594 206.698 64.5712 206.738 64.5591C207.084 64.568 207.421 64.5289 207.741 64.4108C208.312 64.4048 208.849 64.2769 209.352 64.0598C209.425 64.0691 209.475 64.0407 209.518 63.9975L209.523 63.9961C209.847 63.9454 210.123 63.8263 210.374 63.6562C210.539 63.618 210.681 63.5543 210.794 63.4488C210.821 63.4372 210.846 63.4246 210.873 63.4144C210.911 63.4158 210.934 63.3972 210.943 63.366L210.948 63.3623C211.285 63.2349 211.516 62.9977 211.791 62.8127C212.044 62.6955 212.285 62.5686 212.391 62.3291C212.415 62.3049 212.444 62.2784 212.476 62.258C212.525 62.2505 212.555 62.2273 212.553 62.1873L212.554 62.185C212.977 61.8865 213.226 61.5019 213.411 61.0834C213.482 61.0523 213.493 61.0011 213.492 60.9425C213.606 60.8277 213.675 60.6956 213.668 60.5417C213.823 60.1958 214.014 59.861 214.081 59.49C214.227 59.3742 214.247 59.2282 214.223 59.0729C214.365 58.7609 214.451 58.4372 214.408 58.102C214.441 58.0429 214.427 57.982 214.415 57.9234C214.436 57.8532 214.446 57.7872 214.448 57.7277C214.452 57.6877 214.452 57.6482 214.454 57.6082C214.456 57.5794 214.458 57.5505 214.459 57.5217L214.46 57.5231Z" fill="#21A151"/>
<path fill-rule="evenodd" clip-rule="evenodd" d="M369.44 65.0182C369.366 64.5199 369.494 63.585 369.218 63.3956C369.018 63.2885 368.787 63.4734 368.54 63.3925C368.328 63.3234 368.058 63.3075 367.816 63.2489C367.671 63.2415 367.526 63.2344 367.382 63.2273C367.302 63.1962 367.253 63.1342 367.13 63.1226C367.047 63.1696 366.964 63.2166 366.88 63.2636C366.666 63.5482 366.668 64.2645 366.56 64.7055C366.131 66.4535 366.05 68.2627 365.97 70.0447C365.934 70.8416 365.824 71.6839 365.926 72.3529C365.932 72.45 365.938 72.5473 365.945 72.6447C366.072 72.935 366.422 72.8334 366.706 72.9212C366.957 72.9991 367.972 72.9205 368.165 72.9507C368.308 72.973 368.579 73.0084 368.625 72.991C368.95 72.8685 369.553 73.0319 369.735 72.7192C369.878 72.4756 369.866 71.4173 369.86 70.994C369.83 69.0248 369.732 66.972 369.441 65.0182H369.44Z" fill="#A26B4B"/>
<path fill-rule="evenodd" clip-rule="evenodd" d="M382.271 55.0172C381.923 54.3147 381.55 53.6922 380.794 53.1351C380.843 52.8903 380.891 52.6453 380.94 52.4005C380.999 52.0335 380.944 51.7118 380.969 51.351C381.045 50.2376 380.571 49.1399 379.872 48.2513C379.565 47.8619 379.205 47.5303 378.828 47.2015C378.7 47.0899 377.504 46.3998 377.512 46.4261C377.642 45.7906 377.936 45.3362 377.762 44.1642C377.659 43.4672 377.568 43.2457 377.24 42.6109C376.645 41.4611 375.063 39.9164 373.539 40.0109C373.411 40.0187 372.981 39.1054 372.881 38.9862C372.392 38.3994 371.762 37.8175 371.039 37.5246C369.808 37.0258 368.31 36.876 367.005 37.365C365.605 37.8899 364.271 38.9523 363.929 40.2991C363.731 40.4327 363.355 40.4539 363.061 40.5488C362.82 40.6663 361.647 40.9128 361.346 41.0856C359.01 42.4238 358.124 44.6528 358.385 47.1445C358.303 47.2366 357.616 47.6395 357.272 47.8795C356.878 48.1539 356.53 48.5157 356.223 48.8704C354.473 50.8933 354.187 53.4738 355.657 55.7113C355.657 55.7113 354.834 57.1452 354.772 58.0056C354.701 58.9837 354.746 60.0888 355.062 61.0184C355.566 62.5005 356.568 63.4164 358.126 63.9126C358.39 63.9966 358.794 63.9482 359.01 64.0766C359.01 64.0766 359.631 64.7594 360.05 65.0148C360.614 65.3586 361.279 65.5976 361.927 65.7612C362.954 66.0197 364.039 66.1306 365.093 65.9578C365.63 65.8697 366.149 65.708 366.634 65.4775C367.05 65.28 367.429 64.946 367.847 64.7838C367.847 64.7838 368.901 65.3785 369.124 65.5031C370.02 66.0033 371.093 66.1116 372.12 66.0594C372.661 66.0318 373.198 65.9447 373.717 65.7978C374.245 65.6482 374.693 65.3289 375.22 65.1788C375.342 65.1442 376.582 64.197 377.009 63.4316C377.091 63.2851 377.365 63.3813 377.524 63.3212C378.213 63.0612 378.881 63.0104 379.55 62.628C381.951 61.2551 382.997 58.4806 382.571 55.9627C382.508 55.5948 382.405 55.2888 382.27 55.0172H382.271Z" fill="#12944A"/>
<path fill-rule="evenodd" clip-rule="evenodd" d="M7.25945 55.0172C6.91155 54.3147 6.53823 53.6922 5.7821 53.1351C5.83088 52.8903 5.87966 52.6453 5.92845 52.4005C5.9875 52.0335 5.93255 51.7118 5.9572 51.351C6.03346 50.2376 5.55898 49.1399 4.85985 48.2513C4.55354 47.8619 4.19357 47.5303 3.8164 47.2015C3.68854 47.0899 2.49259 46.3998 2.50003 46.4261C2.63072 45.7906 2.92445 45.3362 2.75063 44.1642C2.64741 43.4672 2.55652 43.2457 2.22788 42.6109C1.63298 41.4611 0.0513912 39.9164 -1.47294 40.0109C-1.60055 40.0187 -2.03112 39.1054 -2.13048 38.9862C-2.6201 38.3994 -3.25017 37.8175 -3.97267 37.5246C-5.20354 37.0258 -6.70221 36.876 -8.00676 37.365C-9.40683 37.8899 -10.7404 38.9523 -11.0824 40.2991C-11.2803 40.4327 -11.6567 40.4539 -11.9507 40.5488C-12.1913 40.6663 -13.3644 40.9128 -13.6658 41.0856C-16.0015 42.4238 -16.8875 44.6528 -16.6269 47.1445C-16.7088 47.2366 -17.3954 47.6395 -17.74 47.8795C-18.1338 48.1539 -18.482 48.5157 -18.7888 48.8704C-20.5385 50.8933 -20.8243 53.4738 -19.3547 55.7113C-19.3547 55.7113 -20.1773 57.1452 -20.2394 58.0056C-20.3103 58.9837 -20.2661 60.0888 -19.9501 61.0184C-19.4461 62.5005 -18.4435 63.4164 -16.8855 63.9126C-16.6216 63.9966 -16.2179 63.9482 -16.002 64.0766C-16.002 64.0766 -15.3809 64.7594 -14.9619 65.0148C-14.3981 65.3586 -13.7331 65.5976 -13.0843 65.7612C-12.058 66.0197 -10.9725 66.1306 -9.91878 65.9578C-9.38192 65.8697 -8.86278 65.708 -8.37777 65.4775C-7.96209 65.28 -7.58312 64.946 -7.16488 64.7838C-7.16488 64.7838 -6.11117 65.3785 -5.88779 65.5031C-4.99199 66.0033 -3.91825 66.1116 -2.89175 66.0594C-2.35052 66.0318 -1.8134 65.9447 -1.29502 65.7978C-0.767135 65.6482 -0.318842 65.3289 0.208526 65.1788C0.32997 65.1442 1.56982 64.197 1.99731 63.4316C2.07896 63.2851 2.35292 63.3813 2.51262 63.3212C3.20148 63.0612 3.86903 63.0104 4.53813 62.628C6.93927 61.2551 7.98502 58.4806 7.55881 55.9627C7.49642 55.5948 7.39296 55.2888 7.25842 55.0172H7.25945Z" fill="#12944A"/>
<path fill-rule="evenodd" clip-rule="evenodd" d="M98.6092 60.9964C98.5258 60.4345 98.6694 59.3798 98.3589 59.1661C98.1333 59.0456 97.872 59.2538 97.5935 59.1627C97.355 59.0848 97.0496 59.0671 96.777 59.0009C96.6138 58.9929 96.4501 58.9844 96.2869 58.9764C96.1975 58.9414 96.1414 58.8715 96.0033 58.8584C95.9094 58.9115 95.8155 58.9646 95.7216 59.0173C95.4795 59.3381 95.4818 60.1462 95.3596 60.6436C94.8763 62.6151 94.7842 64.6562 94.6944 66.6661C94.6543 67.5652 94.5294 68.515 94.6452 69.2699C94.652 69.3795 94.6589 69.4891 94.6662 69.5987C94.8098 69.9263 95.205 69.8116 95.5246 69.9107C95.8082 69.9984 96.9529 69.9098 97.1709 69.944C97.3322 69.9693 97.6377 70.0093 97.6897 69.9895C98.0562 69.8512 98.7364 70.0355 98.942 69.683C99.1025 69.4082 99.0893 68.2144 99.082 67.7372C99.0482 65.5157 98.9375 63.2006 98.6092 60.9964Z" fill="#A26B4B"/>
<path fill-rule="evenodd" clip-rule="evenodd" d="M113.082 50.5843C112.69 49.7918 112.269 49.09 111.416 48.4615C111.471 48.1853 111.526 47.9092 111.581 47.6327C111.648 47.2188 111.586 46.8558 111.614 46.449C111.699 45.1933 111.164 43.9548 110.376 42.9524C110.03 42.5131 109.624 42.1392 109.199 41.7683C109.055 41.6422 107.706 40.8641 107.714 40.894C107.861 40.177 108.192 39.6644 107.996 38.3425C107.88 37.5563 107.777 37.3063 107.407 36.5901C106.736 35.2935 104.952 33.5508 103.232 33.6575C103.088 33.6663 102.603 32.6361 102.491 32.5016C101.938 31.8394 101.228 31.1831 100.413 30.853C99.0239 30.2903 97.3339 30.1212 95.8622 30.673C94.283 31.2649 92.7785 32.4637 92.3933 33.9825C92.1699 34.1334 91.7455 34.157 91.414 34.2641C91.1428 34.3969 89.8193 34.6747 89.4797 34.8694C86.845 36.3789 85.8457 38.893 86.1398 41.7038C86.0472 41.8075 85.2731 42.2619 84.8842 42.533C84.4402 42.8424 84.0472 43.2508 83.7012 43.6504C81.7276 45.9322 81.4052 48.8429 83.0629 51.3671C83.0629 51.3671 82.1351 52.9845 82.0645 53.9549C81.9847 55.0585 82.0344 56.3046 82.3909 57.3533C82.9594 59.0252 84.09 60.0584 85.8475 60.6182C86.1452 60.713 86.6007 60.6582 86.8441 60.8032C86.8441 60.8032 87.5448 61.5734 88.0171 61.8617C88.6531 62.2495 89.4031 62.5193 90.1352 62.7035C91.2928 62.9952 92.5173 63.12 93.7058 62.9252C94.3113 62.8257 94.8971 62.6436 95.4442 62.3836C95.9133 62.1606 96.3405 61.7841 96.8123 61.6012C96.8123 61.6012 98.0009 62.2718 98.253 62.4126C99.2637 62.9767 100.475 63.0989 101.633 63.0403C102.243 63.0091 102.849 62.9109 103.433 62.7452C104.029 62.5766 104.534 62.2162 105.129 62.0472C105.267 62.008 106.665 60.9398 107.147 60.0765C107.239 59.9112 107.548 60.0196 107.728 59.9517C108.505 59.6587 109.259 59.601 110.013 59.1698C112.721 57.621 113.901 54.4915 113.42 51.6512C113.35 51.2364 113.233 50.8908 113.082 50.5847L113.082 50.5843Z" fill="#12944A"/>
<path fill-rule="evenodd" clip-rule="evenodd" d="M175.196 60.2123C175.387 60.3959 175.577 60.5801 175.768 60.7637C175.889 60.7648 176.01 60.7659 176.132 60.7669C176.305 60.6165 176.477 60.4661 176.65 60.3151C176.758 60.1036 177.169 57.5156 177.176 57.1745C177.093 56.9459 177.011 56.7173 176.928 56.4893C176.637 56.5626 176.346 56.6365 176.055 56.7104C175.931 57.1264 175.196 60.2123 175.196 60.2123Z" fill="#8BC345"/>
<path fill-rule="evenodd" clip-rule="evenodd" d="M172.874 60.6751C173.564 60.6365 173.718 60.016 173.709 59.2007C173.507 58.7975 173.565 57.3622 173.688 56.4568C173.558 56.2994 173.429 56.1415 173.299 55.9841C173.209 55.9498 173.12 55.9161 173.03 55.8818C172.81 56.0864 172.589 56.2909 172.368 56.4948C172.104 57.0479 172.056 60.0744 172.199 60.5107C172.424 60.5653 172.649 60.6205 172.874 60.6751Z" fill="#8BC345"/>
<path fill-rule="evenodd" clip-rule="evenodd" d="M170.047 61.1028C170.701 60.8935 170.594 60.5755 170.347 59.7928C170.347 58.7739 169.744 57.7406 169.598 56.838C169.427 56.7186 169.256 56.5992 169.085 56.4798C168.989 56.4691 168.893 56.4589 168.797 56.4482C168.644 56.6999 168.491 56.952 168.338 57.2042C168.246 57.8028 169.084 60.7286 169.349 61.113C169.581 61.1098 169.814 61.1066 170.046 61.1028H170.047Z" fill="#8BC345"/>
<path fill-rule="evenodd" clip-rule="evenodd" d="M299.675 75.2031C299.865 75.3867 300.056 75.5709 300.246 75.7545C300.368 75.7556 300.489 75.7566 300.611 75.7572C300.783 75.6067 300.956 75.4563 301.128 75.3059C301.237 75.0944 301.648 72.5063 301.654 72.1653C301.572 71.9367 301.489 71.7081 301.407 71.4795C301.115 71.5528 300.824 71.6267 300.534 71.7006C300.41 72.1166 299.675 75.2031 299.675 75.2031Z" fill="#8BC345"/>
<path fill-rule="evenodd" clip-rule="evenodd" d="M297.353 75.6659C298.043 75.6273 298.197 75.0068 298.188 74.1909C297.985 73.7877 298.043 72.3524 298.167 71.4471C298.037 71.2897 297.907 71.1317 297.778 70.9743C297.688 70.9401 297.599 70.9063 297.509 70.8721C297.288 71.0766 297.067 71.2811 296.846 71.4851C296.582 72.0381 296.535 75.0646 296.677 75.501C296.903 75.5556 297.127 75.6107 297.353 75.6653V75.6659Z" fill="#8BC345"/>
<path fill-rule="evenodd" clip-rule="evenodd" d="M294.526 76.095C295.18 75.8857 295.073 75.5677 294.826 74.785C294.826 73.7661 294.223 72.7328 294.077 71.8302C293.907 71.7108 293.735 71.5914 293.564 71.472C293.468 71.4618 293.372 71.4511 293.276 71.4404C293.123 71.6921 292.97 71.9442 292.817 72.1964C292.725 72.7949 293.563 75.7208 293.828 76.1052C294.061 76.102 294.294 76.0982 294.526 76.095Z" fill="#8BC345"/>
<path fill-rule="evenodd" clip-rule="evenodd" d="M127.657 76.3515C127.847 76.5351 128.038 76.7193 128.228 76.9029C128.35 76.904 128.471 76.9051 128.592 76.9056C128.765 76.7552 128.938 76.6047 129.11 76.4543C129.219 76.2428 129.629 73.6548 129.636 73.3137C129.554 73.0851 129.471 72.8565 129.389 72.6279C129.097 72.7013 128.806 72.7752 128.515 72.849C128.392 73.265 127.657 76.3515 127.657 76.3515Z" fill="#8BC345"/>
<path fill-rule="evenodd" clip-rule="evenodd" d="M125.334 76.8138C126.025 76.7752 126.179 76.1547 126.169 75.3393C125.967 74.9362 126.025 73.5008 126.149 72.5955C126.019 72.4381 125.889 72.2802 125.759 72.1228C125.67 72.0885 125.581 72.0548 125.491 72.0205C125.27 72.225 125.049 72.4295 124.828 72.6335C124.564 73.1866 124.517 76.2131 124.659 76.6494C124.885 76.704 125.109 76.7592 125.334 76.8138Z" fill="#8BC345"/>
<path fill-rule="evenodd" clip-rule="evenodd" d="M122.508 77.2415C123.161 77.0322 123.055 76.7142 122.808 75.9314C122.808 74.9126 122.205 73.8793 122.06 72.9767C121.889 72.8573 121.718 72.7379 121.547 72.6185C121.451 72.6078 121.355 72.5976 121.259 72.5869C121.106 72.8385 120.953 73.0907 120.8 73.3429C120.707 73.9414 121.546 76.8673 121.81 77.2517C122.043 77.2485 122.276 77.2447 122.509 77.2415H122.508Z" fill="#8BC345"/>
<path fill-rule="evenodd" clip-rule="evenodd" d="M43.281 67.7846C43.4715 67.9682 43.662 68.1524 43.8525 68.336C43.9741 68.3371 44.0951 68.3381 44.2167 68.3392C44.3893 68.1888 44.5618 68.0383 44.7343 67.8873C44.8432 67.6759 45.2537 65.0878 45.2607 64.7468C45.1779 64.5182 45.0957 64.2896 45.0129 64.0615C44.7216 64.1349 44.4304 64.2087 44.1397 64.2826C44.0158 64.6986 43.281 67.7846 43.281 67.7846Z" fill="#8BC345"/>
<path fill-rule="evenodd" clip-rule="evenodd" d="M40.9585 68.2474C41.6487 68.2088 41.8027 67.5883 41.7934 66.7729C41.5914 66.3698 41.6493 64.9344 41.7726 64.0291C41.6429 63.8717 41.5132 63.7138 41.3835 63.5564C41.2937 63.5221 41.2046 63.4884 41.1148 63.4541C40.8942 63.6586 40.673 63.8631 40.4524 64.0671C40.1884 64.6202 40.1409 67.6467 40.2834 68.083C40.5086 68.1376 40.7333 68.1927 40.9585 68.2474Z" fill="#8BC345"/>
<path fill-rule="evenodd" clip-rule="evenodd" d="M38.1315 68.6771C38.7846 68.4677 38.6787 68.1497 38.4314 67.367C38.4314 66.3481 37.8287 65.3149 37.6833 64.4122C37.5125 64.2928 37.3411 64.1734 37.1703 64.054C37.0742 64.0439 36.9781 64.0332 36.882 64.0225C36.7291 64.2741 36.5762 64.5263 36.4234 64.7784C36.3307 65.377 37.1691 68.3028 37.4338 68.6872C37.6665 68.684 37.8993 68.6803 38.1321 68.6771H38.1315Z" fill="#8BC345"/>
</g>
<defs>
<clipPath id="clip0_1976_13289">
<rect width="375" height="160" fill="white"/>
</clipPath>
</defs>
</svg>
