<svg width="48" height="48" viewBox="0 0 48 48" fill="none" xmlns="http://www.w3.org/2000/svg">
<rect width="48" height="48" rx="24" fill="#0099D9"/>
<path d="M18.3741 27.2579C18.3601 27.2159 18.3601 27.2159 18.3461 27.1879H18.3181V27.1459C18.3181 27.1319 18.3041 27.1319 18.2901 27.1179C18.2901 27.0759 18.2761 27.0339 18.2761 26.9919H18.2621V26.9499H18.2341V26.8379H18.2201V26.8099H18.2061V26.6699H18.1921V26.5859H18.1781V26.5019H18.1501V26.4319H18.1361V26.3899H18.1221V26.1939H18.1081V26.1519H18.0941C18.0801 26.1099 18.0661 26.0819 18.0521 26.0539H18.0661V26.0119H18.0241V25.9839C17.9401 25.9139 17.9401 25.8019 17.7861 25.8019C17.7581 25.7739 17.6601 25.7599 17.6181 25.7739V25.8019C17.4221 25.8019 17.2261 25.8159 17.0301 25.8299C16.8901 25.8299 16.7081 25.8159 16.5961 25.8439C16.4981 25.8719 16.3161 25.8299 16.2181 25.8579H15.7701V25.8859C15.7141 25.8999 15.6161 25.8579 15.5881 25.8579V25.8859C15.4621 25.8859 15.3501 25.8859 15.2241 25.8999V25.9139H15.0421C14.8881 25.9559 14.6641 25.9419 14.5941 26.0679C14.4961 26.1659 14.6081 26.3339 14.5521 26.5019H14.5381V27.0619C14.4821 27.2579 14.5101 27.5659 14.5101 27.8179V28.2799H14.4961C14.4961 28.3219 14.4961 28.3499 14.5101 28.3779H14.4961V28.6579H14.5101V28.7839H14.4961C14.4961 28.8119 14.5101 28.7839 14.5101 28.7979V28.9239V29.5259V29.9319C14.4681 30.0579 14.4961 30.2679 14.4961 30.4359C14.4961 30.6319 14.4541 30.9399 14.5101 31.1079V31.3599H14.5241V31.4719H14.5381C14.5521 31.7659 14.5521 32.0599 14.5521 32.3539V32.3959H14.5801V32.6199H14.5941V32.9419H14.6081V33.1519H14.6221V33.2779H14.6361V33.4459H14.6641V33.5859H14.6781V33.6979H14.6921V34.0479H14.7061V34.2579C14.7481 34.4119 14.7621 34.5939 14.8041 34.7339C14.9161 34.7759 15.0981 34.7899 15.2101 34.8319H15.2941V34.8459H15.4201V34.8739C15.5041 34.8739 15.6021 34.8879 15.7001 34.9019C15.9241 34.9439 16.1341 34.9859 16.3581 34.9999C16.3581 35.0419 16.3721 35.0839 16.3721 35.1259H16.3861V35.2239H16.4141C16.4281 35.3219 16.4001 35.4479 16.3861 35.5319C16.2461 35.5599 16.1061 35.6019 15.9661 35.6439H15.8401V35.6579H15.7281V35.6719H15.5461V35.6999H15.3641V35.7139H15.1121H14.9721V35.7279H14.5241V35.7419C14.3561 35.7419 14.1881 35.7279 14.0201 35.7279C13.9781 35.7279 13.9361 35.7419 13.9081 35.7419C13.9081 35.7419 13.8941 35.7279 13.8661 35.7279C13.8661 35.7279 13.8661 35.7559 13.8381 35.7419V35.7279H13.6561V35.7419H13.5861V35.7279H13.4601V35.7419H13.2081V35.7559H12.9141V35.7839C12.7601 35.7839 12.5921 35.7839 12.4381 35.7979V35.8119H12.3121V35.8259C12.2141 35.8539 12.0741 35.8259 11.9901 35.8399H11.8921V35.8679C11.8501 35.8679 11.8361 35.8399 11.8221 35.8399V35.8679H11.6121V35.8819H11.5981H11.5841V35.8679C11.5421 35.8539 11.5281 35.8399 11.5141 35.7979H11.5001V35.6719C11.4721 35.5459 11.5141 35.4199 11.5281 35.3079C11.5701 35.2799 11.5981 35.2519 11.6401 35.2239C12.0461 35.1679 12.4661 35.0979 12.8721 35.0419H12.9841C13.1241 34.9999 13.3621 34.9999 13.4321 34.9019C13.5441 34.7899 13.5161 34.5099 13.5161 34.2859C13.5161 34.0759 13.5301 33.8659 13.4881 33.7119V33.4739H13.4601C13.4741 33.4459 13.4741 33.4319 13.4881 33.4039C13.4601 33.2639 13.4741 33.0399 13.4601 32.8719V32.7879C13.4601 32.7599 13.4461 32.7879 13.4461 32.7739H13.4601V32.5359H13.4461C13.4181 32.4379 13.4601 32.2839 13.4321 32.1999V31.8919H13.4181C13.4041 31.8639 13.4321 31.8499 13.4321 31.8499V31.6539H13.4181V31.4019H13.4321V31.3879H13.4181V31.2059H13.4321C13.4601 31.1219 13.4181 31.0099 13.4181 30.9539C13.4181 30.9119 13.4321 30.8139 13.4321 30.7999H13.4181V30.1979H13.4321C13.4321 30.1839 13.4461 30.1699 13.4461 30.1419H13.4321V29.9739H13.4181V29.8899H13.4041C13.4041 29.8759 13.4321 29.8479 13.4181 29.8059H13.4041V29.5959H13.3761V29.4419H13.3621C13.3621 29.2179 13.3481 29.0079 13.3481 28.7839H13.3341V28.5739C13.2781 28.3779 13.2641 28.1539 13.2641 27.9159C13.2641 27.7339 13.2781 27.5379 13.2361 27.4119C13.2221 27.3559 13.2361 27.2719 13.2501 27.2439C13.2641 27.1739 13.2221 27.0899 13.2081 27.0619C13.2221 26.9639 13.2221 26.8799 13.2361 26.7819H13.2081V26.5019H13.1941V26.4039H13.1801V26.2779H13.1661V26.2219H13.1521C13.1521 26.2079 13.1521 26.1939 13.1661 26.1799H13.1521V25.9419H13.1241V25.8299H13.1101C13.1101 25.8019 13.0961 25.7879 13.0961 25.7599H13.0821V25.7179H13.0681V25.6619C13.0401 25.6339 13.0121 25.6199 12.9841 25.5919V25.5779H12.9141C12.8581 25.5219 12.7321 25.5639 12.6201 25.5499L12.6061 25.5219H12.5921V25.5499C12.5501 25.5499 12.5641 25.5219 12.5641 25.5219H12.3681V25.5079C12.2701 25.5079 12.1721 25.4939 12.0741 25.4939C12.0321 25.4939 11.9761 25.5079 11.9341 25.5079V25.4939H11.8361V25.4799H11.6821C11.5421 25.4799 11.3321 25.4939 11.2201 25.4659H10.9961V25.4379C10.9681 25.4519 10.9261 25.4519 10.8981 25.4659V25.4379H10.5901C10.5901 25.4379 10.5901 25.4239 10.5621 25.4239V25.4379C10.5061 25.4519 10.4641 25.4519 10.4081 25.4659C10.4081 25.4659 10.3941 25.4799 10.3941 25.4939C10.3801 25.4939 10.3661 25.5079 10.3521 25.5079V25.5499H10.3381V25.5919H10.3241V25.6759H10.3101V25.7459C10.2121 26.0399 10.1701 26.3759 10.1001 26.6979C10.1001 26.7119 10.0721 26.7399 10.0721 26.7399H9.83407V26.7259H9.73607V26.6979H9.66607V26.6839H9.63807V26.6699C9.59607 26.6559 9.52607 26.6559 9.49807 26.6419C9.49807 26.6139 9.48407 26.5999 9.48407 26.5859H9.47007V26.4739H9.45607C9.44207 26.4319 9.47007 26.4179 9.47007 26.4179C9.49807 26.3059 9.45607 26.1659 9.48407 26.0819V25.8999H9.49807V25.8299H9.51207V25.7459H9.54007V25.5779H9.55407V25.4239H9.56807V25.3119H9.58207V25.1859H9.59607C9.61007 25.1439 9.61007 25.0879 9.62407 25.0459H9.63807V24.9619H9.65207V24.8779H9.66607V24.7939H9.68007V24.7239H9.70807V24.6399H9.72207V24.5699H9.73607V24.5139H9.75007V24.4719C9.77807 24.4579 9.79207 24.4299 9.82007 24.4159C9.82007 24.4019 9.83407 24.4019 9.83407 24.3879H10.1281C10.1561 24.4159 10.2821 24.4019 10.3381 24.4019H10.4361V24.4159H10.8001C11.3601 24.4299 11.9201 24.4579 12.4801 24.4719C12.6341 24.5139 12.9001 24.4859 13.0961 24.4859C13.4601 24.4859 13.8101 24.4999 14.1741 24.4999H14.6921C14.8041 24.5279 14.9861 24.4859 15.1121 24.5139C15.1961 24.5419 15.3781 24.5419 15.5321 24.5419H15.8541V24.5559H16.1201V24.5699C16.1761 24.5839 16.2041 24.5419 16.2461 24.5559V24.5699H16.5541V24.5839H16.6381H17.0301V24.5979H17.3521V24.6259H17.4361H17.6181V24.6399H17.8701V24.6539H18.0241V24.6679H18.1221V24.6819H18.4861C18.6261 24.7239 18.8501 24.7239 18.9901 24.7519C19.0041 24.7799 19.0041 24.8079 19.0181 24.8499C18.9761 24.8919 18.9901 25.0039 18.9901 25.0739C18.9901 25.2279 18.9901 25.3819 18.9761 25.5499C18.9621 26.1239 18.9621 26.6979 18.9481 27.2719C18.9341 27.2859 18.9201 27.2859 18.9061 27.2859C18.8501 27.3419 18.7661 27.2999 18.6821 27.3279V27.3419C18.6541 27.3419 18.6261 27.3139 18.5701 27.3279V27.3419H18.5561H18.5421C18.5281 27.3279 18.5141 27.3139 18.5141 27.2859C18.4721 27.2719 18.4301 27.2579 18.3741 27.2579Z" fill="white"/>
<path d="M27.3029 33.1939C27.4009 33.1099 27.2609 32.4799 26.8969 32.0179C26.5189 31.5559 25.6369 31.4019 25.4409 31.4019C25.4409 31.4019 25.4409 31.4019 25.4269 31.4019C25.7069 31.1919 25.9729 30.9119 26.1689 30.5339C26.7429 29.4419 26.4909 28.9379 26.4909 28.9379C26.4909 28.9379 26.0289 28.9799 25.8889 28.9659C25.8889 28.9659 25.6089 28.7979 25.6089 28.6579C25.3009 28.6719 24.1949 28.9519 24.1949 30.5479C23.6909 29.6519 23.0049 29.3299 22.8509 29.3999C22.6409 29.5119 22.7809 30.0299 22.6129 30.0719C22.4449 30.0999 21.8849 30.2959 21.8849 30.2959C22.1089 31.1779 22.5009 31.6259 22.9489 31.8359C22.7389 31.8919 22.5289 31.9619 22.3189 32.0599C21.9129 32.2279 21.4789 32.7739 21.4789 32.7739C21.5489 32.9279 21.9689 32.8719 22.0529 33.0819C22.1229 33.3059 22.0669 33.8799 22.1789 34.0899C22.9069 34.0199 23.2569 33.8519 23.6069 33.5579C23.5929 34.2579 23.6489 34.7619 23.7329 34.9159C23.9289 34.9299 24.0829 34.7759 24.4189 34.8459C24.7409 34.9159 24.7129 35.1539 24.9229 35.1539C25.1329 35.1679 25.3429 34.7619 25.4409 34.2859C25.5109 34.0479 25.5389 33.7679 25.5109 33.4879C25.9589 33.8939 26.4489 33.9499 26.5189 33.9359C26.6029 33.9219 26.6869 33.5579 26.7989 33.4039C26.9109 33.2499 27.2189 33.2779 27.3029 33.1939ZM28.1289 31.8499V32.2419H28.1149C28.1009 32.2839 28.1429 32.3119 28.1289 32.3679H28.1149V32.5639H28.0869V32.6899H28.0729V32.8439H28.0589V32.9559H28.0449V33.0399H28.0169V33.1239H28.0029C28.0029 33.1799 27.9889 33.2219 27.9889 33.2779H27.9609C27.9609 33.3199 27.9609 33.3759 27.9469 33.4179H27.9329C27.9189 33.4599 27.9189 33.5159 27.9189 33.5579H27.8909C27.8909 33.6139 27.8769 33.6559 27.8769 33.7119H27.8629V33.7539H27.8349V33.8099H27.8209V33.8659H27.8069C27.7929 33.9079 27.7929 33.9359 27.7929 33.9779H27.7649V34.0059H27.7509V34.0619H27.7369C27.7229 34.1039 27.7089 34.1319 27.6949 34.1739H27.6809V34.2159H27.6669V34.2439H27.6389V34.2859H27.6249V34.3139L27.5829 34.3559V34.3839C27.5829 34.3979 27.5689 34.3979 27.5549 34.4119V34.4399H27.5409V34.4819L27.4989 34.5099V34.5519C27.4849 34.5519 27.4709 34.5659 27.4569 34.5659C27.4569 34.5939 27.4569 34.6219 27.4429 34.6359C27.4289 34.6499 27.4149 34.6499 27.4149 34.6639V34.6919H27.3869C27.3869 34.7199 27.3729 34.7339 27.3729 34.7479C27.3589 34.7619 27.3449 34.7619 27.3309 34.7619V34.8039C27.3309 34.8039 27.3169 34.8179 27.3029 34.8179V34.8599C27.2889 34.8739 27.2609 34.8879 27.2469 34.8879C27.2469 34.9159 27.2329 34.9299 27.2329 34.9439C27.1909 34.9859 27.1489 34.9999 27.1069 35.0419V35.0839L27.0649 35.1119C27.0509 35.1259 27.0369 35.1259 27.0089 35.1259C26.9389 35.2099 26.8549 35.2939 26.7849 35.3779C26.5749 35.5319 26.3509 35.6719 26.0989 35.7839C25.9869 35.7979 25.8609 35.8259 25.7489 35.8539V35.8679H25.6789V35.8819H25.6089V35.9099H25.5249V35.9239H25.4269V35.9379H25.3429V35.9659H25.2869V35.9799H25.1189V35.9939C25.0209 36.0079 24.9229 36.0219 24.8389 36.0359C24.6849 36.0359 24.4749 36.0499 24.3489 36.0079H24.2229V35.9939H24.1669V35.9799H24.0829V35.9659H23.9989V35.9379H23.9569V35.9239C23.9009 35.9239 23.8589 35.9099 23.8029 35.9099V35.8819H23.7749V35.8679C23.7049 35.8539 23.6489 35.8399 23.5929 35.8399V35.8119C23.5649 35.8119 23.5369 35.7979 23.5229 35.7979V35.7839C23.4809 35.7699 23.4529 35.7699 23.4109 35.7559V35.7419C23.3829 35.7419 23.3549 35.7279 23.3269 35.7279V35.7139C23.2989 35.6999 23.2709 35.6999 23.2429 35.6859V35.6719H23.2149V35.6579H23.1589C23.1589 35.6439 23.1449 35.6299 23.1449 35.6159C23.1029 35.6019 23.0749 35.5879 23.0329 35.5879C23.0329 35.5739 23.0189 35.5599 23.0189 35.5459C22.9909 35.5459 22.9629 35.5319 22.9489 35.5319C22.9349 35.5179 22.9349 35.5039 22.9209 35.4899C22.9069 35.4899 22.8789 35.4759 22.8509 35.4759V35.4619C22.8369 35.4479 22.8229 35.4479 22.7949 35.4339C22.7949 35.4199 22.7809 35.4199 22.7809 35.4059H22.7389C22.7249 35.3779 22.7109 35.3499 22.6969 35.3359C22.6689 35.3219 22.6549 35.3219 22.6409 35.3079C22.6269 35.2939 22.6269 35.2939 22.6129 35.2799H22.5849V35.2519C22.5709 35.2519 22.5429 35.2519 22.5289 35.2379C22.5289 35.2239 22.5149 35.2099 22.5149 35.2099H22.4729C22.4449 35.1679 22.4309 35.1399 22.4029 35.1119H22.3609C22.3469 35.0839 22.3329 35.0699 22.3189 35.0419H22.2769C22.2629 35.0279 22.2489 34.9999 22.2349 34.9999H22.2069C22.1929 34.9859 22.1929 34.9719 22.1929 34.9719H22.1509C22.1229 34.9299 22.0949 34.8879 22.0669 34.8599C22.0389 34.8459 22.0109 34.8179 21.9829 34.8039C21.9829 34.7899 21.9829 34.7759 21.9689 34.7619H21.9409V34.7479C21.9129 34.7199 21.9129 34.7339 21.8989 34.6919H21.8569C21.8569 34.6779 21.8429 34.6639 21.8289 34.6359C21.7589 34.5799 21.6889 34.5239 21.6329 34.4679V34.4259C21.6189 34.4259 21.6049 34.4119 21.5909 34.4119V34.3699C21.5769 34.3559 21.5629 34.3419 21.5349 34.3419V34.2999C21.5209 34.2999 21.5209 34.2859 21.5069 34.2859C21.4929 34.2579 21.4929 34.2439 21.4789 34.2299C21.4649 34.2159 21.4369 34.1879 21.4089 34.1739V34.1319C21.3949 34.1319 21.3809 34.1179 21.3529 34.1039C21.3529 34.0619 21.3389 34.0339 21.3249 33.9919H21.3109V33.9639H21.2829V33.9219H21.2689C21.2549 33.8799 21.2409 33.8519 21.2269 33.8099H21.2129C21.2129 33.7819 21.1989 33.7539 21.1989 33.7259H21.1849V33.6839H21.1569V33.6279H21.1429C21.1429 33.6139 21.1289 33.5859 21.1289 33.5579H21.1009V33.5019H21.0869V33.4739H21.0729V33.4319H21.0589V33.4039H21.0309V33.3339H21.0169V33.2779H21.0029C20.9889 33.2499 20.9889 33.2219 20.9749 33.2079H20.9609V33.1519C20.9469 33.1379 20.9329 33.1379 20.9329 33.1239V33.0959H20.9049V33.0539H20.8909V33.0259H20.8769V32.9839L20.8349 32.9559V32.9139C20.8209 32.9139 20.8069 32.8999 20.8069 32.8999V32.8579H20.7789V32.8299H20.7649V32.7739C20.7509 32.7599 20.7369 32.7599 20.7229 32.7459V32.6759H20.7089V32.6199H20.6949V32.5499H20.6809V32.4799H20.6529V32.3959H20.6389V32.3399H20.6249V32.2699H20.5969V32.1159H20.5829V31.9339H20.5689C20.5689 31.9059 20.5829 31.8779 20.5829 31.8499H20.5689V31.5559H20.5549V31.5419H20.5689V31.4579H20.5829V31.2899H20.5969V31.2059H20.6249V31.0519H20.6389V30.9539H20.6529V30.8839H20.6809V30.7299H20.6949V30.7019H20.7089V30.6319H20.7229V30.5899H20.7509V30.5199H20.7649V30.4499H20.7789V30.3939H20.8069V30.3239H20.8209C20.8209 30.2959 20.8349 30.2679 20.8349 30.2539H20.8489V30.1699H20.8769V30.1419H20.8909V30.0999C20.9049 30.0999 20.9189 30.0859 20.9329 30.0859V30.0299H20.9469C20.9469 30.0019 20.9609 29.9879 20.9609 29.9599H20.9749V29.8899C21.0029 29.8759 21.0169 29.8619 21.0309 29.8479C21.0589 29.7919 21.0729 29.7499 21.0869 29.6939H21.1009V29.6519C21.1149 29.6519 21.1289 29.6379 21.1429 29.6379V29.5959H21.1569V29.5679H21.1849V29.5119C21.1849 29.4979 21.1989 29.4979 21.2129 29.4979V29.4559H21.2269V29.4139C21.2409 29.4139 21.2549 29.4139 21.2689 29.3999C21.2689 29.3719 21.2829 29.3439 21.2829 29.3159C21.3109 29.3019 21.3249 29.2879 21.3389 29.2739C21.3529 29.2599 21.3529 29.2459 21.3529 29.2179H21.3809C21.3949 29.1899 21.3949 29.1479 21.4089 29.1199C21.4369 29.1059 21.4509 29.0919 21.4649 29.0779V29.0359C21.4789 29.0359 21.4929 29.0359 21.5069 29.0219V28.9939C21.5209 28.9799 21.5349 28.9659 21.5629 28.9519V28.9099C21.5629 28.9099 21.5769 28.9099 21.5909 28.8959V28.8679C21.6049 28.8539 21.6329 28.8399 21.6469 28.8259V28.7839C21.6889 28.7559 21.7169 28.7279 21.7589 28.6999V28.6579C21.7729 28.6579 21.7869 28.6439 21.8149 28.6299V28.5879L21.8429 28.5599H21.8849C21.8989 28.5319 21.8989 28.5179 21.9129 28.5039C21.9409 28.4759 21.9829 28.4479 22.0109 28.4339C22.0249 28.4059 22.0389 28.3639 22.0669 28.3359H22.0949C22.1089 28.3219 22.1229 28.3079 22.1369 28.2799H22.1649C22.1789 28.2659 22.1929 28.2519 22.2069 28.2379C22.2349 28.2239 22.2489 28.2239 22.2769 28.2099C22.2909 28.1959 22.3049 28.1819 22.3189 28.1539C22.3329 28.1539 22.3609 28.1539 22.3889 28.1399C22.4029 28.1259 22.4029 28.1119 22.4169 28.0839H22.4589V28.0699H22.4869V28.0559H22.5429C22.5569 28.0279 22.5709 28.0139 22.5849 27.9999H22.6129L22.6549 27.9579H22.6969V27.9439H22.7249C22.7389 27.9299 22.7389 27.9159 22.7389 27.9019C22.7669 27.9019 22.7949 27.9019 22.8229 27.8879V27.8739C22.8369 27.8599 22.8649 27.8599 22.8929 27.8599V27.8319H22.9489V27.8179H22.9769V27.8039C23.0049 27.7899 23.0329 27.7899 23.0749 27.7759V27.7619C23.1169 27.7619 23.1589 27.7479 23.2149 27.7479V27.7339H23.2849V27.7059H23.3689V27.6919H23.4949V27.6779H23.6629V27.6499H23.9289V27.6359C24.1529 27.6499 24.3629 27.6499 24.5869 27.6499V27.6779C24.6849 27.6779 24.7969 27.6919 24.9089 27.6919V27.7059H24.9789V27.7339C25.0489 27.7339 25.1189 27.7479 25.1889 27.7619V27.7759C25.2169 27.7899 25.2449 27.7899 25.2729 27.8039V27.8179H25.3429V27.8319H25.3989V27.8599C25.4549 27.8599 25.5109 27.8599 25.5669 27.8739V27.8879H25.6229V27.9019H25.6789V27.9299C25.7209 27.9299 25.7629 27.9439 25.8049 27.9439V27.9579H25.8469V27.9859C25.9029 27.9859 25.9449 27.9999 26.0009 28.0139V28.0279C26.0289 28.0419 26.0709 28.0419 26.0989 28.0559V28.0699C26.1129 28.0699 26.1409 28.0839 26.1689 28.0839V28.1119H26.1969V28.1259C26.2389 28.1259 26.2669 28.1399 26.2949 28.1399C26.2949 28.1539 26.3089 28.1679 26.3089 28.1819H26.3649C26.3649 28.1959 26.3789 28.1959 26.3789 28.2099H26.4349V28.2379H26.4769V28.2519H26.5049C26.5189 28.2659 26.5189 28.2799 26.5329 28.2799C26.5609 28.2939 26.6029 28.3079 26.6309 28.3219C26.6449 28.3359 26.6449 28.3499 26.6589 28.3639H26.6869V28.3779H26.7289C26.7289 28.3919 26.7429 28.4059 26.7429 28.4059H26.7849C26.7849 28.4199 26.7849 28.4339 26.7989 28.4479H26.8269C26.8409 28.4619 26.8409 28.4759 26.8549 28.4899H26.8829C26.8969 28.4899 26.8969 28.5039 26.9109 28.5179H26.9389C26.9529 28.5319 26.9529 28.5459 26.9529 28.5599C26.9809 28.5599 26.9949 28.5739 27.0089 28.5739C27.0229 28.5879 27.0369 28.6159 27.0509 28.6299H27.0789C27.0929 28.6439 27.0929 28.6579 27.1069 28.6579C27.1209 28.6859 27.1489 28.6999 27.1769 28.7139V28.7559C27.1909 28.7559 27.2049 28.7699 27.2049 28.7699C27.2189 28.7979 27.2189 28.8259 27.2329 28.8399C27.2469 28.8539 27.2469 28.8539 27.2609 28.8679C27.2749 28.8819 27.2749 28.8959 27.2889 28.9099H27.3029V28.9519L27.3309 28.9939V29.0219H27.3589V29.0639C27.3729 29.0639 27.3729 29.0779 27.3869 29.0779V29.1199H27.4149V29.1479L27.4429 29.1899V29.2179C27.4569 29.2319 27.4709 29.2319 27.4849 29.2459V29.2739L27.5129 29.3159V29.3439H27.5409V29.3859H27.5549C27.5549 29.4139 27.5689 29.4279 27.5689 29.4559C27.5829 29.4559 27.5969 29.4699 27.6109 29.4699V29.5119H27.6249V29.5399H27.6389V29.5819L27.6809 29.6239V29.6519C27.6949 29.6659 27.7089 29.6659 27.7089 29.6659C27.7229 29.6939 27.7229 29.7219 27.7369 29.7499H27.7509V29.7779H27.7649C27.7789 29.8199 27.7929 29.8479 27.8069 29.8899H27.8209V29.9459H27.8349C27.8489 29.9599 27.8489 29.9879 27.8629 30.0159H27.8769V30.0859H27.8909V30.1419H27.9189V30.1979H27.9329C27.9329 30.2399 27.9469 30.2959 27.9469 30.3379H27.9609V30.4499C28.0169 30.6039 28.0309 30.8279 28.0729 30.9819V31.1079H28.0869V31.2619H28.1149V31.3319H28.1289V31.5559H28.1429C28.1569 31.5979 28.1289 31.6119 28.1289 31.6119V31.8499Z" fill="white"/>
<path d="M37.5357 28.2519H37.5217C37.5217 28.2239 37.5217 28.1959 37.5217 28.1819H37.5357C37.5357 28.1679 37.5357 28.1539 37.5357 28.1399C37.5497 28.1399 37.5497 28.1399 37.5497 28.1399L37.5357 27.9859H37.5217C37.5217 27.9299 37.5217 27.8599 37.5217 27.7899C37.4937 27.6499 37.4377 27.5239 37.4097 27.3699C37.4097 27.3699 37.3957 27.3699 37.3817 27.3699C37.3817 27.3139 37.3817 27.2579 37.3677 27.2159C37.3537 27.2159 37.3397 27.2019 37.3257 27.2019C37.3117 27.1599 37.3537 27.1459 37.3537 27.1319C37.3397 27.1319 37.3257 27.1179 37.3117 27.1179C37.3117 27.1039 37.3117 27.0899 37.3117 27.0759C37.3117 27.0759 37.3117 27.0759 37.2977 27.0759C37.2977 27.0479 37.2837 27.0059 37.2837 26.9639H37.2697C37.2697 26.9499 37.2697 26.9219 37.2697 26.9079H37.2557C37.2557 26.8939 37.2557 26.8799 37.2557 26.8659C37.2417 26.8519 37.2277 26.8519 37.2137 26.8379C37.2277 26.8099 37.2277 26.7819 37.2417 26.7539C37.2277 26.7539 37.2137 26.7399 37.1997 26.7399C37.1997 26.7119 37.1857 26.6979 37.1857 26.6699C37.1717 26.6699 37.1577 26.6559 37.1297 26.6559C37.1437 26.6139 37.1437 26.5859 37.1437 26.5439C37.1297 26.5439 37.1157 26.5439 37.1017 26.5299C37.1017 26.5159 37.1017 26.5019 37.1017 26.4879C37.0877 26.4739 37.0877 26.4739 37.0737 26.4599C37.0597 26.4319 37.0597 26.3899 37.0597 26.3619C37.0457 26.3479 37.0317 26.3479 37.0177 26.3479C36.9897 26.2919 36.9757 26.2499 36.9617 26.1939C36.9057 26.1799 36.9197 26.1659 36.8917 26.1379C36.8777 26.1379 36.8777 26.1379 36.8777 26.1379C36.8637 26.1239 36.8637 26.0959 36.8497 26.0819C36.8357 26.0819 36.8217 26.0679 36.8077 26.0679C36.8077 26.0539 36.8077 26.0399 36.8077 26.0259C36.7937 26.0259 36.7937 26.0259 36.7937 26.0259C36.7657 26.0119 36.7797 26.0119 36.7377 25.9979C36.7237 25.9419 36.7097 25.9559 36.6817 25.8999C36.6817 25.8859 36.6677 25.8859 36.6537 25.8859C36.6537 25.8859 36.6537 25.8719 36.6537 25.8579C36.6397 25.8439 36.6257 25.8299 36.5977 25.8299C36.5977 25.8159 36.5977 25.8159 36.5977 25.8019C36.5977 25.8019 36.5837 25.8019 36.5697 25.8019C36.5557 25.7879 36.5417 25.7739 36.5417 25.7599C36.5277 25.7599 36.5137 25.7599 36.4997 25.7599C36.4857 25.7319 36.4717 25.7039 36.4577 25.6899C36.4297 25.6899 36.4157 25.6899 36.4017 25.6899C36.4017 25.6759 36.4017 25.6759 36.4017 25.6619C36.3877 25.6619 36.3737 25.6619 36.3737 25.6619V25.6479C36.3597 25.6479 36.3457 25.6479 36.3317 25.6479C36.3317 25.6339 36.3177 25.6199 36.3177 25.6199C36.2897 25.6059 36.2477 25.6059 36.2197 25.5919V25.5779C36.2057 25.5779 36.1917 25.5779 36.1777 25.5779C36.1777 25.5639 36.1777 25.5639 36.1777 25.5639C36.1077 25.5359 36.0237 25.5219 35.9397 25.5079V25.4939C35.9257 25.4799 35.9117 25.4799 35.8977 25.4799C35.8977 25.4799 35.8977 25.4799 35.8977 25.4659C35.8417 25.4659 35.7857 25.4659 35.7437 25.4659C35.5757 25.4099 35.2537 25.4379 35.0577 25.4379C34.6237 25.4239 34.1897 25.4239 33.7557 25.4099C33.7557 25.4239 33.7557 25.4239 33.7557 25.4379C33.7137 25.4379 33.6437 25.3959 33.5737 25.4099C33.5737 25.4239 33.5737 25.4239 33.5737 25.4239C33.5037 25.4239 33.4337 25.4239 33.3637 25.4239C33.3217 25.4379 33.0417 25.4379 32.9297 25.4379C32.9157 25.5499 32.9017 25.8299 32.9437 25.9419C32.9437 26.0119 32.9297 26.0819 32.9297 26.1379C32.9437 26.2919 32.9437 26.4459 32.9437 26.5859H32.9577C32.9577 26.6559 32.9577 26.7399 32.9577 26.8099C32.9577 26.9779 32.9577 27.1459 32.9717 27.2999C32.9717 27.2999 32.9717 27.2999 32.9857 27.2999C32.9857 27.7199 32.9857 28.1399 32.9997 28.5599C33.0137 28.6439 33.0277 28.7839 33.0277 28.8959C33.0277 28.9519 33.0277 29.0079 33.0277 29.0639C33.0277 29.0639 33.0277 29.0639 33.0417 29.0639C33.0557 29.1479 32.9997 29.3019 33.0277 29.4139C33.0417 29.4139 33.0417 29.4139 33.0557 29.4139C33.0557 29.5119 33.0557 29.5959 33.0557 29.6939V29.8759C33.0697 29.8759 33.0697 29.8759 33.0697 29.8759C33.0697 29.9459 33.0697 30.0159 33.0697 30.0859C33.0837 30.0859 33.0837 30.0859 33.0837 30.0859C33.0977 30.1839 33.0977 30.2819 33.0977 30.3799C33.0977 30.4359 33.0977 30.4919 33.0977 30.5479H33.1117C33.1117 30.6039 33.1117 30.6599 33.1117 30.7019H33.1257C33.1397 30.7439 33.1397 30.7719 33.1397 30.7999C33.1817 30.8139 33.2237 30.8419 33.2657 30.8419C33.3077 30.8419 33.3637 30.8419 33.4197 30.8279C33.5597 30.8279 33.9237 30.8699 34.0357 30.8419C34.1197 30.8419 34.1897 30.8419 34.2597 30.8419C34.4557 30.8139 34.7077 30.8279 34.8757 30.7859C34.9457 30.7859 35.0017 30.7859 35.0717 30.7859V30.7719C35.1277 30.7719 35.1977 30.7719 35.2537 30.7719V30.7579C35.2817 30.7579 35.2957 30.7579 35.3237 30.7579C35.3237 30.7439 35.3237 30.7439 35.3237 30.7439C35.3797 30.7439 35.4497 30.7439 35.5057 30.7439C35.5057 30.7299 35.5057 30.7299 35.5057 30.7299C35.5477 30.7299 35.5897 30.7299 35.6317 30.7299C35.6317 30.7159 35.6317 30.7159 35.6317 30.7159C35.7437 30.7019 35.8697 30.7019 35.9957 30.7019C35.9957 30.6879 35.9957 30.6879 35.9957 30.6879C35.9957 30.6879 36.0097 30.6879 36.0237 30.6879C36.0237 30.6739 36.0237 30.6739 36.0237 30.6599C36.0517 30.6599 36.0937 30.6599 36.1217 30.6459C36.1357 30.6319 36.1357 30.6319 36.1497 30.6179C36.1497 30.6179 36.1637 30.6179 36.1777 30.6179C36.1777 30.6039 36.1777 30.6039 36.1777 30.6039C36.1917 30.6039 36.2057 30.6039 36.2197 30.6039L36.2477 30.5619C36.2617 30.5619 36.2757 30.5619 36.2757 30.5619C36.2757 30.5619 36.2757 30.5619 36.2757 30.5479C36.3037 30.5479 36.3177 30.5339 36.3317 30.5339C36.3457 30.5199 36.3457 30.5059 36.3457 30.5059C36.3737 30.5059 36.3877 30.5059 36.4017 30.5059C36.4017 30.4919 36.4017 30.4919 36.4017 30.4779C36.4297 30.4779 36.4437 30.4779 36.4717 30.4639C36.4857 30.4499 36.4997 30.4359 36.5137 30.4219C36.5277 30.4079 36.5557 30.4079 36.5697 30.4079C36.5837 30.3939 36.5837 30.3799 36.5977 30.3659C36.6537 30.3239 36.7377 30.3099 36.7657 30.2119C36.7797 30.2119 36.7937 30.2119 36.8077 30.2119C36.8077 30.2119 36.8077 30.1979 36.8077 30.1839C36.8077 30.1839 36.8217 30.1839 36.8357 30.1839C36.8497 30.0999 36.8777 30.1279 36.9057 30.0859C36.9057 30.0719 36.9197 30.0439 36.9197 30.0299C36.9337 30.0299 36.9477 30.0299 36.9617 30.0299C36.9757 29.9319 37.0597 29.9319 37.0877 29.8339C37.0877 29.8339 37.1017 29.8339 37.1157 29.8339C37.1157 29.8059 37.1157 29.7779 37.1157 29.7639C37.1297 29.7639 37.1437 29.7639 37.1717 29.7639C37.1717 29.6939 37.1857 29.6659 37.2277 29.6239C37.2277 29.6239 37.2417 29.6099 37.2557 29.6099C37.2557 29.5959 37.2557 29.5819 37.2557 29.5819C37.2837 29.5259 37.2977 29.4979 37.3117 29.4279C37.3257 29.4279 37.3397 29.4279 37.3397 29.4279C37.3537 29.3999 37.3537 29.3719 37.3677 29.3579C37.3677 29.3579 37.3677 29.3579 37.3817 29.3579C37.3817 29.3159 37.3957 29.2739 37.3957 29.2319C37.4097 29.2319 37.4097 29.2319 37.4097 29.2319C37.4097 29.2039 37.4237 29.1759 37.4237 29.1479C37.4237 29.1479 37.4377 29.1339 37.4517 29.1339C37.4517 29.1059 37.4517 29.0639 37.4517 29.0359C37.4657 29.0219 37.4937 29.0079 37.5077 28.9939C37.5077 28.9799 37.5077 28.9659 37.5077 28.9519H37.5217C37.5217 28.9099 37.5217 28.8819 37.5217 28.8399C37.5637 28.6999 37.5497 28.5739 37.5497 28.4059C37.5357 28.4059 37.5217 28.4059 37.5217 28.4059C37.5217 28.3499 37.5357 28.2659 37.5357 28.2519ZM38.5157 28.6719C38.5157 28.7559 38.5017 28.8399 38.5017 28.9099H38.5157C38.5157 28.9239 38.5157 28.9239 38.5157 28.9379H38.5017C38.5017 28.9799 38.5017 29.0359 38.5017 29.0779C38.4877 29.0779 38.4877 29.0779 38.4737 29.0779C38.4737 29.1339 38.4737 29.1759 38.4737 29.2179H38.4597C38.4597 29.2319 38.4597 29.2599 38.4597 29.2739C38.4457 29.2739 38.4457 29.2739 38.4457 29.2739C38.4457 29.2879 38.4457 29.3019 38.4457 29.3299C38.4317 29.3299 38.4317 29.3159 38.4177 29.3159C38.4177 29.3439 38.4177 29.3719 38.4177 29.3859H38.4037C38.4037 29.4419 38.3897 29.4839 38.3897 29.5259C38.3757 29.5259 38.3757 29.5259 38.3617 29.5259C38.3617 29.5399 38.3617 29.5679 38.3617 29.5819C38.3617 29.5819 38.3617 29.5819 38.3477 29.5819C38.3477 29.5959 38.3477 29.6099 38.3477 29.6239H38.3337C38.3337 29.6519 38.3337 29.6659 38.3337 29.6799C38.3197 29.6799 38.3197 29.6799 38.3197 29.6799C38.3057 29.7079 38.3057 29.7499 38.2917 29.7779H38.2777C38.2777 29.7919 38.2777 29.8059 38.2777 29.8199H38.2637C38.2637 29.8339 38.2637 29.8479 38.2637 29.8619C38.2497 29.8619 38.2497 29.8619 38.2357 29.8619C38.2357 29.8899 38.2357 29.9179 38.2217 29.9319H38.2077C38.1937 29.9599 38.1937 29.9739 38.1937 30.0019C38.1797 30.0019 38.1657 30.0159 38.1517 30.0159C38.1517 30.0299 38.1517 30.0439 38.1517 30.0579H38.1377C38.1377 30.0579 38.1377 30.0719 38.1377 30.0859L38.0957 30.1139C38.0957 30.1279 38.0957 30.1419 38.0957 30.1559C38.0957 30.1559 38.0957 30.1559 38.0817 30.1559C38.0817 30.1699 38.0677 30.1839 38.0677 30.1979C38.0537 30.2119 38.0397 30.2119 38.0257 30.2259C38.0257 30.2259 38.0257 30.2399 38.0257 30.2539C38.0117 30.2679 38.0117 30.2679 37.9977 30.2679C37.9837 30.2959 37.9837 30.3099 37.9837 30.3239C37.9557 30.3379 37.9417 30.3519 37.9277 30.3519C37.9277 30.3659 37.9277 30.3799 37.9277 30.3939C37.8997 30.4079 37.8717 30.4359 37.8437 30.4639C37.8437 30.4639 37.8437 30.4779 37.8437 30.4919C37.8157 30.5059 37.7877 30.5199 37.7737 30.5479C37.7737 30.5479 37.7737 30.5619 37.7737 30.5759C37.7317 30.6039 37.7037 30.6319 37.6617 30.6599C37.6617 30.6739 37.6617 30.6879 37.6617 30.6879C37.6337 30.7159 37.5917 30.7439 37.5637 30.7719C37.5077 30.8279 37.4517 30.8839 37.4097 30.9399C37.3957 30.9399 37.3817 30.9399 37.3677 30.9399C37.3397 30.9679 37.3257 30.9959 37.2977 31.0239C37.2697 31.0379 37.2557 31.0379 37.2277 31.0379C37.2137 31.0659 37.2137 31.0799 37.1997 31.0939C37.1717 31.0939 37.1437 31.1079 37.1157 31.1079C37.1017 31.1219 37.1017 31.1359 37.0877 31.1499C37.0597 31.1499 37.0177 31.1639 36.9897 31.1779V31.1919C36.9757 31.1919 36.9617 31.1919 36.9477 31.1919C36.9477 31.2059 36.9477 31.2059 36.9477 31.2059C36.9477 31.2059 36.9337 31.2059 36.9197 31.2059C36.9197 31.2199 36.9197 31.2199 36.9197 31.2339C36.9057 31.2199 36.8917 31.2199 36.8917 31.2199C36.8917 31.2339 36.8917 31.2339 36.8917 31.2479C36.8777 31.2479 36.8637 31.2479 36.8497 31.2479C36.8497 31.2479 36.8497 31.2479 36.8497 31.2619C36.8357 31.2619 36.8217 31.2619 36.7937 31.2619C36.7937 31.2759 36.7937 31.2759 36.7797 31.2899C36.7657 31.2899 36.7657 31.2899 36.7517 31.2899C36.7517 31.3039 36.7517 31.3039 36.7517 31.3039C36.6957 31.3179 36.6397 31.3319 36.5697 31.3459C36.5697 31.3459 36.5697 31.3459 36.5697 31.3599C36.5697 31.3599 36.5557 31.3599 36.5417 31.3599V31.3739C36.4857 31.3879 36.4297 31.4019 36.3737 31.4019C36.3737 31.4159 36.3737 31.4159 36.3737 31.4159C36.3457 31.4159 36.3317 31.4159 36.3177 31.4159C36.3177 31.4299 36.3177 31.4299 36.3177 31.4439C36.3037 31.4439 36.2897 31.4439 36.2617 31.4439C36.2617 31.4439 36.2617 31.4439 36.2617 31.4579C36.2337 31.4579 36.2057 31.4579 36.1777 31.4579C36.1777 31.4579 36.1777 31.4579 36.1777 31.4719C36.1497 31.4719 36.1217 31.4719 36.0937 31.4719V31.4859C36.0797 31.4859 36.0657 31.4859 36.0377 31.4859V31.4999C36.0237 31.4999 35.9957 31.4999 35.9817 31.4999V31.5139C35.9537 31.5139 35.9117 31.5139 35.8837 31.5139C35.8837 31.5279 35.8837 31.5279 35.8837 31.5279C35.8697 31.5279 35.8417 31.5279 35.8277 31.5279C35.7437 31.5559 35.6317 31.5839 35.5477 31.6119C35.5197 31.6119 35.5057 31.6119 35.4777 31.6119V31.6259C35.4497 31.6259 35.4077 31.6259 35.3797 31.6259V31.6399C35.3517 31.6399 35.3377 31.6399 35.3237 31.6399C35.3237 31.6539 35.3237 31.6539 35.3237 31.6539C35.2957 31.6539 35.2537 31.6539 35.2257 31.6539C35.2257 31.6679 35.2257 31.6679 35.2257 31.6819C35.1837 31.6819 35.1557 31.6679 35.1137 31.6679C35.1137 31.6819 35.1137 31.6819 35.1137 31.6959C35.0857 31.6959 35.0437 31.6959 35.0157 31.6959C35.0157 31.6959 35.0157 31.6959 35.0157 31.7099C34.9877 31.7099 34.9597 31.7099 34.9317 31.7099C34.9317 31.7099 34.9317 31.7099 34.9317 31.7239C34.7917 31.7239 34.6657 31.7239 34.5397 31.7379C34.5397 31.7379 34.5397 31.7379 34.5397 31.7519C34.4277 31.7519 34.3297 31.7519 34.2317 31.7379C34.2317 31.7519 34.2317 31.7519 34.2317 31.7659C33.9237 31.7519 33.6157 31.7519 33.3077 31.7379C33.2797 31.8079 33.2797 31.8499 33.2237 31.8639C33.1957 31.9479 33.1537 32.0319 33.1257 32.1159C33.1257 32.1579 33.1257 32.1999 33.1257 32.2419C33.0837 32.3819 33.0697 32.5779 33.0697 32.7459C33.0697 32.8579 33.0697 32.9559 33.0557 33.0539C33.0557 33.0539 33.0557 33.0539 33.0417 33.0539C33.0277 33.1239 33.0557 33.2219 33.0557 33.2639C33.0417 33.3059 33.0137 33.4739 33.0417 33.5439C33.0417 33.5579 33.0417 33.5579 33.0557 33.5579C33.0557 33.6419 33.0557 33.7399 33.0417 33.8239C33.0417 33.9919 33.0557 34.1459 33.0697 34.2859C33.0977 34.2859 33.1117 34.2999 33.1257 34.2999C33.1257 34.3139 33.1257 34.3279 33.1257 34.3419C33.1397 34.3419 33.1537 34.3559 33.1537 34.3559V34.3699C33.1817 34.3839 33.2097 34.3839 33.2377 34.3979C33.2377 34.3979 33.2377 34.3979 33.2377 34.4119C33.2517 34.4119 33.2657 34.4119 33.2797 34.4119V34.4259C33.2937 34.4259 33.3077 34.4259 33.3217 34.4259C33.3217 34.4399 33.3217 34.4399 33.3217 34.4399C33.3497 34.4399 33.3777 34.4399 33.4197 34.4399C33.4197 34.4539 33.4057 34.4539 33.4057 34.4679C33.4197 34.4679 33.4337 34.4679 33.4477 34.4679C33.4477 34.4679 33.4477 34.4679 33.4477 34.4819C33.5317 34.4959 33.6017 34.5099 33.6857 34.5239C33.8677 34.5799 34.1057 34.6079 34.3017 34.6639C34.3577 34.6779 34.4277 34.6779 34.4837 34.6919C34.4837 34.6919 34.4837 34.6919 34.4837 34.7059C34.5117 34.7059 34.5537 34.7059 34.5817 34.7059C34.6937 34.7339 34.8477 34.7479 34.9457 34.7759C34.9877 34.7759 35.0297 34.7759 35.0577 34.7759C35.0577 34.7899 35.0577 34.7899 35.0577 34.8039C35.0717 34.8039 35.0717 34.8039 35.0857 34.8039C35.0857 34.8319 35.0857 34.8599 35.0857 34.8879C35.1137 34.9299 35.0717 35.0279 35.0717 35.0979C35.0717 35.3219 35.0857 35.5879 35.0437 35.7839C35.0297 35.7839 35.0157 35.7839 35.0017 35.7979C34.9317 35.8539 34.7637 35.7979 34.6517 35.8259C34.5117 35.8539 34.2737 35.8399 34.1197 35.8679C34.0077 35.8679 33.9097 35.8539 33.7977 35.8539C33.7417 35.8679 33.5177 35.8959 33.4337 35.8679V35.8539C33.3777 35.8539 33.3077 35.8539 33.2517 35.8539C33.2517 35.8539 33.2517 35.8539 33.2517 35.8679C33.2237 35.8679 33.2237 35.8539 33.2237 35.8539C33.2097 35.8539 33.1957 35.8539 33.1817 35.8679C33.1257 35.8539 33.0837 35.8539 33.0277 35.8399C32.8597 35.8399 32.7057 35.8679 32.5657 35.8119C32.3977 35.8119 32.2997 35.8119 32.1317 35.8119C31.9917 35.7699 31.9497 35.7979 31.7817 35.7839C31.7677 35.7839 31.7537 35.7839 31.7397 35.7839V35.7699C31.6557 35.7699 31.5717 35.7699 31.4737 35.7699C31.4037 35.7559 31.3337 35.7559 31.2637 35.7559V35.7419C31.2357 35.7419 31.2217 35.7419 31.2077 35.7419C31.0817 35.7419 30.9557 35.7419 30.8297 35.7419C30.8297 35.7279 30.8297 35.7279 30.8297 35.7139C30.7037 35.7139 30.5777 35.6999 30.4517 35.6999C30.4237 35.6999 30.3957 35.6999 30.3677 35.7139C30.3677 35.6999 30.3677 35.6999 30.3677 35.6859C30.3537 35.6859 30.3257 35.6859 30.2977 35.6859C30.1297 35.6859 29.9197 35.7139 29.8777 35.5879H29.8637C29.8637 35.5599 29.8637 35.5459 29.8637 35.5319C29.8497 35.5319 29.8357 35.5319 29.8217 35.5319C29.8217 35.4059 29.8217 35.2939 29.8217 35.1679C29.8217 35.1679 29.8217 35.1679 29.8357 35.1679C29.8357 35.1259 29.8357 35.0979 29.8357 35.0559H29.8497C29.8497 35.0279 29.8357 35.0559 29.8357 35.0279C29.8217 34.9719 29.8637 34.8739 29.8917 34.8459C29.9337 34.8039 29.9897 34.8319 30.0597 34.8179C30.0597 34.8039 30.0597 34.8039 30.0597 34.7899C30.0737 34.7899 30.1017 34.7899 30.1157 34.7899C30.1157 34.7899 30.1157 34.7899 30.1157 34.7759C30.1297 34.7759 30.1577 34.7759 30.1857 34.7759V34.7619C30.2137 34.7619 30.2417 34.7619 30.2697 34.7619V34.7479C30.2837 34.7479 30.3117 34.7479 30.3397 34.7479V34.7339C30.3537 34.7339 30.3817 34.7339 30.4097 34.7339C30.4097 34.7199 30.4097 34.7199 30.4097 34.7199C30.4517 34.7059 30.5077 34.7059 30.5637 34.7059C30.5637 34.6919 30.5637 34.6919 30.5637 34.6779C30.5637 34.6779 30.5777 34.6779 30.5917 34.6779C30.5917 34.6779 30.5917 34.6779 30.5917 34.6639C30.6337 34.6639 30.6617 34.6639 30.6897 34.6639C30.6897 34.6639 30.6897 34.6639 30.6897 34.6499C30.7177 34.6499 30.7317 34.6499 30.7457 34.6499V34.6359C30.8157 34.6219 30.8997 34.6219 30.9697 34.6079C30.9697 34.5939 30.9697 34.5939 30.9697 34.5939C30.9837 34.5939 30.9977 34.5939 31.0117 34.5939C31.0117 34.5799 31.0117 34.5799 31.0117 34.5659C31.0397 34.5659 31.0677 34.5659 31.0957 34.5799C31.0957 34.5659 31.0957 34.5659 31.0957 34.5519C31.0957 34.5519 31.1097 34.5519 31.1237 34.5519C31.1237 34.5519 31.1237 34.5519 31.1237 34.5379C31.1657 34.5379 31.1937 34.5379 31.2217 34.5379V34.5239C31.2777 34.5099 31.3337 34.5099 31.3757 34.4959C31.3757 34.4819 31.3897 34.4819 31.3897 34.4819C31.3897 34.4819 31.4037 34.4819 31.4177 34.4819C31.4177 34.4679 31.4177 34.4679 31.4177 34.4539C31.4457 34.4539 31.4597 34.4539 31.4877 34.4539C31.4877 34.4539 31.4877 34.4539 31.4877 34.4399C31.5157 34.4259 31.5437 34.3839 31.5577 34.3419C31.5717 34.3419 31.5857 34.3419 31.5857 34.3419C31.5857 34.2859 31.5857 34.2439 31.5997 34.1879C31.5997 34.1879 31.6137 34.1739 31.6277 34.1739C31.6277 34.1459 31.6277 34.1179 31.6277 34.0899C31.6137 34.0759 31.5997 34.0619 31.5717 34.0479C31.5717 34.0339 31.5717 34.0339 31.5857 34.0199C31.5717 34.0199 31.5717 34.0199 31.5577 34.0199C31.5717 33.9779 31.5857 33.9499 31.5997 33.9219C31.5857 33.9079 31.5717 33.9079 31.5577 33.8939C31.5717 33.8379 31.5717 33.7819 31.5857 33.7259C31.5717 33.7259 31.5577 33.7259 31.5437 33.7259C31.5437 33.6979 31.5577 33.6559 31.5577 33.6279C31.5717 33.6279 31.5857 33.6279 31.5997 33.6279C31.5997 33.6139 31.5997 33.6139 31.5997 33.6139C31.5017 33.5439 31.6137 33.4319 31.5717 33.2779H31.5577C31.5437 33.2359 31.5717 33.2359 31.5717 33.2219C31.5577 33.2079 31.5577 33.2079 31.5437 33.1939C31.5437 33.1519 31.5577 33.0959 31.5577 33.0399H31.5437C31.5437 33.0119 31.5437 32.9699 31.5437 32.9419C31.5577 32.9419 31.5577 32.9419 31.5577 32.9419C31.5717 32.9139 31.5437 32.9139 31.5437 32.9139C31.5437 32.8579 31.5577 32.8299 31.5717 32.8019C31.5577 32.8019 31.5437 32.7879 31.5297 32.7879C31.5157 32.7459 31.5437 32.7179 31.5437 32.7039C31.5437 32.6339 31.5437 32.5779 31.5437 32.5079C31.5577 32.5079 31.5717 32.5079 31.5857 32.5079C31.5857 32.5079 31.5857 32.5079 31.5857 32.4939C31.5717 32.4799 31.5857 32.4939 31.5717 32.4659C31.5577 32.4659 31.5437 32.4659 31.5437 32.4659C31.5437 32.4239 31.5437 32.3679 31.5577 32.3259H31.5437C31.5437 32.3119 31.5437 32.2979 31.5437 32.2979C31.5297 32.2979 31.5297 32.2979 31.5297 32.2979C31.5297 32.2699 31.5297 32.2419 31.5297 32.2279C31.5297 32.2279 31.5297 32.2279 31.5437 32.2279C31.5437 32.1999 31.5297 32.2279 31.5297 32.1999C31.5297 32.1439 31.5297 32.0879 31.5297 32.0179H31.5437V32.0039H31.5297C31.5297 31.9199 31.5297 31.8359 31.5297 31.7519C31.5297 31.7519 31.5577 31.7239 31.5577 31.6959C31.5437 31.6959 31.5437 31.6959 31.5297 31.6959C31.5157 31.6539 31.5157 31.6259 31.5157 31.5699C31.5297 31.5699 31.5437 31.5699 31.5577 31.5699C31.5437 31.5559 31.5437 31.5279 31.5437 31.4999C31.5297 31.4999 31.5157 31.4999 31.5017 31.4859C31.4737 31.4159 31.5297 31.2759 31.5437 31.2339C31.5297 31.2339 31.5157 31.2339 31.5017 31.2339C31.5157 31.1639 31.5157 31.1079 31.5157 31.0379C31.5157 31.0379 31.5017 31.0519 31.4877 31.0099C31.5017 30.9679 31.5017 30.9259 31.5157 30.8699C31.5017 30.8699 31.4877 30.8559 31.4737 30.8559C31.4597 30.7999 31.5017 30.7439 31.5017 30.7159C31.4877 30.7159 31.4877 30.7159 31.4877 30.7159C31.4877 30.7019 31.4877 30.6879 31.4877 30.6739C31.4737 30.6739 31.4737 30.6739 31.4597 30.6739C31.4457 30.6039 31.5017 30.5899 31.5017 30.5619H31.4877C31.4737 30.4079 31.4737 30.2539 31.4597 30.0999C31.4737 30.0999 31.4877 30.0999 31.4877 30.0999C31.4877 30.0859 31.4877 30.0719 31.4737 30.0579C31.4597 30.0439 31.4597 30.0439 31.4457 30.0299C31.4457 30.0019 31.4597 29.9599 31.4597 29.9179C31.4737 29.9179 31.4737 29.9179 31.4737 29.9179C31.4877 29.8899 31.4597 29.8899 31.4597 29.8759C31.4597 29.7919 31.4597 29.6939 31.4737 29.6099C31.4597 29.6099 31.4597 29.6099 31.4457 29.6099C31.4457 29.5679 31.4457 29.5399 31.4317 29.5119L31.4597 29.4839C31.4457 29.4839 31.4457 29.4839 31.4317 29.4839C31.4317 29.4839 31.4317 29.4699 31.4317 29.4559C31.4317 29.4559 31.4317 29.4559 31.4177 29.4559C31.4317 29.3439 31.4457 29.2319 31.4597 29.1339H31.4457C31.4457 29.1059 31.4457 29.0779 31.4457 29.0499C31.4317 29.0499 31.4317 29.0499 31.4317 29.0499C31.4177 29.0079 31.4457 28.9939 31.4457 28.9799H31.4317C31.4177 28.9519 31.4177 28.9239 31.4177 28.8959C31.4177 28.8819 31.4317 28.8819 31.4457 28.8679C31.4597 28.8399 31.4317 28.8399 31.4317 28.8399C31.4177 28.7979 31.4457 28.7979 31.4457 28.7699C31.4457 28.7279 31.3617 28.6719 31.4037 28.5879H31.4177C31.4317 28.5599 31.4457 28.5319 31.4597 28.5179C31.4457 28.5179 31.4457 28.5179 31.4317 28.5179C31.4317 28.5039 31.4317 28.4899 31.4317 28.4759C31.4317 28.4759 31.4317 28.4759 31.4177 28.4759C31.4317 28.4199 31.4317 28.3499 31.4457 28.2939C31.4317 28.2939 31.4317 28.2939 31.4177 28.2939C31.4177 28.2239 31.4037 28.1679 31.3897 28.0979C31.4037 28.0979 31.4177 28.0979 31.4317 28.0839C31.4177 28.0279 31.4177 27.9719 31.4177 27.9159C31.4177 27.9159 31.4317 27.9159 31.4317 27.8879C31.4177 27.8879 31.4177 27.8879 31.4177 27.8879C31.4177 27.8039 31.4177 27.7339 31.4177 27.6639H31.4037C31.3897 27.5939 31.3897 27.5239 31.3897 27.4539C31.4037 27.4539 31.4037 27.4539 31.4177 27.4539C31.4177 27.4399 31.4177 27.4259 31.4177 27.4259C31.4037 27.4119 31.4037 27.4119 31.3897 27.3979C31.3897 27.3699 31.4037 27.3419 31.4037 27.2999C31.3897 27.2999 31.3897 27.2859 31.3757 27.2859C31.3757 27.2299 31.3897 27.1739 31.3897 27.1179C31.3897 27.0479 31.3897 26.9919 31.3897 26.9219C31.3897 26.9219 31.4177 26.9079 31.4177 26.8799C31.4037 26.8799 31.4037 26.8799 31.3897 26.8799C31.4037 26.8239 31.4037 26.7539 31.4037 26.6979C31.3897 26.6979 31.3757 26.6979 31.3617 26.6979C31.3757 26.6419 31.3757 26.5719 31.3897 26.5159C31.3757 26.5159 31.3757 26.5159 31.3617 26.5159C31.3617 26.4739 31.3897 26.4459 31.3897 26.4319C31.3757 26.4179 31.3617 26.4179 31.3477 26.4179C31.3617 26.3759 31.3617 26.3479 31.3757 26.3059C31.3617 26.3059 31.3617 26.3059 31.3477 26.3059C31.3617 26.2779 31.3617 26.2359 31.3617 26.2079C31.3617 26.2079 31.3617 26.2079 31.3757 26.2079V26.1939C31.3617 26.1939 31.3617 26.1939 31.3617 26.1939C31.3617 26.1659 31.3617 26.1379 31.3617 26.1099C31.3477 26.1099 31.3477 26.1099 31.3477 26.1099C31.3477 26.0259 31.3477 25.9279 31.3477 25.8439C31.3337 25.8439 31.3337 25.8439 31.3337 25.8439C31.3337 25.8159 31.3337 25.7739 31.3337 25.7459H31.3477C31.3477 25.7179 31.3477 25.6759 31.3477 25.6479H31.3337C31.3337 25.5639 31.3477 25.4939 31.3477 25.4239C31.3477 25.4239 31.3337 25.4239 31.3197 25.4239C31.3197 25.3959 31.3197 25.3819 31.3197 25.3539H31.3337C31.3337 25.3399 31.3337 25.3399 31.3337 25.3399H31.3197C31.3197 25.3119 31.3197 25.2839 31.3197 25.2559C31.3337 25.2559 31.3337 25.2559 31.3337 25.2559C31.3337 25.2419 31.3337 25.2419 31.3337 25.2279C31.3337 25.2279 31.3337 25.2279 31.3197 25.2279C31.3197 25.1999 31.3197 25.1579 31.3197 25.1299C31.3197 25.1019 31.2637 25.0599 31.2917 24.9899H31.3057C31.3057 24.9759 31.3057 24.9759 31.3057 24.9619C31.3197 24.9619 31.3197 24.9619 31.3337 24.9619C31.3337 24.9339 31.3337 24.9059 31.3337 24.8779C31.3337 24.8779 31.3337 24.8779 31.3477 24.8779C31.3617 24.8359 31.3757 24.8079 31.3757 24.7659C31.4737 24.7379 31.6137 24.7379 31.7117 24.7099C31.7257 24.7099 31.7537 24.7099 31.7817 24.7099V24.6959C31.7957 24.6959 31.8097 24.6959 31.8237 24.6959V24.6819C31.8517 24.6679 31.8797 24.6679 31.8937 24.6679C31.8937 24.6539 31.8937 24.6539 31.8937 24.6399C31.9357 24.6399 31.9777 24.6399 32.0197 24.6259V24.6119C32.0337 24.6119 32.0337 24.6119 32.0477 24.6119V24.5979C32.0617 24.5979 32.0897 24.5979 32.1037 24.5979V24.5839C32.1457 24.5839 32.1457 24.5839 32.1877 24.5839V24.5699C32.2857 24.5699 32.2717 24.5699 32.3837 24.5699C32.3837 24.5559 32.3837 24.5559 32.3837 24.5559C32.6357 24.5559 32.7337 24.5559 32.9857 24.5699C32.9857 24.5559 32.9857 24.5559 32.9857 24.5419C33.0417 24.5419 33.0837 24.5419 33.1397 24.5559C33.1397 24.5419 33.1397 24.5419 33.1397 24.5279C33.2097 24.5279 33.2657 24.5279 33.3357 24.5419C33.3357 24.5279 33.3357 24.5279 33.3357 24.5139C33.4057 24.5139 33.4757 24.5279 33.5457 24.5279C33.5457 24.5139 33.5457 24.5139 33.5457 24.4999C33.6297 24.5139 33.7137 24.5139 33.7977 24.5139C33.7977 24.4999 33.7977 24.4999 33.7977 24.4859C33.8677 24.4999 33.9377 24.4999 34.0077 24.4999C34.0077 24.4859 34.0077 24.4859 34.0077 24.4859C34.0357 24.4859 34.0637 24.4859 34.0777 24.4859C34.1477 24.4859 34.2037 24.4859 34.2737 24.4859C34.3997 24.4579 34.8897 24.4579 35.0157 24.4999C35.1977 24.4999 35.3657 24.5139 35.5337 24.5279C35.5337 24.5279 35.5337 24.5279 35.5337 24.5419C35.5757 24.5419 35.6177 24.5419 35.6737 24.5419V24.5559C35.7017 24.5559 35.7297 24.5559 35.7577 24.5559C35.7577 24.5699 35.7577 24.5699 35.7577 24.5839C35.7857 24.5839 35.8137 24.5839 35.8417 24.5839V24.5979C35.8697 24.5979 35.8977 24.5979 35.9257 24.5979V24.6119C35.9957 24.6259 36.0657 24.6399 36.1357 24.6539V24.6679C36.1497 24.6679 36.1777 24.6679 36.1917 24.6679C36.1917 24.6819 36.1917 24.6819 36.1917 24.6819C36.2197 24.6819 36.2337 24.6959 36.2477 24.6959C36.2477 24.6959 36.2477 24.6959 36.2477 24.7099C36.2897 24.7099 36.3317 24.7239 36.3737 24.7239C36.3737 24.7379 36.3737 24.7379 36.3737 24.7379C36.4157 24.7519 36.4577 24.7519 36.4997 24.7659V24.7799C36.5137 24.7799 36.5417 24.7799 36.5557 24.7799V24.7939C36.5697 24.7939 36.5697 24.7939 36.5837 24.7939C36.5837 24.8079 36.5837 24.8079 36.5837 24.8219C36.6257 24.8219 36.6677 24.8219 36.7097 24.8359V24.8499C36.7237 24.8499 36.7237 24.8499 36.7377 24.8499C36.7377 24.8639 36.7377 24.8639 36.7377 24.8639C36.7517 24.8639 36.7797 24.8639 36.7937 24.8639C36.7937 24.8779 36.7937 24.8779 36.7937 24.8919C36.8077 24.8919 36.8217 24.8919 36.8357 24.8919V24.9059C36.8637 24.9059 36.8777 24.9059 36.8917 24.9059V24.9199C36.9057 24.9199 36.9337 24.9199 36.9477 24.9199C36.9477 24.9339 36.9477 24.9339 36.9477 24.9339C36.9617 24.9479 36.9757 24.9479 36.9897 24.9479C36.9897 24.9479 36.9897 24.9479 36.9897 24.9619C37.0457 24.9759 37.1017 24.9899 37.1437 24.9899C37.1577 25.0039 37.1577 25.0179 37.1577 25.0319C37.1857 25.0319 37.1997 25.0319 37.2137 25.0319C37.2277 25.0459 37.2277 25.0599 37.2277 25.0599C37.2417 25.0599 37.2417 25.0599 37.2557 25.0599C37.2557 25.0739 37.2557 25.0879 37.2697 25.1019C37.2837 25.1019 37.2837 25.1019 37.2977 25.1019C37.3257 25.1299 37.3397 25.1579 37.3677 25.1859C37.3817 25.1859 37.3957 25.1859 37.3957 25.1859C37.4377 25.2279 37.4657 25.2699 37.5077 25.3119C37.5077 25.3119 37.5077 25.3119 37.5217 25.3119C37.5217 25.3259 37.5217 25.3259 37.5217 25.3399C37.5357 25.3399 37.5357 25.3399 37.5497 25.3399C37.5637 25.3679 37.5637 25.3819 37.5637 25.3959C37.5777 25.3959 37.5917 25.4099 37.6057 25.4099C37.6197 25.4379 37.6337 25.4659 37.6477 25.4799C37.6897 25.5079 37.7177 25.5359 37.7597 25.5639C37.7597 25.5779 37.7597 25.5919 37.7457 25.6059C37.7737 25.6199 37.8017 25.6339 37.8157 25.6619C37.8157 25.6619 37.8157 25.6759 37.8157 25.6899C37.8297 25.7039 37.8577 25.7179 37.8717 25.7319C37.8717 25.7319 37.8717 25.7459 37.8717 25.7599C37.8857 25.7739 37.8997 25.7879 37.9137 25.7879C37.9137 25.8019 37.9137 25.8159 37.9137 25.8299C37.9277 25.8299 37.9277 25.8299 37.9417 25.8299C37.9417 25.8439 37.9417 25.8579 37.9417 25.8579C37.9417 25.8719 37.9557 25.8719 37.9697 25.8859C37.9697 25.8999 37.9837 25.9279 37.9837 25.9559C37.9977 25.9559 38.0257 25.9699 38.0397 25.9839C38.0537 26.0539 38.0817 26.1239 38.0957 26.1939C38.1097 26.1939 38.1097 26.1939 38.1237 26.1939C38.1237 26.2079 38.1237 26.2079 38.1237 26.2219C38.1237 26.2219 38.1237 26.2219 38.1377 26.2219C38.1377 26.2499 38.1517 26.2779 38.1517 26.2919H38.1657C38.1657 26.3339 38.1797 26.3619 38.1797 26.4039C38.1937 26.4039 38.1937 26.4039 38.1937 26.4039C38.1937 26.4039 38.1937 26.4179 38.1937 26.4319C38.2077 26.4319 38.2077 26.4319 38.2217 26.4319C38.2217 26.4599 38.2217 26.5019 38.2357 26.5299H38.2497C38.2497 26.5579 38.2497 26.5719 38.2497 26.5859H38.2637C38.2637 26.5999 38.2637 26.6139 38.2637 26.6419H38.2777C38.2777 26.6559 38.2777 26.6699 38.2777 26.6839C38.2917 26.6839 38.2917 26.6839 38.2917 26.6839C38.2917 26.7119 38.2917 26.7399 38.2917 26.7819C38.3057 26.7819 38.3057 26.7819 38.3197 26.7819C38.3057 26.7959 38.3057 26.8239 38.3057 26.8379C38.3197 26.8379 38.3197 26.8379 38.3337 26.8379C38.3337 26.8659 38.3337 26.8939 38.3337 26.9079C38.3337 26.9079 38.3337 26.9079 38.3477 26.9079C38.3477 26.9499 38.3477 26.9779 38.3477 27.0199C38.3897 27.1739 38.4037 27.3839 38.4597 27.5519C38.4457 27.5799 38.4457 27.6219 38.4457 27.6639C38.4597 27.6639 38.4597 27.6639 38.4737 27.6639C38.4737 27.7059 38.4737 27.7339 38.4597 27.7759C38.4737 27.7759 38.4737 27.7759 38.4877 27.7759C38.4877 27.8179 38.4877 27.8599 38.4877 27.9019C38.4877 27.9019 38.4877 27.9019 38.5017 27.9019C38.5017 28.0419 38.4877 28.1679 38.4877 28.2939C38.5157 28.3919 38.4737 28.5599 38.5017 28.6719H38.5157Z" fill="white"/>
<path d="M24.1771 12.8279C24.1211 12.8279 24.0651 12.8279 24.0091 12.8559C23.9811 12.8839 23.9811 12.9119 23.9811 12.9399C23.9531 12.9399 23.9251 12.9399 23.9251 12.9679C23.8971 13.0239 23.8691 13.0799 23.8691 13.1359H23.8411V13.1919H23.8131C23.7851 13.2479 23.7571 13.3039 23.7571 13.3599H23.7291V13.4439H23.7011C23.6731 13.4719 23.6731 13.5279 23.6731 13.5559H23.6451C23.6171 13.6399 23.5891 13.7239 23.5891 13.8079H23.5611V13.8919H23.5331V13.9479H23.5051V14.0319H23.4771C23.4491 14.0879 23.4491 14.1719 23.4491 14.2279H23.4211C23.3931 14.2839 23.3931 14.3399 23.3931 14.3959H23.3651V14.4799H23.3371V14.5639H23.3091V14.6479H23.2811V14.7319H23.2531V14.8159H23.2251V14.8999H23.1971C23.1691 14.9839 23.1411 15.0679 23.1411 15.1519H23.1131V15.2079H23.0851V15.3199H23.0571C23.0291 15.3759 23.0291 15.4319 23.0291 15.4879H23.0011V15.5439H22.9731V15.6839H22.9171V15.7399H22.8891V15.8239H22.8611C22.8611 15.8799 22.8611 15.9359 22.8331 16.0199H22.8051V16.1039H22.7771V16.1879H22.7491V16.2719H22.7211V16.3559H22.6931C22.6931 16.4119 22.6931 16.4679 22.6651 16.5519H22.6371V16.6079H22.6091V16.7199H22.5811V16.8039H22.5531V16.8879H22.5251V16.9719H22.4971V17.0559H22.4691C22.4691 17.1399 22.4411 17.2519 22.4131 17.3359H22.3851V17.3919H22.3571C22.3571 17.4479 22.3571 17.5039 22.3291 17.5599H22.3011V17.6159H22.2731V17.6999H22.2451V17.8119H22.2171V17.8679H22.1891C22.1891 17.9239 22.1891 17.9799 22.1611 18.0359H22.1331V18.0919H22.1051V18.2039H22.0771V18.2599H22.0491V18.3719H22.0211V18.4279H21.9931C21.9931 18.4839 21.9931 18.5399 21.9651 18.5679H21.9371V18.6799H21.9091V18.7639H21.8811V18.8479H21.8531V18.9319H21.8251V19.0159H21.7971V19.0999H21.7691V19.2119H21.7411V19.2959H21.7131V19.3799H21.6851V19.5199H21.6571V19.5759H21.6291C21.6291 19.6319 21.6011 19.6879 21.6011 19.7439H21.5731V19.8279H21.5451V19.8839H21.5171C21.4891 19.9679 21.4891 20.0519 21.4611 20.1639H21.4331V20.2759H21.4051V20.3599H21.3771V20.4439H21.3491V20.5279H21.3211V20.6119H21.2931V20.7239H21.2651C21.2651 20.8079 21.2371 20.8919 21.2371 20.9759H21.2091C21.2091 21.0039 21.1811 21.0599 21.1811 21.0879C21.0971 21.0879 21.0131 21.1159 20.9291 21.1159V21.0879H20.7891H20.6211V21.0599C20.5651 21.0599 20.4811 21.0319 20.4251 21.0319V21.0039C20.3691 21.0039 20.3131 20.9759 20.2571 20.9759V20.9479H20.2011V20.9199H20.1171V20.8919H20.0611V20.8639H19.9771V20.8359H19.8931V20.8079H19.8371C19.7251 20.7519 19.6411 20.6959 19.5571 20.6399V20.4999C19.6131 20.4159 19.5571 20.3319 19.6131 20.2479H19.6411C19.6411 20.1639 19.6411 20.1079 19.6691 20.0519H19.6971V19.9679H19.7251V19.8839H19.7531C19.7531 19.7719 19.7811 19.6879 19.8091 19.6039H19.8371V19.4919H19.8651C19.8651 19.4079 19.8651 19.3519 19.8931 19.2679H19.9211V19.1839H19.9491V19.0999H19.9771V19.0159H20.0051C20.0051 18.9599 20.0051 18.9039 20.0331 18.8199C20.0331 18.8199 20.0611 18.8199 20.0891 18.7919V18.6799H20.1171V18.5959H20.1451C20.1731 18.4559 20.2011 18.2879 20.2571 18.1199H20.2851C20.2851 18.0919 20.2851 18.0359 20.3131 18.0079H20.3411V17.8679H20.3691C20.3691 17.8399 20.3691 17.7839 20.3971 17.7559H20.4251V17.6439H20.4531V17.5599H20.4811V17.5039H20.5091V17.4199H20.5371C20.5651 17.3359 20.5651 17.2239 20.5931 17.1399H20.6211V17.0839H20.6491C20.6771 16.9999 20.6771 16.9159 20.7051 16.8319H20.7331V16.7759H20.7611C20.7611 16.6919 20.7891 16.6359 20.7891 16.5799H20.8171C20.8171 16.5239 20.8451 16.4959 20.8451 16.4679H20.8731C20.8731 16.4119 20.9011 16.3559 20.9011 16.2999H20.9291C20.9291 16.2439 20.9571 16.1879 20.9571 16.1599H20.9851V16.1039H21.0131V16.0199H21.0411V15.9639H21.0691C21.0971 15.8519 21.0971 15.7679 21.1251 15.6839H21.1531C21.1531 15.6279 21.1811 15.5999 21.1811 15.5439H21.2091C21.2091 15.4879 21.2371 15.4319 21.2371 15.3759H21.2651V15.3199H21.2931C21.2931 15.2919 21.3211 15.2359 21.3211 15.1799H21.3491C21.3491 15.1239 21.3771 15.0679 21.3771 14.9839L21.4331 14.9559C21.4331 14.8999 21.4611 14.8439 21.4611 14.7879H21.4891C21.4891 14.7599 21.5171 14.7039 21.5171 14.6479H21.5451C21.5451 14.6199 21.5731 14.5919 21.5731 14.5359H21.6011V14.4519H21.6291V14.3399H21.6571V14.2839C21.6851 14.2839 21.6851 14.2559 21.7131 14.2559C21.7411 14.1719 21.7691 14.0879 21.7691 14.0039H21.7971C21.8251 13.9759 21.8251 13.9199 21.8251 13.8919H21.8531V13.8359H21.8811C21.9091 13.7799 21.9091 13.7519 21.9091 13.6959H21.9371V13.6119H21.9651V13.5279H21.9931V13.4439H22.0211V13.3599H22.0491V13.3039H22.0771V13.2199H22.1051V13.1639H22.1331V13.0799H22.1611C22.1891 13.0239 22.1891 12.9959 22.1891 12.9679H22.2171V12.8839H22.2451V12.8279H22.2731C22.3011 12.7719 22.3011 12.7159 22.3011 12.6879H22.3291V12.6039H22.3571V12.5479H22.3851V12.4639H22.4131C22.4411 12.4079 22.4411 12.3519 22.4411 12.3239H22.4691V12.2679H22.4971V12.1839H22.5251V12.1279H22.5531C22.5811 12.0719 22.5811 12.0439 22.5811 12.0159H22.6091C22.6371 11.9599 22.6371 11.8759 22.6371 11.8199H22.6651C22.6931 11.7919 22.6931 11.7359 22.6931 11.6799H22.7211V11.6239H22.7491V11.5399H22.7771V11.4839H22.8051C22.8331 11.4279 22.8611 11.3719 22.8611 11.3159H22.8891V11.2039H22.9171C22.9451 11.1479 22.9731 11.0919 23.0011 11.0359H23.0291V10.9799H23.0571V10.8959H23.0851V10.8399H23.1131V10.7559H23.1411C23.1411 10.7279 23.1411 10.6999 23.1691 10.6439H23.1971V10.5599H23.2251C23.2251 10.5039 23.2251 10.4199 23.2531 10.3639H23.2811V10.3079H23.3091V10.2239C23.3651 10.1399 23.4211 10.0279 23.4771 9.94395C23.5331 9.94395 23.5331 9.94395 23.5891 9.91595V9.88795H23.6731V9.85995C23.7851 9.80395 23.9531 9.88795 24.0651 9.88795C24.0931 9.94395 24.1771 9.97195 24.2051 10.0279C24.2051 10.0839 24.2331 10.1119 24.2331 10.1679H24.2611V10.2239H24.2891C24.3171 10.2799 24.3171 10.3359 24.3451 10.3919H24.3731C24.3731 10.4479 24.4011 10.5039 24.4011 10.5599H24.4291V10.6159H24.4571V10.6999H24.4851C24.4851 10.7559 24.5131 10.7839 24.5131 10.8119H24.5411V10.8959H24.5691V10.9519H24.5971V11.0359C24.6251 11.0639 24.6251 11.0639 24.6531 11.0639V11.1479H24.6811V11.2039H24.7091C24.7091 11.2599 24.7371 11.2879 24.7371 11.3159H24.7651V11.3999H24.7931V11.4559H24.8211V11.5119H24.8491C24.8771 11.5679 24.8771 11.6239 24.9051 11.6799H24.9331V11.7639H24.9611V11.8199H24.9891V11.9319H25.0171C25.0171 11.9599 25.0451 11.9879 25.0451 12.0439H25.0731V12.0999H25.1011V12.1839C25.1291 12.1839 25.1291 12.1839 25.1571 12.2119V12.2959H25.1851V12.3519H25.2131C25.2131 12.4079 25.2411 12.4639 25.2411 12.5199H25.2691V12.5759H25.2971V12.6599H25.3251C25.3251 12.6879 25.3531 12.7159 25.3531 12.7719H25.3811V12.8559H25.4091C25.4371 12.8839 25.4371 12.9119 25.4371 12.9679H25.4651C25.4931 13.0239 25.4931 13.0799 25.4931 13.1359H25.5211C25.5491 13.1639 25.5491 13.2199 25.5491 13.2479H25.5771V13.3319H25.6051V13.3879H25.6331C25.6611 13.4439 25.6611 13.4719 25.6611 13.5279H25.6891V13.6119H25.7171V13.6679H25.7451C25.7731 13.7239 25.7731 13.7519 25.7731 13.8079H25.8011V13.8919H25.8291V13.9479H25.8571C25.8851 14.0039 25.8851 14.0599 25.8851 14.1159H25.9131V14.1719H25.9411V14.2559H25.9691V14.3119H25.9971V14.3959H26.0251C26.0531 14.4519 26.0531 14.4799 26.0531 14.5079H26.0811V14.5919H26.1091V14.6479H26.1371V14.7319H26.1651V14.7879H26.1931C26.2211 14.8439 26.2211 14.8999 26.2211 14.9279H26.2491V15.0119H26.2771V15.0679H26.3051C26.3891 15.2919 26.4731 15.5159 26.5291 15.7399H26.5571C26.5851 15.7679 26.5851 15.7959 26.5851 15.8519H26.6131C26.6411 15.9079 26.6411 15.9639 26.6411 16.0199H26.6971C26.6971 16.0479 26.6971 16.0759 26.7251 16.1319H26.7531C26.7531 16.1879 26.7531 16.2439 26.7811 16.2999H26.8091C26.8091 16.3279 26.8091 16.3559 26.8371 16.4119H26.8651V16.4959H26.8931V16.5519H26.9211C26.9211 16.6079 26.9491 16.6639 26.9771 16.7199H27.0051V16.8039H27.0331C27.0331 16.8319 27.0331 16.8879 27.0611 16.9159H27.0891C27.0891 16.9719 27.0891 17.0279 27.1171 17.0839H27.1451C27.1451 17.1119 27.1451 17.1679 27.1731 17.1959H27.2011C27.2011 17.2519 27.2011 17.3079 27.2291 17.3639H27.2571C27.2571 17.3919 27.2571 17.4479 27.2851 17.4759H27.3131V17.5599H27.3411V17.6159H27.3691V17.6999H27.3971C27.3971 17.7279 27.3971 17.7839 27.4251 17.8119H27.4531C27.4811 17.8959 27.5091 18.0079 27.5371 18.0919H27.5651V18.1479H27.5931V18.2319H27.6211V18.2879H27.6491V18.3719H27.6771C27.6771 18.4279 27.7051 18.4839 27.7331 18.5399H27.7611V18.6519H27.7891C27.7891 18.7079 27.7891 18.7359 27.8171 18.7639H27.8451C27.8451 18.8199 27.8451 18.8759 27.8731 18.9039H27.9011V18.9599H27.9291C27.9291 19.0159 27.9571 19.0719 27.9571 19.0999H27.9851V19.1839H28.0131V19.2399H28.0411V19.3519H28.0691V19.4359H28.0971C28.0971 19.4639 28.1251 19.4919 28.1251 19.5479H28.1531C28.1531 19.6039 28.1811 19.6599 28.1811 19.7159H28.2091C28.2091 19.7439 28.2371 19.7719 28.2371 19.8279H28.2651V19.9119H28.2931V19.9679H28.3211C28.3771 20.0519 28.4051 20.1639 28.4051 20.3319C28.3211 20.3599 28.1811 20.3599 28.0691 20.3599C28.0131 20.4159 27.9011 20.3599 27.8171 20.3879V20.4159C27.6771 20.4439 27.5651 20.4159 27.4531 20.4159C27.3971 20.3599 27.3411 20.3039 27.3131 20.2479H27.2851C27.2571 20.1919 27.2571 20.1639 27.2571 20.1359C27.2291 20.1079 27.2011 20.1079 27.2011 20.1079V20.0519H27.1731C27.1451 19.9959 27.1451 19.9679 27.1451 19.9399H27.1171V19.8279C27.0891 19.7999 27.0611 19.7999 27.0611 19.7999V19.7439L27.0051 19.6879V19.6319H26.9771V19.5759H26.9491V19.5199H26.9211V19.4639H26.8931C26.8651 19.4079 26.8371 19.3519 26.8371 19.2679H26.8091C26.7811 19.2119 26.7811 19.1559 26.7811 19.0999C26.7531 19.0999 26.7251 19.0999 26.7251 19.0719V19.0159H26.6971V18.9319H26.6411V18.8759H26.6131C26.6131 18.8199 26.6131 18.7639 26.5851 18.7079H26.5571C26.5571 18.6799 26.5571 18.6519 26.5291 18.5959H26.5011V18.5119H26.4731C26.4731 18.4839 26.4731 18.4559 26.4451 18.3999H26.4171V18.3159H26.3891C26.3891 18.2879 26.3891 18.2599 26.3611 18.2039H26.3331V18.1199H26.3051V18.0639H26.2771C26.2771 18.0359 26.2771 17.9799 26.2491 17.9519H26.2211C26.2211 17.8959 26.2211 17.8399 26.1931 17.7839H26.1651C26.1651 17.7559 26.1651 17.6999 26.1371 17.6719H26.1091V17.5879H26.0811V17.5039H26.0531C26.0531 17.4479 26.0251 17.3919 25.9971 17.3359H25.9691V17.2799H25.9411V17.1959H25.9131V17.1399H25.8851C25.8851 17.0839 25.8851 17.0559 25.8571 16.9999H25.8291V16.9159H25.8011V16.8599H25.7731C25.7731 16.8039 25.7731 16.7479 25.7451 16.6919C25.7451 16.6639 25.7171 16.6639 25.6891 16.6639V16.5799H25.6611C25.6611 16.5239 25.6611 16.4959 25.6331 16.4679H25.6051C25.5771 16.3279 25.5491 16.216 25.5211 16.1039H25.4931C25.4931 16.0479 25.4931 16.0199 25.4651 15.9919H25.4371V15.9079H25.4091V15.8519H25.3811C25.3531 15.7679 25.3531 15.6839 25.3251 15.5719H25.2971V15.5159H25.2691C25.2691 15.4599 25.2411 15.4039 25.2411 15.3479H25.2131V15.2919H25.1851C25.1851 15.2359 25.1571 15.1799 25.1571 15.1239H25.1291C25.1291 15.0959 25.1011 15.0679 25.1011 15.0119H25.0731V14.8999H25.0451V14.8439H25.0171V14.7319H24.9891V14.6759C24.9611 14.6759 24.9611 14.6759 24.9331 14.6479V14.5639H24.9051V14.4799H24.8771V14.4239H24.8491C24.8491 14.3679 24.8211 14.3119 24.8211 14.2559H24.7931C24.7931 14.2279 24.7651 14.1719 24.7651 14.1439H24.7371V14.0599H24.7091V14.0039H24.6811C24.6811 13.9479 24.6531 13.8919 24.6531 13.8359H24.6251V13.7799H24.5971V13.6959H24.5691V13.6399H24.5411V13.5559H24.5131C24.5131 13.5279 24.4851 13.4719 24.4851 13.4439H24.4571V13.3599H24.4291V13.3039H24.4011V13.2479H24.3731V13.1919L24.3171 13.1359V13.0799C24.2891 13.0519 24.2891 13.0519 24.2611 13.0519V12.9959H24.2331C24.2051 12.9399 24.2051 12.8839 24.1771 12.8279Z" fill="white"/>
</svg>
