<svg width="112" height="118" viewBox="0 0 112 118" fill="none" xmlns="http://www.w3.org/2000/svg">
<g filter="url(#filter0_d_442_1316)">
<rect x="17" y="19" width="78" height="78" rx="39" fill="#FFD6CC" stroke="white" stroke-width="2"/>
<path d="M47.6925 74.531C47.4325 74.2797 47.1032 73.985 46.7045 73.647C46.3145 73.3003 45.8985 72.945 45.4565 72.581C45.0145 72.2083 44.5812 71.853 44.1565 71.515C43.7318 71.177 43.3592 70.8867 43.0385 70.644C42.7958 70.462 42.5748 70.3407 42.3755 70.28C42.1762 70.2107 41.9682 70.202 41.7515 70.254C41.5435 70.2973 41.2965 70.4013 41.0105 70.566C40.7678 70.7047 40.4905 70.8693 40.1785 71.06C39.8665 71.2507 39.5632 71.437 39.2685 71.619C38.9825 71.801 38.7485 71.9483 38.5665 72.061C38.3758 72.1737 38.1722 72.204 37.9555 72.152C37.7388 72.1 37.5698 71.9787 37.4485 71.788C37.3358 71.5973 37.3055 71.3937 37.3575 71.177C37.4095 70.9603 37.5308 70.7957 37.7215 70.683C37.9035 70.5703 38.1462 70.423 38.4495 70.241C38.7528 70.059 39.0692 69.877 39.3985 69.695C39.7365 69.5043 40.0268 69.3397 40.2695 69.201C40.7895 68.9237 41.2402 68.7417 41.6215 68.655C42.0115 68.5683 42.3842 68.5813 42.7395 68.694C43.0948 68.8067 43.4935 69.0233 43.9355 69.344C44.1695 69.5087 44.4512 69.721 44.7805 69.981C45.1185 70.2323 45.4738 70.5097 45.8465 70.813C46.2278 71.1077 46.6048 71.411 46.9775 71.723C47.3502 72.035 47.6968 72.334 48.0175 72.62C48.3468 72.8973 48.6242 73.14 48.8495 73.348C49.0228 73.504 49.1095 73.6947 49.1095 73.92C49.1095 74.1453 49.0272 74.3447 48.8625 74.518C48.7065 74.674 48.5115 74.7563 48.2775 74.765C48.0435 74.765 47.8485 74.687 47.6925 74.531ZM60.5105 74.31C59.7565 74.596 59.0978 74.7217 58.5345 74.687C57.9712 74.6523 57.5292 74.4487 57.2085 74.076C56.8965 73.6947 56.7405 73.1357 56.7405 72.399V68.265C56.7405 68.0397 56.8185 67.849 56.9745 67.693C57.1392 67.537 57.3298 67.459 57.5465 67.459C57.7718 67.459 57.9582 67.537 58.1055 67.693C58.2615 67.849 58.3395 68.0397 58.3395 68.265V72.152C58.3395 72.9753 58.8378 73.205 59.8345 72.841C60.2245 72.6937 60.6492 72.5203 61.1085 72.321C61.5765 72.1217 61.9925 71.9353 62.3565 71.762C62.5558 71.6667 62.7595 71.6537 62.9675 71.723C63.1755 71.7837 63.3315 71.9137 63.4355 72.113C63.5395 72.3037 63.5568 72.5073 63.4875 72.724C63.4268 72.9407 63.2968 73.0967 63.0975 73.192C62.6988 73.3827 62.2698 73.582 61.8105 73.79C61.3512 73.9893 60.9178 74.1627 60.5105 74.31ZM51.9955 75.142C51.7962 75.2287 51.5925 75.2373 51.3845 75.168C51.1765 75.09 51.0248 74.9513 50.9295 74.752C50.8428 74.5527 50.8342 74.349 50.9035 74.141C50.9815 73.9243 51.1202 73.7727 51.3195 73.686C52.0215 73.3567 52.5762 72.958 52.9835 72.49C53.3908 72.0133 53.6812 71.476 53.8545 70.878C54.0278 70.2713 54.1145 69.6213 54.1145 68.928C54.1145 68.7027 54.1925 68.512 54.3485 68.356C54.5045 68.2 54.6908 68.122 54.9075 68.122C55.1328 68.122 55.3192 68.2 55.4665 68.356C55.6225 68.512 55.7005 68.7027 55.7005 68.928C55.6918 70.4187 55.3668 71.6927 54.7255 72.75C54.0842 73.8073 53.1742 74.6047 51.9955 75.142ZM67.1275 76.221C66.9282 76.3077 66.7245 76.3077 66.5165 76.221C66.3085 76.143 66.1568 76.0043 66.0615 75.805C65.9748 75.597 65.9705 75.389 66.0485 75.181C66.1265 74.9643 66.2652 74.8127 66.4645 74.726C67.8165 74.1193 68.9562 73.3913 69.8835 72.542C70.8195 71.6927 71.4998 70.7697 71.9245 69.773C72.1152 69.3397 72.1455 69.0147 72.0155 68.798C71.8855 68.5727 71.5648 68.46 71.0535 68.46H66.1785C65.9618 68.46 65.7755 68.382 65.6195 68.226C65.4635 68.0613 65.3855 67.8707 65.3855 67.654C65.3855 67.4287 65.4635 67.238 65.6195 67.082C65.7755 66.926 65.9618 66.848 66.1785 66.848H71.1185C71.9158 66.848 72.5312 66.9953 72.9645 67.29C73.4065 67.576 73.6665 67.979 73.7445 68.499C73.8225 69.0103 73.7185 69.6127 73.4325 70.306C72.9212 71.5193 72.1282 72.6373 71.0535 73.66C69.9875 74.674 68.6788 75.5277 67.1275 76.221ZM75.2005 68.369C74.8365 68.369 74.5245 68.2433 74.2645 67.992C74.0132 67.732 73.8875 67.42 73.8875 67.056C73.8875 66.692 74.0132 66.3843 74.2645 66.133C74.5245 65.873 74.8365 65.743 75.2005 65.743C75.5558 65.743 75.8592 65.873 76.1105 66.133C76.3705 66.3843 76.5005 66.692 76.5005 67.056C76.5005 67.42 76.3705 67.732 76.1105 67.992C75.8592 68.2433 75.5558 68.369 75.2005 68.369ZM75.2005 67.615C75.3565 67.615 75.4865 67.563 75.5905 67.459C75.7032 67.3463 75.7595 67.212 75.7595 67.056C75.7595 66.9 75.7032 66.77 75.5905 66.666C75.4865 66.5533 75.3565 66.497 75.2005 66.497C75.0445 66.497 74.9102 66.5533 74.7975 66.666C74.6848 66.77 74.6285 66.9 74.6285 67.056C74.6285 67.212 74.6848 67.3463 74.7975 67.459C74.9102 67.563 75.0445 67.615 75.2005 67.615ZM40.341 88.416C40.1763 88.2687 40.0897 88.0867 40.081 87.87C40.0723 87.6447 40.1417 87.4497 40.289 87.285C40.965 86.557 41.5413 85.738 42.018 84.828C42.5033 83.9093 42.8803 82.917 43.149 81.851C42.6637 81.877 42.2087 81.903 41.784 81.929C41.368 81.9463 41.095 81.9593 40.965 81.968C40.7483 81.9767 40.5577 81.9073 40.393 81.76C40.2283 81.604 40.1417 81.4177 40.133 81.201C40.1243 80.9757 40.1937 80.7807 40.341 80.616C40.4883 80.4513 40.6747 80.3647 40.9 80.356C40.9953 80.3473 41.1773 80.3387 41.446 80.33C41.7147 80.3213 42.0267 80.3127 42.382 80.304C42.746 80.2867 43.11 80.2693 43.474 80.252C43.578 79.602 43.643 78.9303 43.669 78.237C43.6777 78.0117 43.7643 77.8253 43.929 77.678C44.0937 77.522 44.2843 77.4527 44.501 77.47C44.7263 77.4787 44.9127 77.5653 45.06 77.73C45.216 77.886 45.2853 78.0767 45.268 78.302C45.2593 78.6227 45.2377 78.939 45.203 79.251C45.1683 79.563 45.1293 79.8793 45.086 80.2L45.463 80.174C46.4077 80.1393 47.1357 80.2563 47.647 80.525C48.1583 80.7937 48.4877 81.24 48.635 81.864C48.7823 82.488 48.7737 83.3243 48.609 84.373C48.4703 85.257 48.271 85.9763 48.011 86.531C47.7597 87.0857 47.452 87.506 47.088 87.792C46.7327 88.0693 46.3297 88.2383 45.879 88.299C45.4283 88.3683 44.9387 88.3597 44.41 88.273C44.1933 88.2383 44.02 88.13 43.89 87.948C43.76 87.766 43.7123 87.5667 43.747 87.35C43.7903 87.1247 43.903 86.9513 44.085 86.83C44.267 86.7 44.4663 86.6567 44.683 86.7C44.969 86.752 45.229 86.765 45.463 86.739C45.697 86.713 45.9093 86.6177 46.1 86.453C46.2993 86.2883 46.4727 86.0197 46.62 85.647C46.776 85.2657 46.9103 84.7457 47.023 84.087C47.1443 83.4023 47.179 82.891 47.127 82.553C47.075 82.2063 46.919 81.9767 46.659 81.864C46.4077 81.7513 46.0263 81.7037 45.515 81.721C45.385 81.721 45.138 81.734 44.774 81.76C44.462 83.0687 44.02 84.295 43.448 85.439C42.876 86.583 42.2173 87.5623 41.472 88.377C41.3247 88.5417 41.1383 88.624 40.913 88.624C40.6963 88.6327 40.5057 88.5633 40.341 88.416ZM53.562 83.918C53.3453 83.918 53.1547 83.84 52.99 83.684C52.834 83.5193 52.756 83.3287 52.756 83.112C52.756 82.8867 52.834 82.696 52.99 82.54C53.1547 82.384 53.3453 82.306 53.562 82.306H61.661C61.8863 82.306 62.077 82.384 62.233 82.54C62.389 82.696 62.467 82.8867 62.467 83.112C62.467 83.3287 62.389 83.5193 62.233 83.684C62.077 83.84 61.8863 83.918 61.661 83.918H53.562ZM67.602 88.572C67.3853 88.572 67.199 88.4897 67.043 88.325C66.887 88.169 66.809 87.9827 66.809 87.766V78.783C66.809 78.5577 66.887 78.3713 67.043 78.224C67.199 78.068 67.3853 77.99 67.602 77.99C67.8273 77.99 68.018 78.068 68.174 78.224C68.33 78.3713 68.408 78.5577 68.408 78.783V81.916C68.5207 81.7427 68.6767 81.63 68.876 81.578C69.0753 81.5173 69.2703 81.539 69.461 81.643C69.9723 81.9117 70.4923 82.2193 71.021 82.566C71.5583 82.904 72.022 83.2377 72.412 83.567C72.5853 83.7057 72.6807 83.892 72.698 84.126C72.724 84.3513 72.6633 84.5507 72.516 84.724C72.3773 84.8887 72.1953 84.984 71.97 85.01C71.7447 85.0273 71.5453 84.9667 71.372 84.828C71.1293 84.6373 70.8477 84.4337 70.527 84.217C70.215 84.0003 69.8987 83.7923 69.578 83.593C69.266 83.385 68.98 83.2073 68.72 83.06C68.5813 82.982 68.4773 82.8867 68.408 82.774V87.766C68.408 87.9827 68.33 88.169 68.174 88.325C68.018 88.4897 67.8273 88.572 67.602 88.572ZM72.672 81.266C72.5593 81.3613 72.4207 81.4003 72.256 81.383C72.1 81.3657 71.9743 81.292 71.879 81.162C71.7923 81.032 71.6753 80.8717 71.528 80.681C71.3807 80.4903 71.2463 80.3257 71.125 80.187C71.047 80.0917 71.0123 79.9747 71.021 79.836C71.0297 79.6973 71.0903 79.5803 71.203 79.485C71.307 79.3897 71.424 79.3463 71.554 79.355C71.6927 79.3637 71.814 79.4157 71.918 79.511C72.048 79.6237 72.1953 79.7753 72.36 79.966C72.5247 80.148 72.6633 80.3127 72.776 80.46C72.8713 80.59 72.906 80.733 72.88 80.889C72.8627 81.0363 72.7933 81.162 72.672 81.266ZM73.933 80.161C73.8203 80.2737 73.6817 80.3257 73.517 80.317C73.361 80.3083 73.2353 80.2433 73.14 80.122C73.036 80.0007 72.906 79.8533 72.75 79.68C72.594 79.5067 72.451 79.3507 72.321 79.212C72.2343 79.1167 72.1867 79.004 72.178 78.874C72.178 78.7353 72.2343 78.6097 72.347 78.497C72.4423 78.4017 72.555 78.354 72.685 78.354C72.8237 78.3453 72.9493 78.3843 73.062 78.471C73.192 78.575 73.348 78.7137 73.53 78.887C73.712 79.0603 73.8637 79.2207 73.985 79.368C74.0803 79.4807 74.1237 79.615 74.115 79.771C74.1063 79.9183 74.0457 80.0483 73.933 80.161Z" fill="#C7282D"/>
<rect x="38" y="12" width="36" height="52" rx="4" fill="#EE3036"/>
<path fill-rule="evenodd" clip-rule="evenodd" d="M59.2727 19.9485C59.2727 19.4554 58.873 19.0557 58.3799 19.0557H53.6201C53.127 19.0557 52.7273 19.4554 52.7273 19.9485V23.8901C52.7273 24.3832 52.3275 24.7829 51.8344 24.7829L47.8929 24.7829C47.3997 24.7829 47 25.1827 47 25.6758V30.4355C47 30.9286 47.3997 31.3284 47.8929 31.3284H51.8344C52.3275 31.3284 52.7273 31.7281 52.7273 32.2212V36.1628C52.7273 36.6559 53.127 37.0556 53.6201 37.0556H58.3799C58.873 37.0556 59.2727 36.6559 59.2727 36.1628V32.2212C59.2727 31.7281 59.6725 31.3284 60.1656 31.3284H64.1071C64.6003 31.3284 65 30.9286 65 30.4355V25.6758C65 25.1827 64.6003 24.7829 64.1071 24.7829L60.1656 24.7829C59.6725 24.7829 59.2727 24.3832 59.2727 23.8901V19.9485Z" fill="white"/>
<path fill-rule="evenodd" clip-rule="evenodd" d="M48.3562 43.435C50.1646 41.5959 53.0965 41.5959 54.9048 43.435L56 44.5488L57.0952 43.435C58.9035 41.5959 61.8354 41.5959 63.6437 43.435C65.452 45.274 65.452 48.2558 63.6437 50.0948L57.5495 56.2926C57.1217 56.7277 56.5607 56.9447 56 56.9438C55.4393 56.9447 54.8782 56.7277 54.4504 56.2926L48.3562 50.0948C46.5479 48.2558 46.5479 45.274 48.3562 43.435Z" fill="white"/>
</g>
<defs>
<filter id="filter0_d_442_1316" x="0" y="0" width="112" height="118" filterUnits="userSpaceOnUse" color-interpolation-filters="sRGB">
<feFlood flood-opacity="0" result="BackgroundImageFix"/>
<feColorMatrix in="SourceAlpha" type="matrix" values="0 0 0 0 0 0 0 0 0 0 0 0 0 0 0 0 0 0 127 0" result="hardAlpha"/>
<feOffset dy="4"/>
<feGaussianBlur stdDeviation="8"/>
<feComposite in2="hardAlpha" operator="out"/>
<feColorMatrix type="matrix" values="0 0 0 0 0 0 0 0 0 0 0 0 0 0 0 0 0 0 0.16 0"/>
<feBlend mode="normal" in2="BackgroundImageFix" result="effect1_dropShadow_442_1316"/>
<feBlend mode="normal" in="SourceGraphic" in2="effect1_dropShadow_442_1316" result="shape"/>
</filter>
</defs>
</svg>
