<?xml version="1.0" encoding="UTF-8"?><svg id="b" xmlns="http://www.w3.org/2000/svg" width="72" height="36" xmlns:xlink="http://www.w3.org/1999/xlink" viewBox="0 0 72 36"><defs><linearGradient id="d" x1="23.973" y1="-11.901" x2="46.201" y2="26.6" gradientUnits="userSpaceOnUse"><stop offset="0" stop-color="#91b802"/><stop offset=".092" stop-color="#0da38d"/><stop offset=".379" stop-color="#0099d9"/><stop offset=".667" stop-color="#3d84ff"/><stop offset="1" stop-color="#f25eb7"/></linearGradient><linearGradient id="e" x1="25.01" y1="11.976" x2="46.127" y2="48.552" xlink:href="#d"/></defs><g id="c"><path d="m7.839,11.515c-.395-.235-.888-.505-1.481-.811-.593-.306-1.218-.607-1.875-.905-.658-.297-1.288-.568-1.888-.811-.601-.242-1.115-.435-1.542-.575-.396-.126-.687-.364-.877-.717s-.227-.724-.112-1.116c.132-.377.387-.658.766-.846.377-.188.765-.219,1.159-.095.511.174,1.11.405,1.802.694s1.399.603,2.123.94c.723.337,1.406.666,2.047.987.643.321,1.161.6,1.555.835.346.204.564.501.654.892s.02.76-.209,1.105c-.231.346-.551.557-.963.636-.412.077-.798.007-1.161-.212Zm2.148,7.898c-.56-.439-1.214-.889-1.963-1.351s-1.529-.92-2.344-1.374-1.621-.878-2.419-1.27c-.798-.392-1.542-.736-2.234-1.034-.379-.172-.641-.446-.789-.822s-.132-.745.049-1.105c.181-.362.465-.611.852-.753.386-.141.769-.125,1.148.047.756.329,1.567.709,2.43,1.141.864.43,1.732.889,2.604,1.374.872.486,1.699.976,2.48,1.469.782.494,1.476.968,2.086,1.422.329.251.518.577.567.976.05.4-.066.756-.344,1.07-.264.297-.601.469-1.013.516s-.782-.055-1.11-.306Zm-.617-12.998c-.395-.267-.885-.56-1.469-.881s-1.196-.638-1.838-.953c-.641-.313-1.26-.6-1.851-.858-.593-.258-1.095-.459-1.506-.6-.395-.125-.679-.372-.851-.74-.174-.367-.185-.74-.037-1.116s.41-.65.789-.823c.379-.172.766-.179,1.161-.023.494.188,1.082.435,1.765.74.683.306,1.382.634,2.097.987.716.353,1.386.697,2.011,1.034.625.337,1.128.631,1.506.882.346.219.551.528.617.928.065.399-.024.763-.271,1.093-.231.329-.557.525-.976.587-.419.063-.802-.023-1.148-.258Zm11.599,12.88c-.395.11-.778.079-1.148-.093-.37-.174-.621-.455-.753-.846-.132-.376-.103-.745.086-1.105s.482-.603.877-.729c2.024-.627,3.805-1.508,5.344-2.644,1.538-1.136,2.668-2.425,3.393-3.866.575-1.176.139-1.763-1.308-1.763h-8.958c-.412,0-.766-.138-1.062-.412-.297-.274-.445-.614-.445-1.023,0-.406.148-.743.445-1.01.296-.267.65-.4,1.062-.4h9.081c1.416,0,2.505.247,3.271.742.765.494,1.196,1.175,1.295,2.044s-.132,1.868-.691,2.997c-.905,1.818-2.274,3.436-4.109,4.853-1.835,1.419-3.961,2.503-6.38,3.255Zm-.888-15.63c-.412,0-.766-.133-1.062-.4-.297-.265-.445-.595-.445-.987,0-.407.148-.743.445-1.01.296-.267.65-.4,1.062-.4h9.427c.412,0,.762.133,1.049.4.288.267.432.603.432,1.01,0,.392-.143.722-.432.987-.287.267-.637.4-1.049.4h-9.427Zm26.452,16.078c-.412,0-.766-.145-1.062-.435-.296-.291-.445-.631-.445-1.023v-9.403c-1.053.878-2.139,1.724-3.257,2.539-1.12.815-2.238,1.559-3.357,2.232-.362.204-.745.258-1.148.165-.403-.095-.72-.313-.95-.658-.215-.344-.273-.713-.174-1.105s.329-.689.691-.894c1.036-.61,2.118-1.323,3.245-2.138,1.128-.815,2.229-1.684,3.307-2.61,1.077-.924,2.073-1.854,2.987-2.786.912-.931,1.674-1.813,2.282-2.644.247-.329.577-.532.987-.611.412-.077.79,0,1.136.235.346.219.558.529.641.928.082.4,0,.765-.247,1.093-.856,1.097-1.892,2.249-3.11,3.456v12.199c0,.392-.148.732-.443,1.023-.297.29-.658.435-1.086.435Zm11.377-.235c-.395.156-.785.161-1.172.011-.386-.149-.67-.403-.851-.763-.165-.362-.169-.729-.013-1.106.156-.376.423-.641.802-.799,2.732-1.143,5.093-2.561,7.084-4.254,1.99-1.693,3.561-3.62,4.713-5.783.28-.501.334-.877.161-1.128-.172-.251-.597-.376-1.271-.376h-3.282c-.789,1.003-1.67,1.978-2.641,2.927-.97.948-1.983,1.766-3.036,2.456-.329.235-.703.317-1.122.247-.42-.07-.753-.271-1-.6-.231-.329-.308-.693-.234-1.093.073-.399.283-.709.628-.928.921-.595,1.818-1.308,2.69-2.139.872-.831,1.667-1.704,2.383-2.621.714-.917,1.278-1.813,1.69-2.691.164-.36.445-.614.839-.763.395-.149.78-.138,1.159.034.379.158.646.423.803.799.155.377.143.745-.037,1.105-.066.158-.149.314-.247.471h1.703c1.957,0,3.261.478,3.911,1.435.65.955.564,2.248-.258,3.878-.839,1.661-1.938,3.237-3.295,4.724-1.357,1.489-2.892,2.825-4.602,4.008-1.712,1.182-3.546,2.166-5.505,2.95Z" fill="url(#d)" stroke-width="0"/><path d="m9.866,25.702c.281-.594.593-.688,1.031-.688h.234c.532,0,.954.485,1.016,1.015l1.079,8.766c.063.547-.454,1.094-1.047,1.141-.61.047-1.157-.391-1.22-.97l-.656-5.563-2.141,4.422c-.203.438-.595.953-1.266.953s-1.047-.515-1.25-.953l-2.156-4.422-.657,5.563c-.063.579-.609,1.016-1.218.97-.595-.047-1.125-.595-1.048-1.141l1.079-8.766c.063-.531.484-1.015,1.016-1.015h.234c.438,0,.766.094,1.032.688l2.968,6.328,2.97-6.328Zm9.268,9.173c0,.578-.515,1.063-1.14,1.063-.595,0-1.141-.5-1.141-1.063v-8.798c.016-.563.547-1.063,1.141-1.063.625,0,1.14.485,1.14,1.063v8.798Zm9.518-3.095l1.75,2.516c.313.469.109,1.172-.422,1.484-.5.297-1.188.157-1.484-.313l-2.063-3.406h-1.048v2.813c0,.578-.515,1.063-1.14,1.063-.595,0-1.141-.5-1.141-1.063v-8.61c.016-.64.406-1.172,1.093-1.172h3.298c2.406,0,3.547,1.72,3.577,3.47-.047,1.406-.827,2.75-2.422,3.218Zm-3.266-4.672v3.031h2.048c.89,0,1.359-.813,1.359-1.515,0-.672-.438-1.516-1.297-1.516h-2.111Zm11.066,6.204l-.735,1.968c-.202.532-.859.782-1.438.595-.563-.188-.875-.891-.688-1.422l3.111-8.375c.25-.656.75-1.063,1.547-1.063h.093c.798,0,1.298.406,1.548,1.063l3.109,8.375c.188.531-.125,1.235-.688,1.422-.579.188-1.234-.063-1.438-.595l-.734-1.968h-3.688Zm2.938-1.985l-1.095-3.75-1.093,3.75h2.188Zm8.955,3.547c0,.578-.515,1.063-1.14,1.063-.595,0-1.141-.5-1.141-1.063v-8.798c.016-.563.547-1.063,1.141-1.063.625,0,1.14.485,1.14,1.063v8.798Zm10.877-.72c.39.375.329,1.095-.11,1.485-.406.39-1.14.39-1.484,0l-3.031-3.422v2.657c0,.578-.516,1.063-1.141,1.063-.595,0-1.141-.5-1.141-1.063v-8.798c.016-.563.547-1.063,1.141-1.063.625,0,1.141.485,1.141,1.063v2.547l2.297-3.188c.297-.438.968-.547,1.422-.266.5.313.735.954.375,1.406l-2.938,3.844,3.47,3.734Zm7.455,1.845c-2.22,0-4.188-1.563-4.188-4v-5.922c.015-.563.547-1.063,1.14-1.063.625,0,1.141.485,1.141,1.063v5.922c0,1.109.938,1.843,1.907,1.843.938,0,1.875-.734,1.875-1.843v-5.922c0-.578.516-1.063,1.141-1.063.593,0,1.125.5,1.14,1.063v5.922c0,2.438-1.968,4-4.188,4h.032Z" fill="url(#e)" stroke-width="0"/></g></svg>