<svg width="106" height="40" viewBox="0 0 106 40" fill="none" xmlns="http://www.w3.org/2000/svg">
<g clip-path="url(#clip0_1963_2997)">
<path fill-rule="evenodd" clip-rule="evenodd" d="M10.445 23.2217C10.2416 23.6181 10.0367 24.0177 9.83719 24.4065C10.5162 24.547 11.2491 24.6688 12.0293 24.7695C13.3829 24.9443 14.445 25.0456 15.3403 25.1233C15.126 24.7061 14.9044 24.2747 14.6826 23.8439C14.0011 23.7742 13.3151 23.7009 12.6818 23.6228C11.8746 23.5231 11.1227 23.3875 10.4451 23.2218L10.445 23.2217Z" fill="#438DCA"/>
<path fill-rule="evenodd" clip-rule="evenodd" d="M19.3686 24.4634L18.7816 25.5099C20.4317 25.8538 21.4207 26.5486 21.4207 27.1934C21.4207 28.4786 17.4028 29.5219 12.4274 29.5344V29.5336C12.3966 29.5338 12.3663 29.5341 12.3357 29.5341C7.31793 29.5341 3.2503 28.2234 3.2503 26.607C3.2503 25.7595 4.56016 24.7804 6.34647 24.2459L6.35159 24.2354C3.13816 24.8816 0.999992 26.0309 0.999992 27.3411C0.999992 29.3618 6.08439 30.9999 12.3563 30.9999C12.3799 30.9999 12.4035 30.9997 12.4273 30.9997C18.6664 30.9873 23.7127 29.354 23.7127 27.3411C23.7127 26.1711 22.0899 25.1507 19.3685 24.4633L19.3686 24.4634Z" fill="#438DCA"/>
<path fill-rule="evenodd" clip-rule="evenodd" d="M15.1032 17.9906C15.3755 17.9777 15.6511 17.9678 15.9303 17.9613C17.2459 17.9303 17.7882 17.8523 20.2194 17.9509C20.2211 17.9487 20.2225 17.9464 20.224 17.9441C18.9053 17.7714 17.4628 17.6758 15.9511 17.6758C15.6132 17.6758 15.2793 17.6808 14.9488 17.6903C15.0004 17.7906 15.0518 17.8909 15.1032 17.9906Z" fill="#438DCA"/>
<path fill-rule="evenodd" clip-rule="evenodd" d="M6.85976 23.5282L7.61009 22.0655C7.11853 21.7054 6.84515 21.3073 6.84515 20.8886C6.84515 20.1279 7.73518 19.4615 9.20498 18.9563L9.5333 18.3164C6.55109 18.9759 4.59459 20.0818 4.59459 21.3353C4.59459 22.1696 5.41794 22.9203 6.85976 23.5282Z" fill="#438DCA"/>
<path fill-rule="evenodd" clip-rule="evenodd" d="M17.1491 22.8404L12.3991 13.6011L5.34058 27.3611H7.87425L12.4015 18.5363L17.1051 27.6855L28.7856 6.85986L17.1491 22.8404Z" fill="#019F62"/>
<path fill-rule="evenodd" clip-rule="evenodd" d="M31.8 4.78752C31.8 5.77466 30.9772 6.57505 29.9621 6.57505C28.9469 6.57505 28.1242 5.77457 28.1242 4.78752C28.1242 3.80048 28.9472 3 29.9621 3C30.9769 3 31.8 3.80022 31.8 4.78752Z" fill="#EF8762"/>
</g>
<path d="M48.754 26.153H38.503C37.942 26.153 37.67 25.711 37.67 25.252C37.67 24.81 37.942 24.368 38.503 24.368H48.346C48.737 24.368 48.873 24.215 48.873 23.875V15.494C48.873 15.154 48.737 15.001 48.346 15.001H38.588C38.027 15.001 37.755 14.576 37.755 14.134C37.755 13.709 38.027 13.284 38.588 13.284H48.754C50.267 13.284 50.743 13.879 50.743 15.171V24.266C50.743 25.558 50.267 26.153 48.754 26.153ZM65.754 26.153H55.503C54.942 26.153 54.67 25.711 54.67 25.252C54.67 24.81 54.942 24.368 55.503 24.368H65.346C65.737 24.368 65.873 24.215 65.873 23.875V15.494C65.873 15.154 65.737 15.001 65.346 15.001H55.588C55.027 15.001 54.755 14.576 54.755 14.134C54.755 13.709 55.027 13.284 55.588 13.284H65.754C67.267 13.284 67.743 13.879 67.743 15.171V24.266C67.743 25.558 67.267 26.153 65.754 26.153ZM84.369 16.208V17.126C84.369 18.129 84.352 19.047 84.284 19.863C84.947 20.186 85.593 20.56 86.222 21.002C86.511 21.206 86.613 21.478 86.613 21.767C86.613 22.243 86.256 22.736 85.814 22.736C85.678 22.736 85.525 22.685 85.372 22.583C84.947 22.26 84.505 21.988 84.046 21.716C83.434 25.116 81.87 26.272 79.082 27.071C78.946 27.105 78.827 27.122 78.725 27.122C78.096 27.122 77.722 26.612 77.722 26.136C77.722 25.813 77.909 25.49 78.317 25.388C80.748 24.759 82.057 23.739 82.499 20.951C81.02 20.322 79.524 19.982 78.113 19.914C77.229 22.566 75.631 26.17 72.979 26.17C71.687 26.17 70.667 25.099 70.667 23.314C70.667 20.951 72.792 18.486 76.872 18.316C77.45 16.361 77.756 14.967 77.756 14.916C77.756 14.729 77.62 14.644 77.365 14.644C76.226 14.678 75.104 14.746 73.88 14.746C73.591 14.746 73.302 14.729 73.013 14.729C72.503 14.712 72.231 14.27 72.231 13.845C72.231 13.437 72.486 13.046 72.996 13.046C73.455 13.063 73.914 13.063 74.339 13.063C75.461 13.063 76.515 13.029 77.637 12.995H77.79C78.946 12.995 79.524 13.59 79.524 14.525C79.524 14.899 79.388 15.647 78.589 18.367C79.983 18.469 81.343 18.741 82.652 19.183C82.669 18.894 82.669 18.588 82.669 18.265C82.669 17.636 82.652 16.939 82.601 16.174V16.106C82.601 15.613 83.009 15.358 83.434 15.358C83.876 15.358 84.352 15.647 84.369 16.208ZM76.328 19.965C73.387 20.339 72.401 22.039 72.401 23.229C72.401 23.96 72.724 24.3 73.166 24.3C74.696 24.3 75.937 21.07 76.328 19.965ZM97.272 18.962H96.949C94.535 19.098 92.495 19.574 89.809 21.597C89.622 21.733 89.435 21.784 89.248 21.784C88.704 21.784 88.245 21.274 88.245 20.747C88.245 20.458 88.381 20.169 88.704 19.965C91.237 18.367 93.43 16.803 96.779 14.185C96.83 14.134 96.864 14.117 96.864 14.1C96.864 14.066 96.83 14.066 96.779 14.066H96.711C94.688 14.27 92.852 14.389 91.356 14.389C91.067 14.389 90.812 14.372 90.557 14.372C90.013 14.372 89.758 13.947 89.758 13.539C89.758 13.097 90.03 12.672 90.574 12.672H90.608C91.084 12.689 91.56 12.706 92.053 12.706C94.059 12.706 96.235 12.553 98.326 12.4H98.394C99.04 12.4 99.465 13.012 99.465 13.59C99.465 13.879 99.363 14.168 99.125 14.355C97.561 15.613 95.844 16.837 94.144 17.959C95.317 17.517 96.116 17.483 96.949 17.415H97.306C99.975 17.415 102.508 18.758 102.508 21.699C102.508 25.881 98.224 27.139 94.79 27.139C92.529 27.139 90.115 26.748 90.081 24.215V24.164C90.081 22.481 91.832 21.648 93.243 21.648C95.623 21.648 97.17 23.11 98.003 25.014C98.955 24.657 100.791 23.773 100.791 21.818C100.791 20.067 99.482 18.962 97.272 18.962ZM96.286 25.439C95.606 23.892 94.654 23.161 93.294 23.161C92.41 23.161 91.781 23.569 91.781 24.249C91.781 25.133 92.58 25.541 94.807 25.541C95.317 25.541 95.81 25.507 96.286 25.439Z" fill="#212121"/>
<defs>
<clipPath id="clip0_1963_2997">
<rect width="30.8" height="28" fill="white" transform="translate(1 3)"/>
</clipPath>
</defs>
</svg>
