<svg width="168" height="120" viewBox="0 0 168 120" fill="none" xmlns="http://www.w3.org/2000/svg">
<g clip-path="url(#clip0_1367_25534)">
<path d="M69.2361 80.7809C71.9834 80.6315 74.567 80.4519 77.1539 80.3601C80.6742 80.235 84.1975 80.1976 87.718 80.075C88.5415 80.0463 89.3823 79.9082 90.1736 79.6777C91.9144 79.1706 92.3988 78.5403 92.5127 76.6998C92.6044 75.2184 92.5002 73.7181 92.6798 72.2502C93.2683 67.4418 93.0741 62.6144 93.1326 57.7941C93.1922 52.876 93.1853 47.9569 93.1758 43.0383C93.1689 39.5118 93.1294 35.985 93.0676 32.459C93.0183 29.647 92.6588 29.0409 89.2376 28.4586C88.9664 28.4125 88.6817 28.4431 88.4032 28.4417C80.4218 28.4039 72.4399 28.4022 64.4591 28.3144C60.2869 28.2685 56.1082 28.4368 51.9444 27.9105C49.3711 27.5852 46.7778 27.3049 44.1879 27.2461C37.322 27.0901 30.4532 27.0537 23.5853 27.0004C22.4756 26.9918 21.3615 27.1093 20.255 27.2236C17.8564 27.4712 16.4033 28.8945 15.6643 31.098C15.4002 31.8854 15.2356 32.7175 15.1246 33.5426C14.8775 35.3802 14.5768 37.2216 14.5039 39.0696C14.2625 45.1874 14.0679 51.308 13.9409 57.4292C13.8311 62.7198 13.9916 68.0075 14.549 73.2749C14.656 74.2863 14.8097 75.3022 15.0564 76.2874C15.727 78.9661 16.9961 79.9706 19.809 80.0038C23.3362 80.0455 26.8654 79.9654 30.3918 80.0336C34.198 80.1072 37.9928 80.124 41.791 79.7475C46.7018 79.2608 51.6169 79.7905 56.5299 79.8702C58.1945 79.8972 59.8572 80.0327 61.522 80.1187C64.2757 82.4891 66.2551 85.6129 69.3871 87.841C70.4788 85.4138 68.8014 83.2373 69.236 80.7809H69.2361Z" fill="white"/>
<path d="M69.2364 80.7809C68.8017 83.2372 70.479 85.4137 69.3874 87.841C66.2555 85.6129 64.276 82.4891 61.5224 80.1187C59.8575 80.0327 58.1948 79.8972 56.5302 79.8702C51.6171 79.7905 46.7022 79.2608 41.7913 79.7475C37.9932 80.124 34.1983 80.1072 30.3922 80.0336C26.8657 79.9654 23.3366 80.0455 19.8093 80.0038C16.9965 79.9706 15.7274 78.9661 15.0567 76.2874C14.8101 75.3023 14.6563 74.2863 14.5493 73.2749C13.9918 68.0076 13.8314 62.7198 13.9411 57.4292C14.0681 51.3079 14.2627 45.1874 14.5041 39.0696C14.577 37.2216 14.8777 35.3801 15.1249 33.5425C15.2358 32.7175 15.4005 31.8854 15.6645 31.0979C16.4035 28.8944 17.8567 27.4712 20.2553 27.2235C21.3617 27.1093 22.4758 26.9918 23.5856 27.0004C30.4534 27.0537 37.3222 27.0901 44.1881 27.2462C46.7779 27.305 49.3713 27.5853 51.9446 27.9105C56.1084 28.4368 60.2871 28.2685 64.4593 28.3144C72.4401 28.4023 80.4219 28.4039 88.4033 28.4418C88.6818 28.4431 88.9665 28.4125 89.2378 28.4587C92.659 29.041 93.0184 29.6471 93.0678 32.459C93.1296 35.9851 93.1691 39.5118 93.1759 43.0383C93.1855 47.9569 93.1923 52.8761 93.1327 57.7942C93.0743 62.6144 93.2685 67.4418 92.68 72.2503C92.5004 73.7181 92.6045 75.2185 92.5129 76.6999C92.3989 78.5404 91.9146 79.1706 90.1738 79.6777C89.3825 79.9082 88.5417 80.0464 87.7182 80.075C84.1977 80.1976 80.6744 80.2351 77.154 80.3601C74.5673 80.452 71.9836 80.6316 69.2363 80.7809L69.2364 80.7809ZM64.1496 39.9484C63.9887 39.5493 63.8278 39.1502 63.6668 38.7511C62.2585 35.7577 60.0722 33.5333 56.8451 32.703C49.9952 30.9405 44.2077 33.7819 40.7062 39.867C40.5426 40.1512 40.7472 40.6473 40.8225 41.5498C41.5252 40.5434 41.9726 39.9777 42.3391 39.3638C43.476 37.4588 45.1339 36.1723 47.1438 35.3355C48.3339 34.8399 49.5484 34.3468 50.7999 34.0652C53.9959 33.3461 57.0388 33.8896 59.8953 35.4818C61.0576 36.1297 61.8566 37.1498 62.6542 38.1765C62.9098 38.5055 63.1264 39.0241 63.7128 38.7113C63.4244 39.5823 63.5105 39.775 64.234 39.8769C64.2006 40.1352 64.1342 40.3959 64.1521 40.6505C64.1581 40.7358 64.3791 40.806 64.5018 40.8831C64.5171 40.7956 64.572 40.6891 64.5407 40.6243C64.4277 40.39 64.2857 40.1698 64.1497 39.9483L64.1496 39.9484ZM38.0995 78.9704C38.4665 76.9797 38.7455 75.3383 39.0746 73.7069C39.7709 70.2549 40.1975 66.745 41.2995 63.3792C41.6745 62.234 42.0418 61.0826 42.3316 59.9139C42.8193 57.9471 42.2455 56.7515 40.4318 55.8005C40.1047 55.629 39.7348 55.5372 39.4127 55.3582C37.155 54.1036 35.8989 51.273 36.8914 48.9391C37.527 47.4446 37.8003 45.9322 37.9953 44.388C38.4722 40.6122 40.2734 37.5634 42.9635 34.9844C46.8538 31.2548 51.6058 30.309 56.649 31.423C61.5369 32.5028 64.2933 36.0969 65.7345 40.7117C66.1441 42.0231 66.2388 43.4416 66.3957 44.8204C66.5022 45.7564 66.544 46.6433 67.4133 47.283C68.2137 47.872 68.4618 48.8226 68.5152 49.7471C68.6167 51.5045 68.6863 53.2645 68.157 54.9969C67.4906 57.1783 67.0087 57.3999 64.7898 56.3624C62.4925 57.6183 62.3296 58.2463 63.8269 60.0934C64.0606 60.3818 64.3138 60.6546 64.5438 60.9458C66.8823 63.9072 68.5589 67.1691 69.1441 70.9429C69.5137 73.3254 69.9282 75.7011 70.3431 78.0762C70.4209 78.5214 70.5962 78.9495 70.7502 79.4646C71.4406 79.514 72.0769 79.6165 72.7089 79.5947C75.2127 79.5082 77.722 79.217 80.216 79.3203C82.5479 79.4169 84.8291 79.0828 87.1335 78.9714C87.9569 78.9316 88.7722 78.7072 89.5892 78.5566C90.4085 78.4055 90.8905 77.8289 91.1588 77.1172C91.3847 76.5181 91.5422 75.8662 91.5816 75.2286C91.7537 72.4505 91.9779 69.6695 91.9905 66.8887C92.0391 56.1155 92.0158 45.342 92.0137 34.5686C92.0135 33.6403 92.0338 32.7055 91.9356 31.7853C91.8003 30.5175 91.0639 29.7763 89.8072 29.5596C89.3561 29.4817 88.8837 29.5156 88.4211 29.5178C83.5015 29.5408 78.5816 29.623 73.6627 29.5798C67.3499 29.5244 61.0381 29.3712 54.726 29.2518C54.2634 29.243 53.8025 29.1605 53.34 29.1232C50.0121 28.8547 46.6875 28.4332 43.3551 28.3564C37.2287 28.2153 31.0974 28.2385 24.9687 28.281C23.3078 28.2925 21.6371 28.5462 19.9927 28.8199C18.2716 29.1064 17.0688 30.2603 16.7806 31.898C16.0907 35.8177 15.438 39.7553 15.5063 43.7665C15.5347 45.4362 15.5149 47.1118 15.4089 48.7778C14.9125 56.5773 15.0862 64.3684 15.7013 72.1505C15.8245 73.7097 16.1545 75.2662 16.5353 76.7874C16.8914 78.2103 17.9688 78.8897 19.4137 78.9871C19.6914 79.0058 19.9705 79.008 20.249 79.0109C25.4498 79.064 30.6505 79.1242 35.8515 79.159C36.5707 79.1638 37.2908 79.0418 38.0995 78.9706V78.9704ZM61.109 58.5993C59.575 58.9427 58.0293 58.7389 56.9274 60.2821C56.0518 61.5084 54.338 61.9157 52.8823 61.4217C51.7062 61.0227 50.6552 60.129 49.6827 59.298C48.9647 58.6844 48.7178 57.7044 48.7706 56.7536C48.7929 56.3534 49.1111 55.9697 49.3598 55.4401C51.3318 56.4564 53.0329 55.5106 54.9411 54.9034C55.1312 55.9461 55.29 56.8171 55.4405 57.643C57.1338 58.4548 58.6924 57.8141 60.2945 57.3216C61.6489 56.9052 62.2794 56.046 62.2881 54.6842C62.3041 52.1786 62.4148 49.6662 62.2737 47.1686C62.0967 44.0344 60.5099 41.6057 58.0504 39.6631C55.5153 41.1625 53.1412 42.8043 50.5667 44.0225C47.9977 45.2382 45.2279 46.0294 42.3221 47.0883C42.3122 48.7382 42.1172 50.6034 42.3263 52.4222C42.8423 56.9097 44.0215 61.1429 47.5415 64.3732C48.9036 65.6232 50.0669 67.0888 51.3333 68.4444C51.6958 68.8324 52.1022 69.1794 52.5344 69.5888C56.1504 66.4199 59.3146 63.0986 61.109 58.5993ZM68.6028 85.5755C68.3865 84.2671 68.1496 83.205 68.0549 82.1305C67.9921 81.4172 68.1326 80.686 68.1822 79.9628C69.5775 79.0583 69.1477 77.6945 68.9704 76.4703C68.6786 74.4552 68.2717 72.4554 67.8692 70.458C67.2141 67.2079 65.7004 64.369 63.6032 61.8302C63.3526 61.5268 62.975 61.3282 62.5627 61.0084C61.4443 64.9151 61.3759 68.9273 59.208 72.0752C56.5629 72.7702 54.4058 71.5429 52.0864 71.2667C51.7057 71.7507 51.3825 72.1938 51.0264 72.6087C49.4468 74.4496 48.6881 74.4131 47.0795 72.5266C45.1613 70.2773 44.0892 67.6595 43.5349 64.7881C43.4445 64.3198 43.6465 63.6728 42.8256 63.3777C42.6674 63.7025 42.4787 63.997 42.3741 64.3188C41.022 68.4783 40.6949 72.8533 39.7233 77.0945C39.5959 77.6505 39.8559 78.2953 39.926 78.8202C44.1975 78.835 48.2654 78.8336 52.333 78.8687C55.0205 78.8918 57.7075 79.0006 60.3948 79.0023C61.4031 79.0029 62.1879 79.3269 62.8473 80.0568C63.9038 81.2261 64.9427 82.4132 66.0425 83.5406C66.732 84.2474 67.333 85.1 68.6028 85.5757L68.6028 85.5755ZM42.9881 45.4197C44.4601 44.988 45.8851 44.6289 47.2695 44.1523C50.7243 42.9629 53.7644 41.0113 56.7071 38.8927C57.8062 38.1013 58.3165 38.0437 59.1211 38.8935C61.3627 41.2613 63.5214 43.6889 63.6091 47.2371C63.6204 47.6954 63.9895 47.7887 64.3916 47.4404C64.1271 45.035 63.4726 42.7366 62.1544 40.6902C60.5981 38.2741 58.5608 36.3952 55.5774 36.0301C53.0642 35.7225 50.61 36.0991 48.215 37.0152C45.6282 38.0046 43.9406 39.8606 42.6616 42.2102C42.1218 43.2019 42.1216 44.1396 42.9882 45.4197L42.9881 45.4197ZM51.1122 70.3902C49.5359 67.9705 46.6875 64.9672 44.6314 63.5914C44.9256 67.267 46.1837 70.3757 48.9372 72.93C50.0333 72.2851 50.5782 71.3385 51.1122 70.3902V70.3902ZM60.5503 63.1661C58.5373 65.2795 56.5809 67.3295 54.6316 69.3862C54.4445 69.5837 54.2915 69.8164 54.1445 70.0468C54.1027 70.1123 54.1381 70.2272 54.1381 70.3521C55.3741 71.371 56.7956 71.3115 58.1905 71.1489C59.5707 68.8308 60.4355 65.9016 60.5503 63.1661ZM41.3151 54.5423C41.1508 52.9263 41.0623 51.5464 40.8531 50.1851C40.7237 49.3437 39.912 48.8621 38.9632 48.9221C38.4695 48.9532 38.0754 49.1606 37.941 49.6916C37.6498 50.842 37.9124 51.907 38.4881 52.9007C39.0199 53.8188 39.7434 54.4858 41.3151 54.5424L41.3151 54.5423ZM63.7279 55.4177C64.2138 54.9297 64.6461 54.7011 64.6631 54.4449C64.7692 52.8407 64.8975 51.2238 64.5307 49.5481C63.3807 50.5848 63.3525 50.7875 63.7279 55.4177ZM50.105 57.4113C50.3997 58.0033 50.6237 58.4533 50.8495 58.9069C51.6607 58.6345 52.3856 58.487 53.005 58.1472C53.3766 57.9434 53.5833 57.4394 54.0776 56.7899C52.5497 57.0289 51.4177 57.206 50.105 57.4113ZM39.1363 45.3545C39.1007 46.1021 38.938 46.6687 39.0994 47.1189C39.2091 47.4247 39.7546 47.6233 40.1441 47.7552C40.298 47.8072 40.7183 47.5684 40.736 47.4268C40.7769 47.1006 40.754 46.659 40.5599 46.4345C40.2296 46.0526 39.7478 45.8018 39.1363 45.3545H39.1363Z" fill="#333333"/>
<path d="M38.0997 78.9707C37.291 79.0419 36.5708 79.1639 35.8516 79.1591C30.6507 79.1243 25.45 79.0642 20.2491 79.011C19.9706 79.0081 19.6915 79.0059 19.4138 78.9872C17.9689 78.8898 16.8915 78.2104 16.5354 76.7875C16.1546 75.2663 15.8246 73.7098 15.7014 72.1506C15.0864 64.3685 14.9126 56.5774 15.409 48.778C15.515 47.1119 15.5349 45.4363 15.5064 43.7666C15.4382 39.7554 16.0908 35.8178 16.7807 31.8981C17.069 30.2604 18.2717 29.1065 19.9928 28.82C21.6372 28.5463 23.3079 28.2926 24.9688 28.2811C31.0975 28.2386 37.2289 28.2154 43.3553 28.3565C46.6877 28.4333 50.0122 28.8548 53.3401 29.1233C53.8026 29.1606 54.2635 29.2431 54.7261 29.2519C61.0382 29.3713 67.3501 29.5244 73.6628 29.5799C78.5817 29.6232 83.5017 29.541 88.4212 29.5179C88.8838 29.5157 89.3562 29.4819 89.8073 29.5597C91.064 29.7764 91.8004 30.5176 91.9357 31.7854C92.0339 32.7055 92.0136 33.6404 92.0138 34.5687C92.016 45.3421 92.0393 56.1156 91.9906 66.8888C91.978 69.6696 91.7538 72.4506 91.5818 75.2287C91.5423 75.8664 91.3848 76.5183 91.1589 77.1173C90.8906 77.829 90.4087 78.4056 89.5894 78.5567C88.7723 78.7073 87.957 78.9317 87.1336 78.9715C84.8293 79.0829 82.5481 79.417 80.2161 79.3204C77.7221 79.2171 75.2128 79.5083 72.709 79.5948C72.077 79.6166 71.4407 79.5141 70.7503 79.4647C70.5964 78.9496 70.421 78.5215 70.3433 78.0763C69.9283 75.7012 69.5138 73.3255 69.1443 70.943C68.559 67.1693 66.8824 63.9074 64.5439 60.9459C64.314 60.6547 64.0608 60.3819 63.827 60.0935C62.3298 58.2464 62.4926 57.6184 64.79 56.3625C67.0089 57.4 67.4907 57.1784 68.1571 54.997C68.6864 53.2646 68.6168 51.5046 68.5153 49.7472C68.4619 48.8227 68.2138 47.8721 67.4135 47.2831C66.5441 46.6433 66.5024 45.7565 66.3958 44.8205C66.2389 43.4417 66.1442 42.0232 65.7346 40.7118C64.2935 36.097 61.537 32.5029 56.6491 31.4232C51.6059 30.3091 46.8539 31.2549 42.9636 34.9845C40.2735 37.5635 38.4723 40.6123 37.9954 44.3881C37.8004 45.9322 37.5271 47.4447 36.8916 48.9392C35.8991 51.2731 37.1552 54.1037 39.4128 55.3583C39.7349 55.5373 40.1048 55.629 40.4319 55.8006C42.2457 56.7516 42.8194 57.9472 42.3317 59.914C42.0419 61.0827 41.6746 62.2341 41.2997 63.3793C40.1977 66.7452 39.771 70.255 39.0747 73.707C38.7456 75.3384 38.4666 76.9798 38.0997 78.9705V78.9707ZM37.2185 36.0064C36.8133 34.9095 36.4118 33.7147 35.9098 32.5637C35.8194 32.3566 35.3155 32.2573 35.0021 32.2564C34.8803 32.2561 34.6025 32.7228 34.6601 32.8803C35.0646 33.9881 35.4865 35.0963 36.0116 36.1503C36.2632 36.6552 36.742 36.5818 37.2185 36.0064ZM31.0842 35.446C30.8916 36.0132 30.6633 36.3667 30.7498 36.4802C31.5289 37.5022 32.5077 38.2808 33.7801 38.6043C33.9056 38.6362 34.1842 38.4785 34.2214 38.3567C34.2907 38.1301 34.3366 37.7298 34.2144 37.6377C33.2831 36.9356 32.3087 36.2906 31.0842 35.446H31.0842ZM29.0536 39.9042C29.075 40.307 29.0405 40.7295 29.1067 40.7459C30.2258 41.0234 31.3519 41.2899 32.4917 41.4493C32.6812 41.4758 33.0055 41.015 33.1358 40.721C33.1797 40.6221 32.8319 40.1917 32.6346 40.1697C31.48 40.0413 30.3169 39.989 29.0535 39.9041L29.0536 39.9042Z" fill="#C5EEF0"/>
<path d="M61.1092 58.5989C59.3148 63.0981 56.1506 66.4195 52.5345 69.5883C52.1023 69.1789 51.6959 68.832 51.3335 68.444C50.0671 67.0883 48.9038 65.6226 47.5416 64.3727C44.0216 61.1424 42.8425 56.9093 42.3265 52.4217C42.1173 50.6029 42.3123 48.7377 42.3223 47.0878C45.2281 46.0289 47.9979 45.2377 50.5669 44.022C53.1414 42.8039 55.5154 41.1621 58.0505 39.6626C60.5101 41.6053 62.0968 44.0339 62.2738 47.1682C62.4149 49.6657 62.3043 52.1781 62.2882 54.6837C62.2795 56.0455 61.649 56.9047 60.2946 57.3211C58.6926 57.8136 57.1339 58.4543 55.4407 57.6425C55.2901 56.8167 55.1313 55.9456 54.9412 54.9029C53.0331 55.5102 51.3319 56.4559 49.3599 55.4396C49.1112 55.9692 48.793 56.3529 48.7708 56.7531C48.718 57.7038 48.9649 58.684 49.6829 59.2975C50.6553 60.1285 51.7063 61.0222 52.8824 61.4212C54.3382 61.9153 56.0519 61.5079 56.9276 60.2816C58.0295 58.7384 59.5751 58.9423 61.1092 58.5989V58.5989ZM52.079 50.7162C50.5974 50.5655 50.4033 50.7484 49.7787 53.0105C50.415 53.2543 51.0574 53.5435 51.7266 53.7419C52.1782 53.8758 52.6676 53.1126 52.3133 52.8787C51.2648 52.1865 52.3294 51.4023 52.079 50.7162ZM56.3895 47.9845C56.2355 48.3151 55.8939 48.7492 55.8575 49.2075C55.8183 49.7019 56.2389 50.0116 56.7861 49.975C57.3421 49.9377 57.5866 49.5743 57.601 49.0678C57.6186 48.4465 57.1106 47.8967 56.3895 47.9845ZM47.9702 49.9716C47.9531 49.2257 47.5114 48.6963 47.0331 48.7459C46.5329 48.7979 46.1949 49.3512 46.3066 50.0204C46.3493 50.2762 46.4773 50.534 46.6239 50.7524C46.8771 51.1294 47.6087 51.068 47.7807 50.6601C47.8854 50.4119 47.9265 50.1369 47.9703 49.9716H47.9702Z" fill="white"/>
<path d="M68.6031 85.5755C67.3333 85.0998 66.7323 84.2472 66.0428 83.5405C64.9429 82.4131 63.9041 81.2259 62.8476 80.0566C62.1882 79.3267 61.4033 79.0028 60.3951 79.0021C57.7078 79.0004 55.0207 78.8917 52.3333 78.8685C48.2657 78.8335 44.1978 78.8349 39.9262 78.8201C39.8562 78.2952 39.5962 77.6504 39.7236 77.0943C40.6952 72.8531 41.0223 68.4782 42.3743 64.3187C42.479 63.9968 42.6677 63.7023 42.8258 63.3776C43.6468 63.6727 43.4447 64.3197 43.5351 64.7879C44.0895 67.6594 45.1616 70.2772 47.0798 72.5265C48.6884 74.413 49.447 74.4494 51.0267 72.6086C51.3827 72.1936 51.706 71.7506 52.0867 71.2665C54.4061 71.5428 56.5632 72.77 59.2083 72.0751C61.3762 68.9271 61.4446 64.9149 62.563 61.0083C62.9753 61.328 63.3528 61.5266 63.6035 61.83C65.7006 64.3689 67.2144 67.2078 67.8694 70.4578C68.2719 72.4552 68.6789 74.4551 68.9707 76.4702C69.1479 77.6944 69.5778 79.0582 68.1824 79.9627C68.1329 80.6859 67.9923 81.4171 68.0551 82.1303C68.1499 83.2049 68.3868 84.2669 68.6031 85.5754L68.6031 85.5755Z" fill="#2EB6AA"/>
<path d="M42.9881 45.4198C42.1216 44.1397 42.1217 43.202 42.6615 42.2103C43.9405 39.8607 45.6281 38.0047 48.2149 37.0153C50.6099 36.0993 53.0641 35.7226 55.5773 36.0302C58.5608 36.3953 60.5981 38.2743 62.1544 40.6903C63.4726 42.7368 64.1271 45.0351 64.3915 47.4405C63.9894 47.7888 63.6203 47.6955 63.609 47.2372C63.5213 43.689 61.3626 41.2614 59.121 38.8936C58.3164 38.0438 57.8061 38.1015 56.707 38.8928C53.7644 41.0114 50.7242 42.963 47.2694 44.1524C45.885 44.629 44.4601 44.988 42.988 45.4198L42.9881 45.4198Z" fill="#F57105"/>
<path d="M63.7246 38.7008C63.1264 39.0237 62.9098 38.5051 62.6542 38.176C61.8566 37.1493 61.0577 36.1293 59.8953 35.4814C57.0387 33.8891 53.9959 33.3456 50.7999 34.0647C49.5484 34.3463 48.3339 34.8395 47.1437 35.3351C45.1339 36.1718 43.476 37.4583 42.3391 39.3633C41.9727 39.9773 41.5252 40.5429 40.8225 41.5494C40.7472 40.6468 40.5426 40.1508 40.7061 39.8666C44.2077 33.7815 49.9951 30.94 56.8451 32.7025C60.0722 33.5329 62.2585 35.7573 63.6606 38.7559C63.6544 38.7611 63.7245 38.7009 63.7245 38.7009L63.7246 38.7008Z" fill="#F57105"/>
<path d="M51.1123 70.3906C50.5783 71.3389 50.0334 72.2855 48.9373 72.9304C46.1838 70.3761 44.9257 67.2674 44.6315 63.5918C46.6876 64.9676 49.536 67.9709 51.1123 70.3907V70.3906Z" fill="white"/>
<path d="M60.5505 63.1665C60.4357 65.9021 59.5708 68.8313 58.1907 71.1494C56.7957 71.312 55.3743 71.3715 54.1383 70.3525C54.1383 70.2276 54.1028 70.1128 54.1447 70.0472C54.2917 69.8169 54.4447 69.5841 54.6318 69.3867C56.581 67.33 58.5374 65.28 60.5505 63.1665Z" fill="white"/>
<path d="M41.3152 54.5423C39.7434 54.4858 39.02 53.8188 38.4881 52.9006C37.9125 51.9069 37.6498 50.842 37.941 49.6916C38.0754 49.1606 38.4696 48.9532 38.9632 48.922C39.9121 48.862 40.7238 49.3436 40.8531 50.185C41.0624 51.5464 41.1509 52.9263 41.3151 54.5423L41.3152 54.5423Z" fill="white"/>
<path d="M63.728 55.4178C63.3526 50.7876 63.3808 50.585 64.5308 49.5483C64.8977 51.224 64.7694 52.8409 64.6632 54.4451C64.6462 54.7012 64.2139 54.9298 63.728 55.4178Z" fill="white"/>
<path d="M50.1052 57.411C51.4179 57.2056 52.5499 57.0286 54.0778 56.7896C53.5835 57.4391 53.3768 57.9431 53.0053 58.1469C52.3859 58.4867 51.661 58.6342 50.8497 58.9066C50.624 58.453 50.3999 58.0029 50.1052 57.411Z" fill="white"/>
<path d="M39.1365 45.3545C39.748 45.8019 40.2299 46.0526 40.5601 46.4345C40.7542 46.659 40.7772 47.1006 40.7362 47.4269C40.7185 47.5685 40.2982 47.8073 40.1443 47.7552C39.7549 47.6234 39.2093 47.4247 39.0996 47.1189C38.9381 46.6687 39.1009 46.1021 39.1365 45.3545H39.1365Z" fill="#F57105"/>
<path d="M64.1547 39.9443C64.2858 40.1698 64.4277 40.39 64.5407 40.6243C64.5721 40.6892 64.5171 40.7957 64.5018 40.8831C64.3791 40.806 64.1582 40.7358 64.1522 40.6505C64.1343 40.3958 64.2006 40.1352 64.2341 39.877L64.1547 39.9443Z" fill="#F57105"/>
<path d="M64.2341 39.877C63.5106 39.7751 63.4244 39.5825 63.7188 38.7064C63.7247 38.7013 63.6546 38.7615 63.6608 38.7563C63.8279 39.1502 63.9888 39.5493 64.1522 39.9464C64.1547 39.9443 64.2341 39.877 64.2341 39.877Z" fill="#F57105"/>
<path d="M37.2185 36.0059C36.7419 36.5813 36.2631 36.6546 36.0116 36.1497C35.4866 35.0957 35.0646 33.9876 34.6601 32.8797C34.6026 32.7222 34.8804 32.2555 35.0021 32.2559C35.3155 32.2567 35.8194 32.356 35.9098 32.5631C36.4117 33.7141 36.8133 34.9089 37.2185 36.0059Z" fill="#333333"/>
<path d="M31.0842 35.4458C32.3088 36.2904 33.2831 36.9354 34.2145 37.6375C34.3367 37.7296 34.2908 38.1299 34.2215 38.3565C34.1842 38.4783 33.9057 38.636 33.7801 38.6041C32.5078 38.2806 31.5289 37.502 30.7498 36.48C30.6633 36.3665 30.8916 36.013 31.0843 35.4458H31.0842Z" fill="#333333"/>
<path d="M29.0536 39.9038C30.3169 39.9887 31.48 40.041 32.6347 40.1694C32.832 40.1914 33.1798 40.6218 33.1359 40.7207C33.0055 41.0147 32.6812 41.4755 32.4917 41.449C31.3519 41.2896 30.2259 41.023 29.1068 40.7456C29.0405 40.7292 29.075 40.3066 29.0536 39.9039L29.0536 39.9038Z" fill="#333333"/>
<path d="M52.0789 50.7168C52.3293 51.4029 51.2648 52.1871 52.3133 52.8794C52.6676 53.1133 52.1781 53.8764 51.7265 53.7425C51.0573 53.544 50.415 53.255 49.7787 53.0111C50.4033 50.7491 50.5974 50.5661 52.079 50.7168H52.0789Z" fill="#333333"/>
<path d="M56.3896 47.9853C57.1107 47.8976 57.6187 48.4474 57.6011 49.0687C57.5867 49.5752 57.3422 49.9386 56.7862 49.9759C56.239 50.0126 55.8184 49.7028 55.8576 49.2084C55.894 48.7501 56.2356 48.3159 56.3896 47.9854V47.9853Z" fill="#333333"/>
<path d="M47.9702 49.9721C47.9264 50.1373 47.8854 50.4124 47.7807 50.6606C47.6087 51.0685 46.8771 51.1299 46.6239 50.7528C46.4773 50.5346 46.3493 50.2766 46.3066 50.0209C46.1948 49.3516 46.5328 48.7984 47.033 48.7464C47.5114 48.6967 47.9532 49.2261 47.9702 49.9721Z" fill="#333333"/>
<path d="M140.64 106.344C139.143 99.7156 137.085 94.6219 135.214 90.4086C133.343 86.1953 130.818 84.8618 130.818 84.8618C130.818 84.8618 126.989 89.6658 124.495 92.4707C122.001 95.2755 116.439 99.5842 116.439 99.5842L115.457 99.9587L105.28 90.1277L101.117 94.6219L104.905 121.4L143.623 120.671C143.623 120.671 142.137 112.973 140.64 106.344Z" fill="#C5EEF0"/>
<path d="M105.095 90.9571C105.77 91.695 106.274 92.3127 106.846 92.8604C109.29 95.2017 111.721 97.5595 114.227 99.8334C115.329 100.833 115.941 100.798 117.124 99.8468C118.364 98.8496 119.619 97.8391 120.694 96.6743C123.664 93.4557 126.536 90.1471 129.468 86.8929C129.841 86.4783 130.339 86.176 130.738 85.8551C131.824 86.393 132.499 87.1311 133.007 87.9868C133.919 89.5257 134.966 91.0324 135.577 92.6923C136.951 96.4239 138.196 100.211 139.296 104.032C140.231 107.28 140.94 110.596 141.648 113.903C142.022 115.649 142.178 117.442 142.436 119.213C142.507 119.7 142.562 120.193 142.689 120.666C142.725 120.797 142.99 120.944 143.15 120.943C143.315 120.943 143.596 120.797 143.623 120.671C143.724 120.203 143.809 119.713 143.779 119.239C143.577 116.142 142.827 113.148 142.032 110.163C141.746 109.087 141.718 108.117 142.294 107.02C144.863 102.124 144.324 97.1573 142.05 92.3695C140.845 89.8321 139.843 87.2481 139.12 84.5624C137.874 79.9331 136.972 75.2359 137.545 70.4046C138.097 65.75 137.442 61.2547 135.844 56.8945C134.706 53.7909 133.13 50.9935 130.537 48.7489C126.095 44.9041 120.979 43.1261 115.189 43.1891C112.708 43.2161 110.206 43.3649 107.812 44.1326C103.062 45.6555 98.9788 48.1154 95.8987 52.1891C93.8054 54.9576 92.6147 58.077 91.5708 61.304C91.3291 62.0511 91.0639 62.7905 90.8507 63.413C89.988 63.8683 89.2822 64.2294 88.5871 64.6098C86.4979 65.7529 85.5969 67.4808 86.1688 69.8293C86.5902 71.5597 87.126 73.2622 87.6554 75.1345C86.7375 76.5145 86.2694 78.2325 86.2976 80.0576C86.3112 80.9449 86.5852 81.8256 86.6379 82.7154C86.7773 85.0668 87.5509 87.1826 88.8327 89.1405C89.5413 90.2228 90.1739 91.3553 90.8954 92.4284C91.4147 93.2007 91.6422 93.9957 91.6409 94.9372C91.6332 100.314 91.5976 105.682 92.1391 111.056C92.4584 114.226 92.7815 117.379 93.296 120.525C93.8518 123.923 95.7358 125.812 99.0965 126.418C101.523 126.855 103.492 126.106 104.564 123.916C105.031 122.963 105.296 121.834 105.347 120.771C105.494 117.688 105.534 114.597 104.679 111.574C104.436 110.716 104.256 109.826 104.17 108.939C103.755 104.669 102.869 100.481 102.012 96.2878C101.876 95.6216 101.798 94.9435 101.729 94.5024C102.921 93.2468 103.937 92.1763 105.095 90.957L105.095 90.9571Z" fill="white"/>
<path d="M105.095 90.957C103.937 92.1763 102.921 93.2468 101.729 94.5024C101.798 94.9434 101.875 95.6216 102.012 96.2877C102.869 100.481 103.754 104.669 104.169 108.939C104.256 109.826 104.436 110.716 104.679 111.574C105.534 114.597 105.494 117.688 105.347 120.771C105.296 121.834 105.031 122.963 104.564 123.916C103.491 126.106 101.523 126.855 99.0964 126.418C95.7356 125.812 93.8516 123.923 93.2959 120.525C92.7814 117.379 92.4582 114.226 92.1389 111.056C91.5975 105.682 91.6331 100.314 91.6408 94.9372C91.6421 93.9957 91.4145 93.2008 90.8953 92.4284C90.1737 91.3553 89.5411 90.2228 88.8326 89.1405C87.5507 87.1826 86.7772 85.0668 86.6378 82.7154C86.585 81.8256 86.3111 80.9449 86.2974 80.0576C86.2693 78.2325 86.7374 76.5145 87.6552 75.1345C87.1259 73.2622 86.5901 71.5597 86.1687 69.8293C85.5968 67.4808 86.4978 65.7529 88.5869 64.6098C89.2822 64.2294 89.9879 63.8683 90.8506 63.413C91.0638 62.7905 91.329 62.0511 91.5706 61.304C92.6147 58.077 93.8053 54.9576 95.8986 52.1891C98.9787 48.1154 103.062 45.6555 107.812 44.1326C110.206 43.365 112.707 43.2161 115.189 43.1891C120.979 43.1261 126.095 44.9041 130.537 48.7489C133.13 50.9935 134.706 53.7908 135.844 56.8945C137.442 61.2547 138.097 65.75 137.545 70.4046C136.972 75.2359 137.874 79.9331 139.12 84.5624C139.843 87.2482 140.844 89.8321 142.05 92.3695C144.324 97.1573 144.863 102.124 142.294 107.02C141.718 108.117 141.745 109.087 142.032 110.163C142.827 113.148 143.577 116.142 143.778 119.239C143.809 119.713 143.724 120.203 143.623 120.671C143.596 120.797 143.314 120.943 143.149 120.943C142.99 120.944 142.724 120.797 142.689 120.666C142.562 120.193 142.506 119.7 142.435 119.213C142.177 117.442 142.022 115.649 141.648 113.903C140.94 110.596 140.231 107.28 139.296 104.032C138.196 100.211 136.951 96.4239 135.577 92.6923C134.966 91.0324 133.919 89.5258 133.007 87.9868C132.499 87.1311 131.824 86.3929 130.738 85.8551C130.339 86.176 129.841 86.4783 129.468 86.8929C126.536 90.1471 123.664 93.4557 120.694 96.6743C119.619 97.8391 118.364 98.8496 117.124 99.8468C115.941 100.798 115.329 100.833 114.227 99.8334C111.721 97.5595 109.29 95.2016 106.846 92.8603C106.274 92.3127 105.77 91.695 105.095 90.9571L105.095 90.957ZM135.36 70.1834C135.93 69.5336 136.351 68.8318 136.331 67.9163C136.306 66.7241 136.511 65.4965 136.295 64.3443C135.598 60.6279 134.823 56.906 132.976 53.551C132.315 52.3502 131.535 51.0863 130.49 50.2505C127.772 48.0774 124.938 45.9936 121.417 45.2641C119.868 44.9429 118.277 44.8248 116.711 44.5753C111.198 43.6969 106.295 45.3859 101.668 48.1659C100.91 48.6207 100.231 49.2485 99.6217 49.8964C98.4632 51.1288 97.2853 52.363 96.2886 53.7232C94.388 56.3174 93.3685 59.3003 92.5845 62.5148C93.4266 62.7388 94.0671 62.9091 94.7946 63.1026C94.9637 63.5782 95.1653 64.0273 95.2824 64.4973C95.6193 65.8486 95.9512 67.2024 96.2305 68.5664C96.5711 70.2302 96.8715 71.8605 98.4348 72.9524C98.8096 73.2142 98.8749 73.9896 98.9751 74.548C99.0372 74.8945 98.7109 75.322 99.2349 75.551C99.3269 75.5189 99.4748 75.5104 99.497 75.4531C99.7782 74.7269 100.063 74.0009 100.305 73.2611C101.979 68.1443 104.804 63.9908 109.829 61.586C111.259 60.9014 112.584 59.9956 113.949 59.1765C115.692 58.1304 117.126 56.8013 117.963 54.8895C118.134 54.4992 118.554 54.2178 119.041 53.6874C120.075 55.7609 121.615 56.9981 123.252 58.1046C124.152 58.7134 125.194 59.11 126.127 59.675C128.592 61.1664 131.196 62.5341 131.936 65.7407C133.271 65.6413 134.517 65.4676 135.288 66.6912C136.011 67.8381 136.474 68.9946 135.45 70.2324C134.925 71.1812 134.388 72.1237 133.879 73.0812C133.559 73.6845 133.085 74.2891 133.016 74.9294C132.664 78.1852 132.421 81.4527 132.164 84.4483C133.396 86.3026 134.677 87.8608 135.554 89.6206C137.862 94.2552 139.494 99.1504 140.677 104.195C140.821 104.807 141.14 105.379 141.528 106.345C141.96 105.218 142.33 104.508 142.504 103.752C143.367 100.014 142.776 96.3949 141.129 93.0202C139.944 90.5929 138.925 88.1254 138.197 85.5434C136.955 81.1436 135.919 76.6997 136.024 72.0783C136.04 71.359 135.936 70.691 135.36 70.1834H135.36ZM115.727 99.2165C118.827 97.0913 121.28 94.3589 123.699 91.6038C125.664 89.3653 127.49 87.002 129.494 84.8003C130.427 83.7754 130.899 82.6643 131.026 81.3456C131.216 79.3677 131.434 77.3912 131.557 75.4089C131.616 74.4689 131.918 73.705 132.485 72.9624C133.144 72.0991 133.768 71.1859 134.246 70.215C134.535 69.6279 134.64 68.8817 134.594 68.2234C134.565 67.8144 134.181 67.2754 133.808 67.0835C133.299 66.8218 132.927 67.2504 132.698 67.7501C132.445 68.3035 132.159 68.8563 131.275 68.5268C131.168 68.2233 130.993 67.8643 130.913 67.4853C130.16 63.8761 127.919 61.5882 124.621 60.1155C123.367 59.5556 122.248 58.6843 121.092 57.9172C120.359 57.4302 119.671 56.8736 118.978 56.3588C116.433 59.0161 114.794 60.2863 111.646 62.0448C111.039 62.3838 110.418 62.697 109.796 63.0087C105.189 65.3201 102.795 69.334 101.422 74.0677C100.953 75.6848 100.927 77.3664 102.049 78.8447C102.774 79.7992 102.753 80.8763 102.465 81.9733C102.322 82.5178 102.153 83.0555 101.971 83.6802C103.137 84.3904 104.138 85.0004 105.25 85.6778C105.302 86.4206 105.406 87.2025 105.399 87.9834C105.391 88.8272 105.671 89.4824 106.218 90.1356C109.038 93.502 112.145 96.5557 115.727 99.2164L115.727 99.2165ZM99.5231 92.6335C98.1961 92.754 97.4599 93.7306 96.4548 94.0549C95.4472 94.3799 94.3812 94.5241 93.2198 94.7735C93.169 95.5083 93.0981 96.1872 93.0787 96.8675C92.9174 102.55 93.1837 108.218 93.8056 113.864C94.0777 116.334 94.4364 118.808 94.9749 121.231C95.5799 123.953 97.9351 125.455 100.808 125.221C102.67 125.069 103.93 123.271 104.094 120.53C104.106 120.331 104.094 120.131 104.103 119.933C104.205 117.533 104.045 115.162 103.416 112.83C103.21 112.064 103.085 111.275 102.95 110.492C102.104 105.591 101.285 100.686 100.41 95.7911C100.223 94.7491 99.8401 93.7422 99.5231 92.6335ZM93.0176 93.1185C95.685 93.6411 97.0581 92.0198 98.783 90.9963C98.7141 90.3165 98.6901 89.7332 98.5888 89.1636C98.4503 88.3855 98.2157 87.6239 98.0905 86.8442C97.9251 85.8153 98.1008 84.8934 98.9324 84.1251C99.6527 83.4596 100.288 82.6982 100.929 81.952C101.691 81.065 101.406 80.3196 100.167 79.7834C99.8441 79.6437 99.5655 79.4019 99.4055 79.2977C99.2876 78.3852 100.354 77.9562 99.7571 77.2091C99.073 76.7365 98.2105 77.9262 97.6272 76.9853C97.2316 75.9948 98.5938 75.1702 97.7626 74.0163C97.0122 74.2686 96.2942 74.5461 95.5541 74.7387C95.3047 74.8037 94.9991 74.653 94.6206 74.5825C94.7122 73.8852 94.7962 73.2453 94.9112 72.3707C94.2817 72.4061 93.7876 72.329 93.3717 72.4749C91.2028 73.2358 89.7816 74.9685 88.3953 76.6417C87.4508 77.7817 87.9646 79.3262 87.9095 80.6969C87.8855 81.2928 87.9076 81.8944 87.9612 82.4887C88.1145 84.1896 88.4888 85.8461 89.3718 87.3205C90.5439 89.2777 91.7972 91.1861 93.0176 93.1185ZM93.9209 64.3456C93.1306 64.4285 92.6428 64.454 92.1642 64.534C88.1339 65.2066 86.7694 67.3169 87.8753 71.1553C87.9841 71.5331 88.0531 71.9388 88.2438 72.2726C88.5089 72.7364 88.8715 73.1445 89.3405 73.7759C90.8654 71.7591 92.9728 71.1547 95.1883 70.3835C94.7701 68.3911 94.3698 66.484 93.9209 64.3456ZM101.26 92.7852C103.903 91.0672 104.45 88.9781 103.93 86.5101C102.752 85.7749 101.681 85.106 100.658 84.4672C99.366 84.8402 99.0876 85.7583 99.3789 86.8096C99.9031 88.7017 100.551 90.5595 101.26 92.7852Z" fill="#333333"/>
<path d="M126.746 39.9352C127.308 38.2304 127.773 36.7608 128.298 35.3134C128.362 35.1388 128.789 34.9571 128.987 35.009C129.194 35.063 129.512 35.4577 129.465 35.5974C128.976 37.0556 128.443 38.5007 127.851 39.9198C127.803 40.0361 127.233 39.9352 126.746 39.9352Z" fill="#333333"/>
<path d="M136.378 45.5768C137.807 44.2702 138.874 43.2479 140.007 42.3031C140.204 42.1386 140.813 42.1649 140.988 42.3429C141.302 42.661 141.069 43.0547 140.725 43.3204C139.631 44.1656 138.549 45.0283 137.428 45.8373C137.299 45.9309 136.956 45.7298 136.378 45.5768Z" fill="#333333"/>
<path d="M135.778 37.7343C135.784 37.8324 135.83 37.9522 135.79 38.025C135.133 39.2276 134.485 40.4369 133.778 41.6097C133.662 41.802 133.25 41.9335 133.012 41.8901C132.875 41.865 132.656 41.3528 132.737 41.2001C133.423 39.9118 134.161 38.6502 134.914 37.3996C134.981 37.2884 135.299 37.2363 135.449 37.2934C135.593 37.3488 135.671 37.5801 135.778 37.7343Z" fill="#333333"/>
<path d="M115.727 99.216C112.145 96.5553 109.038 93.5015 106.218 90.1352C105.671 89.482 105.391 88.8269 105.399 87.9829C105.406 87.202 105.303 86.4202 105.251 85.6773C104.138 85 103.137 84.3899 101.971 83.6797C102.153 83.055 102.322 82.5174 102.465 81.9729C102.753 80.8759 102.774 79.7987 102.049 78.8442C100.927 77.366 100.953 75.6843 101.422 74.0673C102.795 69.3336 105.189 65.3197 109.796 63.0083C110.418 62.6965 111.04 62.3833 111.646 62.0444C114.794 60.2858 116.433 59.0156 118.978 56.3584C119.671 56.8731 120.359 57.4297 121.092 57.9168C122.248 58.6839 123.367 59.5552 124.621 60.1151C127.919 61.5878 130.16 63.8756 130.914 67.4848C130.993 67.8638 131.168 68.2228 131.275 68.5263C132.159 68.8559 132.445 68.3031 132.698 67.7497C132.927 67.25 133.299 66.8213 133.808 67.0831C134.181 67.275 134.565 67.8139 134.594 68.2229C134.64 68.8812 134.535 69.6275 134.246 70.2145C133.768 71.1855 133.145 72.0987 132.485 72.962C131.918 73.7046 131.616 74.4684 131.558 75.4084C131.434 77.3907 131.216 79.3673 131.026 81.3452C130.9 82.6639 130.427 83.775 129.494 84.7998C127.49 87.0015 125.664 89.3649 123.699 91.6033C121.28 94.3585 118.827 97.0908 115.727 99.216ZM110.823 80.3289C110.653 80.6914 110.273 81.1199 110.305 81.5155C110.367 82.2956 110.58 83.0874 110.867 83.8214C111.888 86.4341 113.881 87.4216 116.588 86.7231C118.949 86.1137 120.576 83.6582 120.206 81.2595C120.11 80.6323 119.537 80.1449 118.926 80.3319C116.284 81.141 113.653 80.8901 110.823 80.3289ZM116.439 74.8793C116 73.8073 115.533 72.666 115.064 71.5175C113.92 72.0742 113.824 72.1347 113.916 72.4115C114.159 73.1433 114.439 73.8629 114.699 74.5749C114.358 74.9991 114.029 75.3616 113.764 75.7657C113.686 75.8848 113.727 76.169 113.823 76.2918C113.923 76.4201 114.17 76.5286 114.328 76.5015C115.256 76.3431 115.947 75.836 116.439 74.8793ZM120.952 70.1137C121.383 69.9288 121.73 69.887 121.889 69.6919C122.448 69.0068 122.425 67.868 121.794 67.2972C121.559 67.0851 121.051 67.0065 120.73 67.095C120.123 67.2625 119.785 68.0408 120.041 68.7903C120.208 69.2782 120.639 69.6757 120.952 70.1137ZM106.505 69.2017C106.462 70.4125 106.835 71.0103 107.445 70.9785C108.07 70.9459 108.587 70.347 108.593 69.5253C108.595 69.1551 108.468 68.7628 108.316 68.4176C108.083 67.8908 107.147 67.8665 106.848 68.3779C106.659 68.7006 106.557 69.0738 106.505 69.2017Z" fill="white"/>
<path d="M135.419 70.2079C136.474 68.995 136.011 67.8385 135.288 66.6916C134.517 65.4679 133.271 65.6416 131.936 65.7411C131.196 62.5344 128.592 61.1667 126.127 59.6753C125.193 59.1103 124.152 58.7138 123.251 58.105C121.614 56.9985 120.074 55.7613 119.041 53.6877C118.554 54.2181 118.134 54.4996 117.963 54.8898C117.125 56.8017 115.692 58.1308 113.949 59.1769C112.584 59.9959 111.259 60.9018 109.828 61.5864C104.804 63.9912 101.979 68.1447 100.305 73.2614C100.063 74.0013 99.778 74.7273 99.4968 75.4535C99.4746 75.5107 99.3267 75.5193 99.2348 75.5513C98.7108 75.3223 99.0371 74.8949 98.9749 74.5484C98.8747 73.99 98.8095 73.2146 98.4346 72.9528C96.8713 71.8608 96.5709 70.2305 96.2303 68.5667C95.951 67.2028 95.6191 65.8489 95.2822 64.4977C95.1651 64.0276 94.9635 63.5786 94.7944 63.103C94.0669 62.9095 93.4264 62.7391 92.5844 62.5151C93.3683 59.3007 94.3877 56.3178 96.2884 53.7236C97.2851 52.3633 98.4629 51.1291 99.6215 49.8967C100.231 49.2489 100.91 48.6211 101.667 48.1662C106.295 45.3864 111.198 43.6973 116.711 44.5757C118.276 44.8252 119.867 44.9433 121.417 45.2644C124.937 45.9939 127.772 48.0778 130.49 50.2509C131.535 51.0867 132.315 52.3505 132.976 53.5514C134.823 56.9063 135.598 60.6282 136.295 64.3447C136.511 65.4968 136.305 66.7244 136.331 67.9167C136.351 68.8322 135.93 69.534 135.36 70.1837L135.418 70.208L135.419 70.2079Z" fill="#F57105"/>
<path d="M99.5228 92.6338C99.8399 93.7425 100.223 94.7493 100.41 95.7914C101.285 100.686 102.104 105.592 102.949 110.492C103.084 111.275 103.21 112.064 103.416 112.83C104.044 115.162 104.205 117.533 104.102 119.933C104.094 120.132 104.105 120.332 104.094 120.53C103.93 123.271 102.669 125.07 100.808 125.221C97.9349 125.455 95.5796 123.953 94.9747 121.231C94.4362 118.808 94.0775 116.334 93.8054 113.864C93.1834 108.218 92.9172 102.55 93.0785 96.8678C93.0979 96.1875 93.1687 95.5086 93.2196 94.7738C94.3809 94.5244 95.4469 94.3803 96.4545 94.0552C97.4597 93.7309 98.1958 92.7543 99.5228 92.6338Z" fill="#C5EEF0"/>
<path d="M93.0176 93.1189C91.7972 91.1865 90.5438 89.278 89.3718 87.3209C88.4887 85.8464 88.1144 84.19 87.9611 82.4891C87.9076 81.8948 87.8854 81.2932 87.9094 80.6973C87.9645 79.3265 87.4508 77.7821 88.3953 76.6421C89.7816 74.9689 91.2028 73.2362 93.3716 72.4752C93.7875 72.3293 94.2817 72.4065 94.9111 72.3711C94.7962 73.2456 94.7122 73.8856 94.6205 74.5829C94.9991 74.6534 95.3046 74.804 95.5541 74.7391C96.2942 74.5465 97.0122 74.269 97.7626 74.0167C98.5937 75.1706 97.2316 75.9952 97.6271 76.9857C98.2104 77.9265 99.0729 76.7369 99.757 77.2095C100.354 77.9565 99.2875 78.3856 99.4055 79.298C99.5654 79.4023 99.8441 79.6441 100.167 79.7838C101.406 80.32 101.691 81.0654 100.929 81.9524C100.288 82.6985 99.6526 83.46 98.9324 84.1255C98.1008 84.8937 97.925 85.8157 98.0904 86.8446C98.2157 87.6242 98.4503 88.3859 98.5887 89.164C98.69 89.7336 98.7141 90.3169 98.783 90.9967C97.058 92.0201 95.6849 93.6415 93.0175 93.1189H93.0176Z" fill="white"/>
<path d="M135.36 70.1836C135.936 70.6912 136.04 71.3593 136.024 72.0786C135.919 76.7 136.955 81.1439 138.197 85.5437C138.925 88.1256 139.944 90.5933 141.129 93.0205C142.776 96.3952 143.367 100.015 142.504 103.752C142.33 104.508 141.96 105.218 141.528 106.345C141.14 105.379 140.821 104.808 140.677 104.195C139.493 99.1507 137.862 94.2555 135.554 89.6209C134.677 87.8611 133.396 86.3029 132.164 84.4486C132.421 81.453 132.664 78.1854 133.016 74.9297C133.085 74.2894 133.559 73.6848 133.879 73.0815C134.388 72.124 134.925 71.1815 135.434 70.2203C135.419 70.2079 135.36 70.1836 135.36 70.1836Z" fill="#F57105"/>
<path d="M93.9209 64.3458C94.3698 66.4842 94.7702 68.3912 95.1884 70.3836C92.9729 71.1549 90.8655 71.7592 89.3405 73.776C88.8715 73.1446 88.5089 72.7366 88.2439 72.2727C88.0531 71.9389 87.9841 71.5332 87.8753 71.1554C86.7695 67.317 88.134 65.2066 92.1642 64.5341C92.6429 64.4542 93.1306 64.4287 93.9209 64.3458Z" fill="#2EB6AA"/>
<path d="M101.26 92.7848C100.551 90.5591 99.903 88.7013 99.3788 86.8092C99.0875 85.7579 99.3659 84.8398 100.658 84.4668C101.681 85.1056 102.752 85.7744 103.929 86.5096C104.45 88.9777 103.903 91.0669 101.26 92.7848Z" fill="#2EB6AA"/>
<path d="M110.823 80.3285C113.653 80.8897 116.284 81.1405 118.926 80.3315C119.537 80.1445 120.11 80.6319 120.206 81.259C120.576 83.6578 118.949 86.1133 116.588 86.7227C113.881 87.4212 111.888 86.4337 110.867 83.821C110.58 83.0871 110.367 82.2951 110.305 81.5151C110.273 81.1194 110.653 80.6909 110.823 80.3285ZM118.875 82.0956H112.04C112.514 84.8526 113.129 85.6008 114.881 85.6488C115.773 85.6733 116.636 85.6004 117.37 84.9726C118.218 84.2464 118.829 83.418 118.875 82.0956Z" fill="#333333"/>
<path d="M116.438 74.8799C115.947 75.8366 115.256 76.3437 114.328 76.5021C114.17 76.5291 113.923 76.4207 113.823 76.2924C113.727 76.1696 113.686 75.8854 113.764 75.7663C114.029 75.3621 114.358 74.9997 114.699 74.5754C114.439 73.8635 114.159 73.1438 113.916 72.4121C113.824 72.1353 113.92 72.0748 115.063 71.5181C115.533 72.6666 116 73.8078 116.438 74.8799Z" fill="#333333"/>
<path d="M120.952 70.1146C120.639 69.6765 120.208 69.2791 120.041 68.7912C119.785 68.0417 120.123 67.2634 120.73 67.0958C121.051 67.0074 121.559 67.086 121.794 67.2981C122.425 67.8689 122.449 69.0077 121.889 69.6928C121.73 69.8879 121.383 69.9297 120.952 70.1146Z" fill="#333333"/>
<path d="M106.505 69.2019C106.557 69.074 106.659 68.7008 106.848 68.3782C107.147 67.8668 108.083 67.891 108.315 68.4178C108.468 68.763 108.595 69.1554 108.592 69.5256C108.586 70.3472 108.07 70.9461 107.444 70.9788C106.835 71.0106 106.462 70.4128 106.505 69.2019Z" fill="#333333"/>
<path d="M118.875 82.0972C118.83 83.4195 118.218 84.248 117.37 84.9741C116.636 85.602 115.773 85.6749 114.881 85.6504C113.129 85.6024 112.514 84.8542 112.04 82.0972H118.875Z" fill="white"/>
</g>
<defs>
<clipPath id="clip0_1367_25534">
<rect width="168" height="120" fill="white"/>
</clipPath>
</defs>
</svg>
