<svg width="168" height="120" viewBox="0 0 168 120" fill="none" xmlns="http://www.w3.org/2000/svg">
<g clip-path="url(#clip0_1330_7973)">
<path d="M57.695 186.006C58.2554 182.327 58.8141 178.649 59.378 174.971C59.4869 174.261 59.1996 174.04 58.5471 174.283C58.2234 174.404 57.9205 174.58 57.6032 174.72C55.5328 175.631 55.1633 175.541 54.126 173.491C53.435 172.126 52.7316 171.311 50.9286 171.738C48.9642 172.204 48.8633 171.781 49.049 169.832C49.8644 161.27 52.4762 153.088 54.2198 144.724C54.3118 144.283 54.2653 143.881 54.1308 143.423C52.2125 136.884 50.7324 130.241 49.4919 123.543C49.3596 122.828 49.1391 122.22 48.6315 121.688C43.4025 116.21 40.8637 109.279 38.3598 102.356C37.9337 101.178 37.4772 100.283 36.6511 99.2865C35.4713 97.8638 34.0907 96.1719 34.4898 93.9619C34.5681 93.5282 34.2565 93.3386 34.0655 93.0654C33.3084 91.9829 33.6282 91.0685 34.7459 90.6654C35.6378 90.3437 35.4246 89.9936 35.2333 89.3653C33.7443 84.4749 32.2418 79.5874 30.87 74.6636C30.5799 73.6223 29.8268 72.5084 30.8382 71.277C31.313 70.6989 30.416 69.8015 29.5939 69.9916C26.7807 70.6421 23.9513 70.6999 21.1445 70.0691C16.9123 69.1179 13.9277 66.4817 12.1735 62.6181C9.15689 55.9739 8.21704 49.0195 10.3316 41.944C12.7305 33.9174 18.4711 29.3389 26.4098 27.334C28.8067 26.7287 31.1638 25.901 33.7103 26.0097C39.4785 26.2561 43.7825 29.2785 47.2915 33.4685C53.2374 40.5686 55.447 56.2168 43.0919 64.8256C40.9477 66.3196 38.5202 67.0021 36.0252 67.4275C34.8241 67.6323 34.5522 68.0132 35.0562 69.0561C37.3111 73.7211 38.1288 78.8474 39.7454 83.7173C39.9173 84.2353 40.0655 84.7623 40.1996 85.2914C40.5314 86.6011 40.6461 87.8836 42.7122 87.5597C43.9982 87.3581 44.9147 88.4941 45.319 89.8149C45.6787 90.9901 45.5963 92.1909 45.554 93.3833C45.4998 94.9108 45.6174 96.2936 46.4819 97.7073C48.3008 100.682 49.9355 103.767 52.3712 106.309C53.0869 107.056 53.8836 107.725 54.8783 108.648C54.8783 105.635 54.8833 102.936 54.8663 100.236C54.8652 100.069 54.7055 99.8922 54.5948 99.7379C53.2133 97.8142 53.2074 97.3496 55.2154 96.0997C56.4985 95.3011 57.1212 94.3798 57.3466 92.8712C57.808 89.7825 59.2422 87.026 60.9172 84.4366C63.2176 80.8803 66.9567 80.3554 70.589 80.8552C76.2758 81.6376 80.3998 84.8829 82.7195 90.2736C84.712 94.904 84.9804 99.7106 84.412 104.639C84.1429 106.972 84.3854 109.216 85.9714 111.128C86.7333 112.047 86.3664 112.876 85.5188 113.406C83.3754 114.744 81.2133 116.103 78.704 116.643C77.6939 116.86 77.5226 117.182 77.9239 118.109C81.3631 126.062 85.133 133.829 90.3142 140.829C90.9199 141.647 91.6306 142.279 92.541 142.74C93.8782 143.417 95.1482 144.216 96.1081 145.402C96.8515 146.321 97.1017 147.386 96.5825 148.467C96.0237 149.63 94.8955 149.578 93.8466 149.431C92.671 149.266 91.5114 148.987 90.1705 148.724C90.1705 149.689 90.2555 150.629 90.1457 151.544C90.0431 152.4 89.6857 153.257 88.6811 153.386C87.7878 153.501 87.3266 152.794 87.0654 152.089C86.144 149.599 84.8263 147.535 82.5695 145.91C80.5716 144.472 79.3351 142.169 77.6 139.802C78.1562 143.066 77.7564 145.982 78.9148 148.819C81.0712 154.1 82.8521 159.526 84.3323 165.042C84.9505 167.346 84.8391 167.547 82.4958 167.596C81.5416 167.616 81.7166 168.239 81.5205 168.756C79.8193 173.246 81.6219 177.465 82.5476 181.735C82.9987 183.816 83.6968 185.844 84.2918 187.893C84.3607 188.13 84.4289 188.41 84.5941 188.57C86.7829 190.695 86.9145 193.444 86.8348 196.206C86.7804 198.093 86.5724 199.979 86.1539 201.837C85.2558 205.825 83.8045 207.149 78.9075 207.756C78.5635 207.798 78.2097 207.767 77.8607 207.761C75.6319 207.726 74.466 206.082 75.5473 204.162C77.0303 201.528 76.8781 198.76 76.9437 195.907C77.029 192.2 75.3888 188.998 74.4393 185.601C73.5892 182.56 72.5502 179.575 72.1621 176.354C70.729 177.91 69.2609 177.961 67.7577 176.507C67.2482 179.16 66.773 181.723 66.2609 184.279C65.4707 188.224 64.718 192.177 63.8309 196.101C63.0937 199.361 60.4503 201.456 57.3588 201.45C55.7778 201.448 54.5404 200.867 53.8949 199.347C52.7091 196.553 51.2557 193.9 49.8152 191.233C48.7056 189.179 48.1919 186.97 48.8642 184.604C49.7215 181.588 52.4266 180.628 54.9988 182.468C56.0349 183.21 56.7334 184.217 57.6946 186.006L57.695 186.006Z" fill="#333333"/>
<path d="M66.9825 145.988C63.5731 145.791 60.3242 145.443 57.2022 144.29C55.7009 143.735 54.7872 142.848 54.3917 141.2C52.9189 135.063 51.2953 128.958 50.343 122.71C50.1956 121.743 49.5134 121.343 48.9942 120.734C46.5607 117.881 44.4067 114.84 42.9673 111.353C41.6997 108.283 40.2208 105.3 39.2131 102.121C38.872 101.044 39.0814 100.37 40.0748 99.7727C41.3507 99.0057 42.541 98.1032 43.9317 97.5242C44.8685 97.1342 45.4104 97.2922 45.8698 98.2978C47.2001 101.21 49.0485 103.795 51.0562 106.288C52.8634 108.532 55.0298 110.02 57.9339 110.307C61.4975 110.659 64.6814 112.267 68.0333 113.322C68.6564 113.518 68.5823 113.912 68.6465 114.337C68.9696 116.481 69.5716 117.085 71.7131 117.234C72.8037 117.31 73.9423 117.423 74.991 117.199C76.4281 116.892 76.7546 117.673 77.2022 118.734C80.5715 126.717 84.401 134.458 89.6333 141.415C90.1922 142.158 90.1276 142.613 89.5209 143.135C88.7658 143.785 88.0218 144.456 87.2133 145.035C84.3571 147.078 85.0203 147.127 82.5915 144.674C80.589 142.652 79.015 140.26 77.4959 137.864C76.4326 136.188 76.5507 134.136 76.154 132.25C75.9186 131.131 75.7881 129.99 75.5878 128.863C75.526 128.515 75.6374 127.928 74.996 128.078C74.4376 128.208 74.6358 128.724 74.6979 129.083C75.2225 132.117 75.6211 135.172 76.3358 138.175C76.6805 139.623 76.7395 141.136 77.0297 142.6C77.3446 144.188 76.4194 144.755 75.1594 145.047C72.4311 145.68 69.6453 145.832 66.9823 145.988L66.9825 145.988Z" fill="#C5EEF0"/>
<path d="M46.4781 46.6105C46.2928 52.3673 44.271 57.6953 40.7657 62.4432C39.2856 64.448 37.0038 65.5548 34.762 66.4915C33.8186 66.8856 33.3439 67.831 32.5034 68.0747C29.3442 68.9905 26.247 69.154 23.4799 66.8234C20.5848 64.385 18.4918 61.4023 17.3515 57.8117C15.4713 51.891 14.4573 45.9476 16.785 39.8427C18.4468 35.4842 21.1726 32.0976 25.0424 29.5505C26.6537 28.49 28.2328 28.0014 30.2228 28.4615C32.8898 29.0782 35.5214 29.7256 38.0147 30.8774C43.0518 33.2043 45.5562 37.2899 46.1866 42.6664C46.3317 43.9037 46.3736 45.1533 46.4782 46.6105H46.4781Z" fill="#C5EEF0"/>
<path d="M63.953 91.5131C62.9005 90.0264 62.2135 88.4526 61.021 87.2301C60.7384 86.9404 60.8064 86.5868 60.9681 86.2552C61.7728 84.6045 62.7813 83.1021 64.6177 82.5127C68.198 81.3637 71.649 81.3294 75.1188 83.2457C80.6665 86.3095 82.7506 91.345 83.6082 97.1828C83.974 99.6723 83.653 102.163 83.4499 104.648C83.2502 107.091 83.477 109.444 85.0385 111.452C85.5863 112.156 85.2994 112.454 84.7135 112.841C80.8291 115.402 76.5877 116.646 71.9277 116.333C69.8991 116.196 69.0369 114.786 69.7095 112.785C70.1041 111.611 70.536 110.448 70.8864 109.26C71.3282 107.763 71.9414 106.53 73.335 105.54C75.6982 103.862 75.9759 100.965 74.2953 98.8396C73.2072 97.4639 71.9973 97.0744 70.3472 97.7376C69.6186 98.0304 69.3305 97.9263 69.0568 97.1953C68.3265 95.2449 67.5468 93.3116 66.7353 91.3933C65.9924 89.6372 65.7039 89.6015 64.4657 90.9633C64.3316 91.1108 64.194 91.255 63.9532 91.513L63.953 91.5131Z" fill="#F57105"/>
<path d="M65.6183 91.1518C66.5464 93.4468 67.4619 95.6851 68.3552 97.9323C68.6942 98.7849 69.1687 99.3777 70.1368 98.8165C71.3381 98.1199 72.3984 98.1862 73.3647 99.2041C74.4227 100.319 74.6842 101.873 74.0559 103.197C73.7519 103.838 73.3846 104.522 72.7804 104.817C70.9488 105.713 70.4625 107.421 69.9291 109.134C69.1853 111.522 67.6452 112.254 65.3087 111.329C62.7138 110.306 60.0335 109.554 57.2728 109.207C56.1404 109.065 55.8854 108.607 55.9007 107.589C55.9344 105.345 55.8716 103.1 55.8596 100.855C55.8556 100.086 55.7613 99.3986 55.0836 98.8621C54.3557 98.2858 54.4174 97.5565 55.2561 97.2291C57.7165 96.2687 58.134 94.1724 58.5393 91.9345C58.7991 90.4997 59.316 89.0933 60.1453 87.7451C61.1593 88.6899 61.7751 89.8258 62.4379 90.9198C63.6902 92.9868 63.7489 93.0014 65.6182 91.1519L65.6183 91.1518Z" fill="white"/>
<path d="M22.8283 29.8461C14.9406 36.5667 13.1156 45.0925 15.4702 54.8074C16.9913 61.0832 19.8764 66.4071 25.889 69.3793C21.4464 70.4974 15.6358 67.6053 13.2938 62.7392C9.95023 55.792 9.08667 48.5243 11.5576 41.123C13.262 36.0177 16.8592 32.4389 21.6258 30.0235C21.9643 29.852 22.3086 29.5633 22.8283 29.8461Z" fill="#2EB6AA"/>
<path d="M38.841 65.7376C45.0919 59.6451 47.7893 52.3737 47.2181 43.7532C46.8091 37.581 44.2332 32.8783 38.6129 30.1018C35.9821 28.8022 33.1566 28.011 30.2544 27.5318C31.6564 26.7605 34.9843 26.64 37.3809 27.5851C44.7769 30.5015 49.4888 35.6645 50.6991 43.7612C51.569 49.5806 50.8513 54.9879 47.0627 59.6992C45.0471 62.2058 42.7618 64.4076 39.6517 65.5368C39.3831 65.6343 39.0944 65.6762 38.8411 65.7376L38.841 65.7376Z" fill="#2EB6AA"/>
<path d="M37.139 90.3233C36.6122 90.4527 36.4678 90.2031 36.2931 89.6625C34.6315 84.5215 33.0759 79.3504 31.6623 74.1352C31.3877 73.1222 31.4884 72.5025 32.7317 72.6055C32.9269 72.6216 33.1296 72.5824 33.3253 72.5483C34.0197 72.4274 34.7643 71.6667 35.3463 72.1713C35.7892 72.5553 35.7994 73.4437 35.9945 74.1098C37.3319 78.6769 38.6653 83.2451 40.005 87.8115C40.3784 89.0841 39.0117 90.3008 37.139 90.3232V90.3233Z" fill="#2EB6AA"/>
<path d="M44.6206 93.3913C44.6206 93.5903 44.604 93.791 44.6232 93.9881C44.7772 95.5673 44.3961 96.6723 42.6198 97.1676C41.5695 97.4605 40.7058 98.3752 39.698 98.8926C39.2596 99.1175 39.0311 99.9332 38.2465 99.438C37.3857 98.8946 36.4495 98.3819 36.5192 97.2388C36.5545 96.6591 36.5087 96.3397 36.0271 96.0229C35.2776 95.5296 34.9521 94.8806 35.5119 94.0157C35.9558 93.33 35.305 93.0515 34.9737 92.6682C34.3961 92.0003 34.5962 91.6018 35.4022 91.4602C35.9874 91.3574 36.5843 91.3068 37.1783 91.2715C38.6963 91.1811 39.9779 90.6342 40.8576 89.3497C41.3616 88.6137 42.0051 88.2116 42.8786 88.4865C43.7275 88.7536 44.2807 89.3128 44.4506 90.2713C44.635 91.3118 44.6479 92.3469 44.6207 93.3912L44.6206 93.3913Z" fill="white"/>
<path d="M32.7266 71.7043C31.3765 71.7691 31.655 70.6226 31.6336 70.1256C31.5822 68.9348 32.8397 69.1495 33.4976 69.0298C34.5965 68.8299 34.4255 70.0591 34.4578 70.5846C34.5351 71.8405 33.2338 71.2922 32.7266 71.7043Z" fill="#2EB6AA"/>
<path d="M31.4607 32.1779C35.5338 32.5079 39.4742 36.1164 40.765 40.73C40.9646 41.4433 41.0485 42.1887 41.195 42.9174C41.2809 43.3441 41.5443 43.9353 40.9422 44.0443C40.1764 44.183 40.3353 43.3922 40.2782 42.9864C40.076 41.5468 39.6663 40.1837 39.0176 38.8885C37.4225 35.7039 34.9141 33.7307 31.3787 33.1218C31.0078 33.0579 30.4458 33.1462 30.499 32.5847C30.5477 32.0706 31.0563 32.13 31.4607 32.1779Z" fill="white"/>
<path d="M40.4806 48.8354C40.4806 48.3346 40.4722 48.0389 40.4829 47.7439C40.4936 47.4518 40.4867 47.1078 40.8842 47.0807C41.3653 47.0479 41.416 47.3991 41.4076 47.7723C41.4009 48.0678 41.4558 48.3759 41.3896 48.6563C41.2506 49.2449 41.8097 50.3404 40.8024 50.2884C40.0713 50.2507 40.6874 49.1883 40.4806 48.8354Z" fill="white"/>
<path d="M60.3703 104.06C59.5396 103.971 58.6502 103.846 57.8742 103.367C57.6047 103.201 57.2787 102.927 57.5053 102.519C57.7655 102.051 58.0563 102.313 58.352 102.518C58.9885 102.96 59.7371 103.007 60.4745 103.102C60.8235 103.147 61.4036 102.893 61.4318 103.473C61.4629 104.111 60.8625 104.013 60.3703 104.06Z" fill="#333333"/>
<path d="M61.8532 94.9809C61.8508 95.3546 61.7822 95.6387 61.391 95.6574C61.0227 95.6748 60.8549 95.4462 60.8385 95.1042C60.8233 94.7856 60.8878 94.5019 61.2867 94.4718C61.6862 94.4417 61.7635 94.7417 61.8532 94.981V94.9809Z" fill="#333333"/>
<path d="M128.127 109.445C130.186 104.806 131.384 99.9931 132.792 95.2502C132.998 94.553 133.146 93.8601 133.835 93.4607C134.571 93.0342 134.084 92.4584 133.961 91.9839C133.299 89.4143 132.615 86.8495 131.887 84.2975C131.484 82.8803 131.357 81.4817 132.603 80.4833C133.863 79.4742 135.2 79.9329 136.562 80.8441C136.193 76.5888 135.866 72.4687 135.468 68.3555C135.272 66.3283 135.286 64.2747 134.795 62.2812C134.717 61.967 134.831 61.6907 135.076 61.6801C136.441 61.621 135.793 60.7716 135.759 60.1112C135.714 59.2213 135.14 59.1748 134.493 59.2122C127.927 59.5914 123.953 55.8265 121.618 50.3742C118.196 42.3842 118.205 34.1129 121.32 25.9816C123.814 19.471 128.551 15.4022 135.372 13.7125C137.88 13.0912 140.359 12.4525 142.932 12.8997C146.942 13.5965 149.887 15.9084 151.619 19.5222C154.45 25.4287 154.99 31.6921 153.957 38.119C153.486 41.0505 152.639 43.8966 151.985 46.786C150.661 52.6351 147.054 56.2589 141.464 58.093C139.201 58.8357 138.999 59.7843 140.611 61.6428C140.786 61.8455 140.82 62.2115 140.837 62.5065C141.159 68.0915 141.476 73.6769 141.771 79.2633C141.812 80.0319 141.661 80.8195 142.82 80.8601C143.311 80.8772 143.887 81.3606 143.777 81.7041C143.286 83.2367 144.804 84.55 144.155 86.0572C144.082 86.2278 143.993 86.4754 144.061 86.6107C145.334 89.1223 143.707 90.5222 142.057 91.9171C141.943 92.0141 141.818 92.0992 141.705 92.1989C141.672 92.2282 141.667 92.2882 141.585 92.4925C142.948 92.4796 143.673 93.2299 143.613 94.5158C143.245 102.541 143.245 110.628 139.973 118.208C138.67 121.229 137.12 124.101 134.94 126.591C133.044 128.756 130.818 129.758 127.913 128.407C127.91 131.396 128.209 134.325 127.348 137.25C129.071 137.316 130.716 137.671 132.377 137.887C133.69 138.057 134.368 138.731 134.742 139.925C135.547 142.495 135.713 145.165 135.897 147.812C136.273 153.235 137.015 158.63 137.096 164.188C138.099 163.865 138.69 163.136 139.415 162.63C141.278 161.329 143.224 161.053 145.364 161.876C147.291 162.616 148.782 163.744 149.207 165.878C149.659 168.143 148.646 169.862 147.005 171.279C145.753 172.361 144.297 173.133 142.746 173.665C137.966 175.302 133.085 176.293 127.989 175.847C125.614 175.639 125.386 175.3 124.77 173.018C123.629 168.799 124.555 164.602 124.655 160.399C124.704 158.345 124.762 156.295 124.71 154.24C124.687 153.352 124.356 153.046 123.509 153.161C123.003 153.23 122.487 153.228 121.976 153.271C118.255 153.582 118.292 153.588 117.785 157.339C117.34 160.635 116.703 163.899 115.863 167.118C115.45 168.7 114.751 169.692 112.772 169.879C106.202 170.502 99.6589 171.411 93.1049 172.206C91.1303 172.446 90.9848 172.696 91.978 174.481C92.2706 175.008 92.7071 175.461 93.1165 175.913C94.2291 177.141 94.2594 178.358 93.1538 179.601C92.3063 180.554 91.1939 181.088 89.9867 181.368C88.8939 181.621 87.7685 181.734 86.6569 181.905C84.186 182.285 82.3107 181.31 81.114 179.199C79.1755 175.779 78.7307 172.014 79.3 168.209C79.7745 165.038 82.4519 163.319 85.5236 162.579C91.3874 161.165 97.3468 160.017 102.964 157.682C103.613 157.413 103.694 157.082 103.561 156.517C102.631 152.59 101.99 148.564 100.686 144.766C99.6346 141.705 97.9117 138.875 97.0399 135.697C95.4581 129.931 93.7383 124.199 93.0006 118.241C92.6265 115.22 92.678 112.2 93.5155 109.244C93.6947 108.612 93.8839 107.865 94.3278 107.446C95.8915 105.972 95.4782 104.577 94.4597 103.051C94.0118 102.381 93.7311 101.592 93.4173 100.839C92.5805 98.8299 91.6813 97.0828 89.38 96.1183C87.1404 95.1797 86.1121 92.984 86.0057 90.4895C86.0035 90.4382 85.9883 90.3794 86.0072 90.3365C87.5341 86.8595 86.5065 83.0262 87.6092 79.45C90.1028 71.3636 97.6772 65.3694 105.823 65.1283C110.526 64.9892 114.014 66.9724 116.548 70.7892C118.384 73.5548 119.642 76.549 119.631 79.9546C119.629 80.3104 119.638 80.6397 119.895 80.9592C121.335 82.7471 121.422 84.9324 120.159 86.5312C117.917 89.3696 118.091 92.3951 118.385 95.6187C118.562 97.5683 118.768 99.1615 120.557 100.611C123.536 103.023 125.48 106.475 128.127 109.446L128.127 109.445Z" fill="#333333"/>
<path d="M128.561 71.9361C127.837 74.0512 126.494 75.8958 124.95 77.6096C124.844 77.7271 124.526 77.8045 124.414 77.7326C124.199 77.5943 124.099 77.3025 124.265 77.0567C124.578 76.5919 124.912 76.1399 125.265 75.7045C126.267 74.4681 127.147 73.1634 127.596 71.6154C127.706 71.2337 127.685 70.6986 128.281 70.8807C128.71 71.0119 128.56 71.4752 128.561 71.9361Z" fill="#333333"/>
<path d="M125.488 68.1169C125.514 69.6196 125.034 70.518 124.596 71.427C124.435 71.7609 124.18 72.106 123.785 71.8986C123.504 71.7509 123.556 71.3566 123.683 71.0627C124.16 69.9611 124.893 68.9169 124.352 67.6065C124.311 67.5061 124.502 67.2415 124.646 67.1468C124.92 66.9672 125.09 67.1702 125.248 67.3942C125.503 67.7549 125.488 68.1584 125.488 68.1169Z" fill="#333333"/>
<path d="M128.203 111.592C129.778 108.322 130.908 105.059 131.927 101.754C132.558 99.7063 133.211 97.659 133.701 95.5753C133.96 94.4745 134.596 94.0806 135.568 93.8828C137.541 93.4811 139.534 93.4775 141.535 93.4985C142.335 93.5068 142.689 93.8676 142.663 94.5916C142.28 105.117 141.944 115.655 135.287 124.64C134.704 125.428 134.088 126.176 133.345 126.813C131.451 128.437 129.653 128.493 127.641 127.003C122.804 123.423 119.573 118.562 116.767 113.358C116.619 113.083 116.615 112.54 116.088 112.728C115.677 112.873 115.692 113.242 115.798 113.631C116.072 114.636 116.557 115.542 117.163 116.362C119.296 119.245 121.453 122.109 123.639 124.951C124.07 125.51 124.592 126.113 125.209 126.392C126.6 127.02 126.918 128.118 126.956 129.462C127.013 131.463 127.051 133.45 126.774 135.452C126.586 136.813 125.911 137.57 124.733 138.054C119.507 140.198 114.084 141.578 108.479 142.243C106.446 142.484 104.392 142.595 102.381 142.955C101.189 143.169 100.721 142.652 100.298 141.732C98.5193 137.862 97.4234 133.768 96.378 129.664C95.0394 124.408 93.6316 119.165 93.7606 113.657C93.8712 108.925 95.8038 105.478 100.401 103.843C105.449 102.047 110.561 100.466 115.832 99.4472C116.977 99.2261 117.898 99.584 118.81 100.274C121.518 102.32 123.211 105.258 125.445 107.718C126.472 108.848 127.275 110.147 128.203 111.592H128.203Z" fill="#C5EEF0"/>
<path d="M124.386 34.9859C124.399 29.7974 125.015 24.723 127.991 20.3014C130.369 16.768 133.636 14.6313 138.095 15.2831C141.315 15.7537 143.773 17.6735 144.949 20.6127C149.023 30.7907 150.23 41.0658 145.155 51.3443C143.28 55.1406 139.908 56.8012 136.035 57.6294C134.844 57.8843 133.8 57.0866 132.851 56.3565C128.471 52.9866 126.529 48.204 125.177 43.083C124.477 40.4296 124.551 37.695 124.386 34.9859Z" fill="#C5EEF0"/>
<path d="M99.8349 78.2051C99.8349 79.391 99.8355 80.3008 99.8346 81.2106C99.8342 81.5624 99.7452 81.9667 100.14 82.1608C100.547 82.361 100.958 82.2514 101.268 81.9395C101.88 81.3225 102.496 80.7037 103.053 80.0383C104.319 78.5291 105.55 76.9912 106.955 75.2674C107.028 76.4951 107.045 77.4522 107.157 78.398C107.22 78.9291 107.219 79.5896 107.945 79.7455C108.572 79.88 109.018 79.5135 109.419 79.1029C110.403 78.0952 110.896 76.7868 111.556 75.5801C111.7 75.316 111.858 75.0594 112.066 74.7026C112.354 75.0907 112.668 75.3744 112.81 75.7277C114.545 80.024 116.487 84.2484 116.884 88.9711C117.107 91.6257 117.396 94.2734 117.56 96.9349C117.623 97.9615 117.408 98.3342 116.335 98.492C110.356 99.3711 104.645 101.237 99.0216 103.393C98.8791 103.448 98.7423 103.519 98.6064 103.589C97.0943 104.366 95.9516 103.947 95.1783 102.332C93.3938 98.6014 91.7123 94.8391 90.8298 90.7601C90.5229 89.3419 90.7207 88.3388 91.8371 87.2674C94.6823 84.5369 97.2505 81.5352 99.8349 78.2051Z" fill="white"/>
<path d="M115.822 80.5805C115.106 78.7878 114.452 77.0171 113.686 75.2963C113.363 74.5688 112.922 73.7503 111.942 73.7631C111.014 73.7751 110.991 74.7029 110.634 75.2791C109.919 76.4318 109.546 77.8179 108.309 78.7499C107.855 77.4741 108.07 76.2424 107.976 75.0407C107.935 74.5187 108.23 73.7967 107.496 73.581C106.875 73.3987 106.669 74.0646 106.364 74.4369C104.619 76.5611 102.891 78.6994 100.885 81.1679C100.885 80.049 100.91 79.3593 100.878 78.6722C100.848 78.0308 101.009 77.212 100.216 76.9582C99.4864 76.7244 99.1531 77.4568 98.8032 77.9236C96.4903 81.0097 93.8471 83.803 91.2014 86.5948C90.9546 86.8552 90.7156 87.134 90.4287 87.3431C89.3514 88.128 87.9396 87.5837 87.8685 86.3319C87.348 77.1623 92.9597 68.7916 102.875 66.4532C112.228 64.2475 116.733 70.924 118.402 77.4286C118.491 77.7759 118.555 78.1301 118.619 78.4834C118.788 79.4205 118.823 80.2154 117.439 79.9517C116.813 79.8321 116.298 80.2663 115.822 80.5805Z" fill="#F57105"/>
<path d="M141.771 56.4597C145.341 54.2076 146.712 50.6892 147.943 47.086C150.233 40.3815 149.538 33.6483 148.092 26.9171C147.555 24.4157 146.885 21.9494 145.603 19.7037C143.885 16.6925 141.361 14.7998 137.912 14.2116C142.437 12.6252 147.922 14.7555 150.356 19.1969C153.073 24.1564 153.829 29.5725 153.37 35.1192C152.99 39.7143 151.793 44.1747 150.413 48.5751C149.245 52.2984 146.726 54.7382 143.251 56.3169C142.81 56.5172 142.406 56.6622 141.771 56.4597H141.771Z" fill="#2EB6AA"/>
<path d="M126.749 20.2735C121.748 31.1061 122.169 41.7449 127.862 52.208C129.184 54.6376 131.198 56.3941 133.534 58.0679C129.519 58.4919 126.972 56.3879 124.762 53.7047C122.071 50.4371 120.792 46.574 120.42 42.4211C119.866 36.2324 119.988 30.1139 123.066 24.4526C123.97 22.7896 124.926 21.1552 126.365 19.8739C126.695 19.812 126.832 19.9371 126.749 20.2735Z" fill="#2EB6AA"/>
<path d="M134.303 80.9141C135.312 80.9475 135.9 81.5667 136.171 82.65C136.578 84.2796 137.05 84.4571 138.49 83.5877C139.488 82.9852 140.322 82.1063 141.514 81.8295C141.972 81.723 142.457 81.5661 142.811 81.9525C143.185 82.3605 142.751 82.7045 142.564 83.0367C142.357 83.4065 142.108 83.8126 142.459 84.1504C142.865 84.5402 143.408 84.6054 143.355 85.4958C143.219 87.7892 143.679 90.002 141.019 91.5563C139.288 92.5676 137.522 92.3723 135.822 92.8952C135.316 93.0505 135.139 92.7309 135.014 92.2511C134.242 89.2902 133.387 86.3502 132.649 83.3811C132.294 81.9543 132.993 80.9545 134.303 80.9141Z" fill="white"/>
<path d="M137.712 82.892C137.422 79.6782 137.154 76.7308 136.89 73.783C136.599 70.5229 136.342 67.2595 136.006 64.0041C135.909 63.0602 136.015 62.6683 137.129 62.7219C139.778 62.8495 139.818 62.7836 139.99 65.3648C140.29 69.8579 140.496 74.3575 140.835 78.8473C140.94 80.2438 140.789 81.3094 139.318 81.8614C138.811 82.0516 138.383 82.4519 137.712 82.892Z" fill="#2EB6AA"/>
<path d="M91.2978 95.9639C88.5555 95.0337 86.8871 92.8022 86.9533 90.3141C86.9828 89.2065 87.4659 88.6198 88.5953 88.5303C89.8143 88.4338 89.6406 89.3367 89.7761 90.0554C89.9643 91.0541 90.1478 92.0561 90.401 93.0392C90.6501 94.0067 90.9838 94.9525 91.2978 95.9639Z" fill="white"/>
<path d="M117.88 88.5349C117.389 86.3177 117.205 84.2256 116.479 82.2475C116.135 81.3127 116.757 80.9508 117.579 80.9021C118.807 80.8294 119.809 81.9174 119.93 83.435C120.088 85.4226 119.01 86.8982 117.88 88.5349Z" fill="white"/>
<path d="M138.762 60.4312C138.624 61.0249 139.266 61.8593 138.009 61.86C137.074 61.8605 136.797 61.5686 136.822 60.6531C136.845 59.792 136.76 59.0794 137.969 59.0373C139.413 58.987 138.358 60.0896 138.762 60.4312Z" fill="#2EB6AA"/>
<path d="M126.749 20.2731C126.621 20.1399 126.493 20.0067 126.365 19.8735C126.732 19.2661 127.268 18.8316 128.017 18.5447C127.595 19.1208 127.172 19.697 126.749 20.2731Z" fill="#2EB6AA"/>
<path d="M145.556 31.3088C145.562 31.6891 145.782 32.2387 145.158 32.2523C144.626 32.2639 144.636 31.7191 144.589 31.3215C144.023 26.4719 141.701 22.5825 138.1 19.3877C137.83 19.1488 137.223 18.9766 137.698 18.4809C138.057 18.107 138.462 18.422 138.784 18.6759C139.916 19.5677 140.881 20.6263 141.714 21.7944C143.756 24.6538 145.305 27.7199 145.556 31.309V31.3088Z" fill="white"/>
<path d="M145.785 36.6066C145.721 37.0514 145.967 37.7481 145.321 37.7425C144.419 37.7346 144.867 36.899 144.804 36.4335C144.751 36.0418 144.532 35.3186 145.181 35.3138C146.049 35.3072 145.654 36.1438 145.785 36.6066Z" fill="white"/>
<path d="M105.471 96.9033C104.534 96.6991 103.461 96.8242 102.591 96.1751C102.324 95.976 101.958 95.7222 102.292 95.3044C102.528 95.0072 102.759 95.1559 103.071 95.296C104.969 96.1497 106.818 96.0599 108.586 94.8875C108.887 94.6875 109.249 94.2003 109.623 94.7023C110.056 95.2823 109.453 95.492 109.105 95.734C108.032 96.4809 106.823 96.8304 105.471 96.9032L105.471 96.9033Z" fill="#333333"/>
<path d="M105.716 92.3393C105.557 92.2697 105.396 92.2434 105.303 92.1496C105.091 91.936 105.104 91.6194 105.304 91.4661C106.52 90.5297 105.572 90.1192 104.898 89.6051C104.523 89.32 103.798 89.0447 104.192 88.4828C104.632 87.8558 105.084 88.5503 105.453 88.8084C107.299 90.1012 107.455 90.813 106.19 91.9372C106.04 92.0699 105.885 92.1959 105.716 92.3393Z" fill="#333333"/>
<path d="M99.1051 89.0627C99.4191 89.1308 99.7062 89.2499 99.65 89.6368C99.5877 90.0657 99.3497 90.4382 98.8881 90.4055C98.5991 90.3852 98.3769 90.0769 98.4087 89.7314C98.4461 89.3247 98.7128 89.1201 99.1051 89.0627Z" fill="#333333"/>
<path d="M108.684 86.7805C108.378 86.7869 108.218 86.6035 108.178 86.3331C108.127 85.9863 108.281 85.6943 108.64 85.6963C108.956 85.6981 109.195 85.918 109.166 86.2926C109.144 86.5854 108.959 86.7319 108.684 86.7805Z" fill="#333333"/>
</g>
<defs>
<clipPath id="clip0_1330_7973">
<rect width="168" height="120" fill="white"/>
</clipPath>
</defs>
</svg>
