<svg xmlns="http://www.w3.org/2000/svg" width="23" height="24" viewBox="0 0 23 24"><path d="M8038-5063a2.982,2.982,0,0,1-2.134-.881A2.99,2.99,0,0,1,8035-5066v-1.231a1,1,0,0,1,1-1,1,1,0,0,1,1,1V-5066a.989.989,0,0,0,1,1h13a.988.988,0,0,0,1-1v-1.231a1,1,0,0,1,1-1,1,1,0,0,1,1,1V-5066a2.983,2.983,0,0,1-.867,2.118A2.981,2.981,0,0,1,8051-5063Zm5.777-5.308-4.791-5a1,1,0,0,1,.03-1.415,1,1,0,0,1,1.413.03l3.07,3.2V-5082a1,1,0,0,1,1-1,1,1,0,0,1,1,1v10.51l3.07-3.2a1,1,0,0,1,1.415-.03,1,1,0,0,1,.028,1.415l-4.791,5a1,1,0,0,1-.724.307A1.007,1.007,0,0,1,8043.777-5068.307Z" transform="translate(-8033 5085)" fill="currentColor"/><rect width="23" height="24" fill="none"/></svg>