<svg width="49" height="48" viewBox="0 0 49 48" fill="none" xmlns="http://www.w3.org/2000/svg">
<path d="M24.5 44C35.5457 44 44.5 35.0457 44.5 24C44.5 12.9543 35.5457 4 24.5 4C13.4543 4 4.5 12.9543 4.5 24C4.5 35.0457 13.4543 44 24.5 44Z" fill="white"/>
<path fill-rule="evenodd" clip-rule="evenodd" d="M24.5 5C14.0066 5 5.5 13.5066 5.5 24C5.5 34.4934 14.0066 43 24.5 43C34.9934 43 43.5 34.4934 43.5 24C43.5 13.5066 34.9934 5 24.5 5ZM3.5 24C3.5 12.402 12.902 3 24.5 3C36.098 3 45.5 12.402 45.5 24C45.5 35.598 36.098 45 24.5 45C12.902 45 3.5 35.598 3.5 24Z" fill="#212121"/>
<path fill-rule="evenodd" clip-rule="evenodd" d="M24.5 17.5C23.7813 17.5 23.092 17.7855 22.5837 18.2938C22.0755 18.802 21.79 19.4912 21.79 20.2099V22.316C21.79 23.1444 21.1185 23.816 20.29 23.816C19.4616 23.816 18.79 23.1444 18.79 22.316V20.2099C18.79 18.6956 19.3916 17.2433 20.4624 16.1725C21.5332 15.1017 22.9855 14.5 24.5 14.5C26.0144 14.5 27.4668 15.1017 28.5375 16.1725C29.6083 17.2432 30.21 18.6954 30.21 20.2099L30.21 22.3146C30.21 22.315 30.21 22.3154 30.21 22.3158C30.21 22.3159 30.21 22.3157 30.21 22.3158C30.2103 22.7892 30.1173 23.2582 29.9363 23.6956C29.7551 24.1338 29.4892 24.5315 29.1544 24.8664C28.8192 25.2015 28.4214 25.4672 27.9836 25.6483C27.5458 25.8294 27.0764 25.9224 26.6025 25.922C26.5233 25.9219 26.4447 25.9374 26.3712 25.9678C26.2975 25.9983 26.2308 26.0429 26.1749 26.0988C26.119 26.1547 26.0744 26.2214 26.0439 26.2951C26.0135 26.3686 25.9979 26.4472 25.998 26.5265C25.9988 27.3549 25.3279 28.0271 24.4995 28.0279C23.671 28.0287 22.9988 27.3578 22.998 26.5293C22.9976 26.0553 23.0906 25.5861 23.2717 25.1484C23.4527 24.7108 23.7183 24.3128 24.0536 23.9775C24.3889 23.6422 24.7869 23.3767 25.2245 23.1957C25.6622 23.0146 26.1314 22.9215 26.6054 22.922C26.6848 22.922 26.7635 22.9064 26.8369 22.8761C26.9103 22.8457 26.9769 22.8012 27.033 22.7451C27.0894 22.6887 27.1339 22.622 27.1642 22.5489C27.1945 22.4755 27.2101 22.3968 27.21 22.3174L27.21 20.2099C27.21 19.4913 26.9245 18.8021 26.4162 18.2938C25.908 17.7855 25.2186 17.5 24.5 17.5Z" fill="#118C46"/>
<path d="M26.5 32C26.5 33.1046 25.6046 34 24.5 34C23.3954 34 22.5 33.1046 22.5 32C22.5 30.8954 23.3954 30 24.5 30C25.6046 30 26.5 30.8954 26.5 32Z" fill="#EF7448"/>
</svg>
