<svg width="40" height="40" viewBox="0 0 40 40" fill="none" xmlns="http://www.w3.org/2000/svg">
<path fill-rule="evenodd" clip-rule="evenodd" d="M9.81818 9C8.15243 9 7 10.2709 7 11.6V28.4C7 29.7291 8.15243 31 9.81818 31H30.1818C31.8476 31 33 29.7291 33 28.4V11.6C33 10.2709 31.8476 9 30.1818 9H9.81818ZM9.81818 6C6.60468 6 4 8.507 4 11.6V28.4C4 31.493 6.60468 34 9.81818 34H30.1818C33.3953 34 36 31.493 36 28.4V11.6C36 8.507 33.3953 6 30.1818 6H9.81818Z" fill="#0099D9"/>
<path fill-rule="evenodd" clip-rule="evenodd" d="M23 16V24H27V16H23ZM22 13C20.8954 13 20 13.8954 20 15V25C20 26.1046 20.8954 27 22 27H28C29.1046 27 30 26.1046 30 25V15C30 13.8954 29.1046 13 28 13H22Z" fill="#F74F4F"/>
<path d="M10 14.5C10 13.6716 10.6716 13 11.5 13H15.5C16.3284 13 17 13.6716 17 14.5V14.5C17 15.3284 16.3284 16 15.5 16H11.5C10.6716 16 10 15.3284 10 14.5V14.5Z" fill="#0099D9"/>
<path d="M10 20.5C10 19.6716 10.6716 19 11.5 19H15.5C16.3284 19 17 19.6716 17 20.5V20.5C17 21.3284 16.3284 22 15.5 22H11.5C10.6716 22 10 21.3284 10 20.5V20.5Z" fill="#0099D9"/>
<path d="M10 25.5C10 24.6716 10.6716 24 11.5 24H13.5C14.3284 24 15 24.6716 15 25.5V25.5C15 26.3284 14.3284 27 13.5 27H11.5C10.6716 27 10 26.3284 10 25.5V25.5Z" fill="#0099D9"/>
</svg>
