<svg xmlns="http://www.w3.org/2000/svg" width="24" height="24" viewBox="0 0 24 24"><path d="M9165.223-5064.222A10.921,10.921,0,0,1,9162-5072a10.922,10.922,0,0,1,3.223-7.777A10.919,10.919,0,0,1,9173-5083a10.927,10.927,0,0,1,7.779,3.222A10.93,10.93,0,0,1,9184-5072a10.929,10.929,0,0,1-3.223,7.779A10.926,10.926,0,0,1,9173-5061,10.917,10.917,0,0,1,9165.223-5064.222ZM9164-5072a9.01,9.01,0,0,0,9,9,9.011,9.011,0,0,0,9-9,9.009,9.009,0,0,0-9-9A9.007,9.007,0,0,0,9164-5072Zm8,4.322v-.111a1,1,0,0,1,1-1,1,1,0,0,1,1,1v.111a1,1,0,0,1-1,1A1,1,0,0,1,9172-5067.679Zm0-3.269a2.055,2.055,0,0,1,2.054-2.051.05.05,0,0,0,.051-.053v-1.054a1.1,1.1,0,0,0-1.1-1.1,1.105,1.105,0,0,0-1.1,1.1v1.054a1,1,0,0,1-1,1,1,1,0,0,1-1-1v-1.054a3.108,3.108,0,0,1,3.1-3.1,3.108,3.108,0,0,1,3.105,3.1v1.054a2.053,2.053,0,0,1-2.052,2.051.052.052,0,0,0-.053.053,1,1,0,0,1-1,1A1,1,0,0,1,9172-5070.948Z" transform="translate(-9161 5084)" fill="currentColor"/><rect width="24" height="24" fill="none"/></svg>