<svg xmlns="http://www.w3.org/2000/svg" width="24" height="24" viewBox="0 0 24 24"><path d="M8199-5063a3,3,0,0,1-3-3v-3a3,3,0,0,1,3-3h3a3,3,0,0,1,3,3v3a3,3,0,0,1-3,3Zm-1-6v3a1,1,0,0,0,1,1h3a1,1,0,0,0,1-1v-3a1,1,0,0,0-1-1h-3A1,1,0,0,0,8198-5069Zm10,5a1,1,0,0,1-1-1,1,1,0,0,1,1-1h7a1,1,0,0,1,1,1,1,1,0,0,1-1,1Zm0-5a1,1,0,0,1-1-1,1,1,0,0,1,1-1h7a1,1,0,0,1,1,1,1,1,0,0,1-1,1Zm-9-5a3,3,0,0,1-3-3v-3a3,3,0,0,1,3-3h3a3,3,0,0,1,3,3v3a3,3,0,0,1-3,3Zm-1-6v3a1,1,0,0,0,1,1h3a1,1,0,0,0,1-1v-3a1,1,0,0,0-1-1h-3A1,1,0,0,0,8198-5080Zm10,5a1,1,0,0,1-1-1,1,1,0,0,1,1-1h7a1,1,0,0,1,1,1,1,1,0,0,1-1,1Zm0-5a1,1,0,0,1-1-1,1,1,0,0,1,1-1h7a1,1,0,0,1,1,1,1,1,0,0,1-1,1Z" transform="translate(-8194 5085)" fill="currentColor"/><rect width="24" height="24" fill="none"/></svg>