<svg xmlns="http://www.w3.org/2000/svg" width="40" height="40" viewBox="0 0 40 40"><g transform="translate(22653 6097)"><rect width="40" height="40" transform="translate(-22653 -6097)" fill="none"/><g transform="translate(-22649.248 -6089.916)"><path d="M5.5-.75h20A6.257,6.257,0,0,1,31.75,5.5V19.875a6.257,6.257,0,0,1-6.25,6.25H5.5a6.257,6.257,0,0,1-6.25-6.25V5.5A6.257,6.257,0,0,1,5.5-.75Zm20,24.375a3.754,3.754,0,0,0,3.75-3.75V5.5A3.754,3.754,0,0,0,25.5,1.75H5.5A3.754,3.754,0,0,0,1.75,5.5V19.875a3.754,3.754,0,0,0,3.75,3.75Z" transform="translate(0.75 0.75)" fill="#2f66d0"/><path d="M5291.855,997.293a6.9,6.9,0,0,1-5.018-2.174l-9.788-10.45a1.25,1.25,0,1,1,1.824-1.709l9.788,10.449a4.377,4.377,0,0,0,6.387,0l9.788-10.449a1.25,1.25,0,1,1,1.824,1.709l-9.788,10.45A6.9,6.9,0,0,1,5291.855,997.293Z" transform="translate(-5275.606 -979.792)" fill="#2f66d0"/><path d="M9.119,10.445-.517,1.267,1.207-.543l9.636,9.178Z" transform="translate(20.07 15.054)" fill="#2f66d0"/><path d="M1.207,10.445-.517,8.635,9.115-.543l1.725,1.81Z" transform="translate(2.105 15.054)" fill="#2f66d0"/></g></g><circle cx="6" cy="6" r="6" transform="translate(27 4)" fill="#f74f4f"/></svg>