<svg xmlns="http://www.w3.org/2000/svg" width="24" height="24" viewBox="0 0 24 24"><path d="M8083-5063a1,1,0,0,1-1-1,1,1,0,0,1,1-1h8.034a.966.966,0,0,0,.965-.967V-5074a1,1,0,0,1,1-1,1,1,0,0,1,1,1v8.034a2.969,2.969,0,0,1-2.965,2.966Zm-6-4a3,3,0,0,1-3-3v-10a3,3,0,0,1,3-3h10a3,3,0,0,1,3,3v10a3,3,0,0,1-3,3Zm-1-13v10a1,1,0,0,0,1,1h10a1,1,0,0,0,1-1v-10a1,1,0,0,0-1-1h-10A1,1,0,0,0,8076-5080Zm5,8v-2h-2a1,1,0,0,1-1-1,1,1,0,0,1,1-1h2v-2a1,1,0,0,1,1-1,1,1,0,0,1,1,1v2h2a1,1,0,0,1,1,1,1,1,0,0,1-1,1h-2v2a1,1,0,0,1-1,1A1,1,0,0,1,8081-5072Z" transform="translate(-8072 5085)" fill="currentColor"/><rect width="24" height="24" fill="none"/></svg>