<!-- <svg xmlns="http://www.w3.org/2000/svg" xmlns:xlink="http://www.w3.org/1999/xlink" width="40" height="40" viewBox="0 0 40 40"><defs><clipPath id="a"><rect width="40" height="40" fill="currentColor"/></clipPath></defs><g clip-path="url(#a)"><path d="M20,0A20,20,0,1,0,40,20,20.023,20.023,0,0,0,20,0" fill="currentColor"/><path d="M13,4a6,6,0,1,0,6,6,6.007,6.007,0,0,0-6-6" transform="translate(7 4)" fill="currentColor"/><path d="M16.024,12A12.108,12.108,0,0,0,3.976,24a20.128,20.128,0,0,0,24.1,0A12.108,12.108,0,0,0,16.024,12" transform="translate(3.976 12)" fill="currentColor"/></g></svg> -->


<svg xmlns="http://www.w3.org/2000/svg" xmlns:xlink="http://www.w3.org/1999/xlink" width="40" height="40" viewBox="0 0 40 40"><defs><clipPath id="a"><rect width="40" height="40" fill="#2f66d0"/></clipPath></defs><g clip-path="url(#a)"><path d="M20,0A20,20,0,1,0,40,20,20.023,20.023,0,0,0,20,0" fill="#ccebff"/><path d="M13,4a6,6,0,1,0,6,6,6.007,6.007,0,0,0-6-6" transform="translate(7 4)" fill="#2f66d0"/><path d="M16.024,12A12.108,12.108,0,0,0,3.976,24a20.128,20.128,0,0,0,24.1,0A12.108,12.108,0,0,0,16.024,12" transform="translate(3.976 12)" fill="#2f66d0"/></g></svg>