<svg xmlns="http://www.w3.org/2000/svg" width="24" height="24" viewBox="0 0 24 24"><rect width="24" height="24" fill="none"/><path d="M8859.5-5107.6a4.005,4.005,0,0,1-4-4v-7.5a.987.987,0,0,1-.5.134.994.994,0,0,1-.786-.383,1,1,0,0,1,.167-1.4l8.648-6.789a3.986,3.986,0,0,1,4.939,0l8.648,6.789a1,1,0,0,1,.167,1.4,1,1,0,0,1-1.285.249v7.5a4.005,4.005,0,0,1-4,4Zm-2-4a2,2,0,0,0,2,2h12a2,2,0,0,0,2-2v-9.062l-6.764-5.311a1.992,1.992,0,0,0-2.471,0l-6.764,5.309Zm10-1a2,2,0,0,1-2-2v-2a2,2,0,0,1,2-2h2a2,2,0,0,1,2,2v2a2,2,0,0,1-2,2Zm0-2h2v-2h-2Z" transform="translate(-8853.5 5129.998)" fill="currentColor"/></svg>