<svg xmlns="http://www.w3.org/2000/svg" width="24" height="24" viewBox="0 0 24 24"><path d="M0,0H24V24H0Z" fill="none"/><g transform="translate(3 3)"><path d="M7.293,6.765l-6.219.9,4.5,4.386L4.512,18.249l5.562-2.924,5.563,2.924-1.062-6.193,4.5-4.386-6.219-.9L10.074,1.13Z" transform="translate(-1.074 -1.13)" fill="currentColor"/><path d="M10.074.13a1,1,0,0,1,.9.557L13.52,5.851l5.7.829a1,1,0,0,1,.554,1.706L15.649,12.4l.973,5.675a1,1,0,0,1-1.451,1.054l-5.1-2.68-5.1,2.68A1,1,0,0,1,3.527,18.08L4.5,12.4.376,8.385A1,1,0,0,1,.931,6.679l5.7-.829L9.177.687A1,1,0,0,1,10.074.13Zm6.852,8.237-4.214-.613a1,1,0,0,1-.753-.547L10.074,3.389,8.19,7.207a1,1,0,0,1-.753.547l-4.214.613,3.049,2.972a1,1,0,0,1,.288.885l-.72,4.2,3.768-1.981a1,1,0,0,1,.931,0l3.769,1.982-.72-4.2a1,1,0,0,1,.288-.885Z" transform="translate(-1.074 -1.13)" fill="currentColor"/></g></svg>