<svg width="40" height="40" viewBox="0 0 40 40" fill="none" xmlns="http://www.w3.org/2000/svg">
<path d="M34 16.5H6C5.77011 16.4997 5.54243 16.5448 5.32999 16.6327C5.11756 16.7205 4.92453 16.8494 4.76198 17.012C4.59942 17.1745 4.47053 17.3676 4.38268 17.58C4.29482 17.7924 4.24974 18.0201 4.25 18.25V32.25C4.24974 32.4799 4.29482 32.7076 4.38268 32.92C4.47053 33.1324 4.59942 33.3255 4.76198 33.488C4.92453 33.6506 5.11756 33.7795 5.32999 33.8673C5.54243 33.9552 5.77011 34.0003 6 34H34C34.2299 34.0003 34.4576 33.9552 34.67 33.8673C34.8824 33.7795 35.0755 33.6506 35.238 33.488C35.4006 33.3255 35.5295 33.1324 35.6173 32.92C35.7052 32.7076 35.7503 32.4799 35.75 32.25V18.25C35.7503 18.0201 35.7052 17.7924 35.6173 17.58C35.5295 17.3676 35.4006 17.1745 35.238 17.012C35.0755 16.8494 34.8824 16.7205 34.67 16.6327C34.4576 16.5448 34.2299 16.4997 34 16.5Z" fill="#C2EDFF"/>
<path d="M27 16.5H13V34H27V16.5Z" fill="#0099D9"/>
<path d="M21.75 23.5C21.75 23.8461 21.6474 24.1845 21.4551 24.4722C21.2628 24.76 20.9895 24.9843 20.6697 25.1168C20.3499 25.2492 19.9981 25.2839 19.6586 25.2164C19.3191 25.1489 19.0073 24.9822 18.7626 24.7374C18.5178 24.4927 18.3512 24.1809 18.2836 23.8414C18.2161 23.5019 18.2508 23.1501 18.3832 22.8303C18.5157 22.5105 18.74 22.2372 19.0278 22.0449C19.3155 21.8526 19.6539 21.75 20 21.75C20.464 21.7503 20.909 21.9347 21.2371 22.2629C21.5653 22.591 21.7497 23.036 21.75 23.5Z" fill="#C2EDFF"/>
<path d="M37.376 17.601L33.876 8.851C33.7461 8.52598 33.5217 8.24737 33.2319 8.05111C32.942 7.85486 32.6 7.74998 32.25 7.75H7.75C7.40037 7.75003 7.05877 7.85484 6.76929 8.05092C6.47981 8.24699 6.25574 8.52533 6.126 8.85L2.626 17.6C2.51974 17.8656 2.48022 18.1533 2.5109 18.4377C2.54159 18.7221 2.64154 18.9947 2.80201 19.2316C2.96247 19.4684 3.17856 19.6623 3.43135 19.7963C3.68413 19.9302 3.96591 20.0002 4.252 20H35.752C36.0381 20.0002 36.3199 19.9302 36.5727 19.7963C36.8254 19.6623 37.0415 19.4684 37.202 19.2316C37.3625 18.9947 37.4624 18.7221 37.4931 18.4377C37.5238 18.1533 37.4843 17.8656 37.378 17.6" fill="#0099D9"/>
<path d="M28.456 17.2699L21.456 6.7329C21.2875 6.50541 21.068 6.32057 20.8151 6.19321C20.5623 6.06585 20.2831 5.99951 20 5.99951C19.7169 5.99951 19.4377 6.06585 19.1849 6.19321C18.932 6.32057 18.7125 6.50541 18.544 6.7329L11.544 17.2699C11.368 17.534 11.2668 17.8409 11.2512 18.1579C11.2357 18.4749 11.3063 18.7902 11.4557 19.0703C11.6051 19.3503 11.8275 19.5847 12.0995 19.7483C12.3714 19.912 12.6826 19.999 13 19.9999H27C27.3174 19.999 27.6286 19.912 27.9005 19.7483C28.1725 19.5847 28.3949 19.3503 28.5443 19.0703C28.6937 18.7902 28.7643 18.4749 28.7488 18.1579C28.7332 17.8409 28.6321 17.534 28.456 17.2699Z" fill="#C2EDFF"/>
</svg>
