<svg xmlns="http://www.w3.org/2000/svg" width="24" height="24" viewBox="0 0 24 24"><g transform="translate(-1 -1)"><path d="M9648.581-5059.091a1,1,0,0,1-.582-.91v-12.777a3.2,3.2,0,0,1,3.167-3.22H9655v-2.5a3.438,3.438,0,0,1,3.364-3.5h8.271a3.439,3.439,0,0,1,3.366,3.5v11.5a1,1,0,0,1-.561.9,1.015,1.015,0,0,1-.439.1,1,1,0,0,1-.614-.209l-3.273-2.541H9663V-5065a3.2,3.2,0,0,1-3.167,3.221h-7.213l-2.97,2.539a1,1,0,0,1-.648.238A1.018,1.018,0,0,1,9648.581-5059.091Zm1.42-13.687v10.608l1.6-1.367a1,1,0,0,1,.65-.24h7.581A1.2,1.2,0,0,0,9661-5065v-7.78a1.2,1.2,0,0,0-1.167-1.221h-8.666A1.2,1.2,0,0,0,9650-5072.778Zm15.454,2.029a1,1,0,0,1,.611.208l1.935,1.5v-9.46a1.441,1.441,0,0,0-1.366-1.5h-8.271a1.439,1.439,0,0,0-1.364,1.5v2.5h2.832a3.2,3.2,0,0,1,3.167,3.22v2.029ZM9654-5066a1,1,0,0,1-1-1,1,1,0,0,1,1-1h3a1,1,0,0,1,1,1,1,1,0,0,1-1,1Zm0-4a1,1,0,0,1-1-1,1,1,0,0,1,1-1h3a1,1,0,0,1,1,1,1,1,0,0,1-1,1Z" transform="translate(-9646 5084)" fill="currentColor"/></g><rect width="24" height="24" fill="none"/></svg>