<svg xmlns="http://www.w3.org/2000/svg" width="24" height="24" viewBox="0 0 24 24"><g transform="translate(2 1)"><path d="M9529-5062.366l-3.581-2.361a9.855,9.855,0,0,1-2.536.328,9.874,9.874,0,0,1-6.988-2.866,9.687,9.687,0,0,1-2.9-6.933,9.688,9.688,0,0,1,2.9-6.936,9.876,9.876,0,0,1,6.988-2.866,9.874,9.874,0,0,1,6.99,2.866,9.689,9.689,0,0,1,2.9,6.936,9.769,9.769,0,0,1-2.816,6.842l.584,4.015a1,1,0,0,1-.455.985.978.978,0,0,1-.535.156A1,1,0,0,1,9529-5062.366Zm-2.866-4.287,2.108,1.392-.338-2.316a1,1,0,0,1,.318-.885,7.769,7.769,0,0,0,2.551-5.737,7.855,7.855,0,0,0-7.891-7.8,7.854,7.854,0,0,0-7.888,7.8,7.853,7.853,0,0,0,7.888,7.8,7.79,7.79,0,0,0,2.395-.371,1.031,1.031,0,0,1,.307-.048A1.006,1.006,0,0,1,9526.139-5066.653Zm-4.251-3.036v-.11a1,1,0,0,1,1-1,1,1,0,0,1,1,1v.11a1,1,0,0,1-1,1A1,1,0,0,1,9521.888-5069.689Zm0-3.412a2.107,2.107,0,0,1,2.112-2.1.107.107,0,0,0,.11-.1v-1.1a1.212,1.212,0,0,0-1.223-1.2,1.212,1.212,0,0,0-1.223,1.2v1.1a1,1,0,0,1-1,1,1,1,0,0,1-1-1v-1.1a3.217,3.217,0,0,1,3.223-3.2,3.216,3.216,0,0,1,3.223,3.2v1.1a2.108,2.108,0,0,1-2.11,2.1.105.105,0,0,0-.112.1,1,1,0,0,1-1,1A1,1,0,0,1,9521.888-5073.1Z" transform="translate(-9512.889 5084.1)" fill="currentColor"/></g><rect width="24" height="24" fill="none"/></svg>