<svg width="40" height="40" viewBox="0 0 40 40" fill="none" xmlns="http://www.w3.org/2000/svg">
<path fill-rule="evenodd" clip-rule="evenodd" d="M10 9H30C30.9305 9 31.762 9.42361 32.3123 10.0885L23.2373 19.4876C21.4681 21.32 18.5319 21.32 16.7627 19.4876L7.68773 10.0885C8.23799 9.42361 9.06953 9 10 9ZM7 13.6953V28C7 28.2688 7.03534 28.5293 7.10164 28.7771L14.4586 21.4202L7 13.6953ZM10 31C9.73129 31 9.47083 30.9647 9.22302 30.8984L16.9191 23.2024C18.8729 24.0818 21.1273 24.0817 23.0811 23.2023L30.7772 30.8984C30.5293 30.9647 30.2688 31 30 31H10ZM32.8984 28.777C32.9647 28.5292 33 28.2687 33 28V13.6953L25.5415 21.4201L32.8984 28.777ZM4 12C4 8.68629 6.68629 6 10 6H30C33.3137 6 36 8.68629 36 12V28C36 31.3137 33.3137 34 30 34H10C6.68629 34 4 31.3137 4 28V12Z" fill="#0099D9"/>
<path d="M33 16C36.3137 16 39 13.3137 39 10C39 6.68629 36.3137 4 33 4C29.6863 4 27 6.68629 27 10C27 13.3137 29.6863 16 33 16Z" fill="#F74F4F"/>
</svg>
