<svg xmlns="http://www.w3.org/2000/svg" width="24" height="24" viewBox="0 0 24 24"><path d="M8875-5065v-4.8a2.121,2.121,0,0,0-2.027-2.2h-.944a2.121,2.121,0,0,0-2.027,2.2v4.8a1,1,0,0,1-1,1,1,1,0,0,1-1-1v-4.8a2.121,2.121,0,0,0-2.027-2.2h-.944a2.121,2.121,0,0,0-2.027,2.2v4.8a1,1,0,0,1-1,1,1,1,0,0,1-1-1v-4.8a2.121,2.121,0,0,0-2.027-2.2h-.945a2.121,2.121,0,0,0-2.027,2.2v4.8a1,1,0,0,1-1,1,1,1,0,0,1-1-1v-4.8a4.122,4.122,0,0,1,4.027-4.2h.945a3.952,3.952,0,0,1,3.027,1.433,3.951,3.951,0,0,1,3.027-1.433h.944a3.953,3.953,0,0,1,3.028,1.433,3.951,3.951,0,0,1,3.027-1.433h.944a4.122,4.122,0,0,1,4.028,4.2v4.8a1,1,0,0,1-1,1A1,1,0,0,1,8875-5065Zm-5.77-14.715A3.283,3.283,0,0,1,8872.5-5083a3.284,3.284,0,0,1,3.272,3.286,3.282,3.282,0,0,1-3.272,3.286A3.281,3.281,0,0,1,8869.229-5079.715Zm2,0a1.278,1.278,0,0,0,1.271,1.285,1.279,1.279,0,0,0,1.271-1.285A1.28,1.28,0,0,0,8872.5-5081,1.28,1.28,0,0,0,8871.229-5079.715Zm-9,0A3.282,3.282,0,0,1,8865.5-5083a3.283,3.283,0,0,1,3.272,3.286,3.281,3.281,0,0,1-3.272,3.286A3.28,3.28,0,0,1,8862.229-5079.715Zm2,0a1.278,1.278,0,0,0,1.271,1.285,1.279,1.279,0,0,0,1.271-1.285A1.28,1.28,0,0,0,8865.5-5081,1.28,1.28,0,0,0,8864.229-5079.715Zm-9,0A3.282,3.282,0,0,1,8858.5-5083a3.282,3.282,0,0,1,3.271,3.286,3.28,3.28,0,0,1-3.271,3.286A3.28,3.28,0,0,1,8855.229-5079.715Zm2,0a1.278,1.278,0,0,0,1.27,1.285,1.279,1.279,0,0,0,1.272-1.285A1.28,1.28,0,0,0,8858.5-5081,1.28,1.28,0,0,0,8857.23-5079.715Z" transform="translate(-8853.5 5086)" fill="currentColor"/><rect width="24" height="24" fill="none"/></svg>