<svg xmlns="http://www.w3.org/2000/svg" width="24" height="24" viewBox="0 0 24 24"><rect width="24" height="24" fill="none"/><path d="M10315.75-5733.5a2.752,2.752,0,0,1-2.749-2.751v-4a2.752,2.752,0,0,1,2.749-2.749h4a2.752,2.752,0,0,1,2.751,2.749v4a2.753,2.753,0,0,1-2.751,2.751Z" transform="translate(-10311.25 5750.25)" fill="#currentColor"/><path d="M2-.75H6A2.753,2.753,0,0,1,8.75,2V6A2.753,2.753,0,0,1,6,8.75H2A2.753,2.753,0,0,1-.75,6V2A2.753,2.753,0,0,1,2-.75Zm4,8A1.251,1.251,0,0,0,7.25,6V2A1.251,1.251,0,0,0,6,.75H2A1.251,1.251,0,0,0,.75,2V6A1.251,1.251,0,0,0,2,7.25Z" transform="translate(13.5 8)" fill="#currentColor"/></svg>