<svg width="40" height="40" viewBox="0 0 40 40" fill="none" xmlns="http://www.w3.org/2000/svg">
<mask id="mask0_296_2459" style="mask-type:luminance" maskUnits="userSpaceOnUse" x="5" y="5" width="30" height="30">
<path d="M35 5H5V35H35V5Z" fill="white"/>
</mask>
<g mask="url(#mask0_296_2459)">
<path d="M30 30H10C9.78109 30 9.56432 29.9569 9.36207 29.8731C9.15982 29.7893 8.97606 29.6665 8.82126 29.5117C8.66647 29.357 8.54368 29.1732 8.4599 28.9709C8.37613 28.7687 8.33301 28.5519 8.33301 28.333V8.333C8.33407 7.44936 8.68556 6.60221 9.31039 5.97738C9.93522 5.35255 10.7824 5.00106 11.666 5H28.333C29.2167 5.00106 30.0638 5.35255 30.6886 5.97738C31.3135 6.60221 31.6649 7.44936 31.666 8.333V28.333C31.666 28.7749 31.4905 29.1988 31.1781 29.5114C30.8657 29.824 30.4419 29.9997 30 30Z" fill="#C2EDFF"/>
<path d="M23.333 13.333H16.667C16.2321 13.3224 15.8186 13.1421 15.5147 12.8307C15.2109 12.5194 15.0408 12.1016 15.0408 11.6665C15.0408 11.2315 15.2109 10.8137 15.5147 10.5023C15.8186 10.1909 16.2321 10.0107 16.667 10H23.334C23.5563 9.99457 23.7774 10.0336 23.9844 10.1149C24.1913 10.1962 24.3799 10.3181 24.5391 10.4734C24.6982 10.6287 24.8247 10.8143 24.911 11.0192C24.9974 11.2241 25.0418 11.4442 25.0418 11.6665C25.0418 11.8889 24.9974 12.109 24.911 12.3139C24.8247 12.5188 24.6982 12.7043 24.5391 12.8596C24.3799 13.0149 24.1913 13.1368 23.9844 13.2181C23.7774 13.2994 23.5553 13.3385 23.333 13.333Z" fill="#0099D9"/>
<path d="M23.333 18.333H16.667C16.2321 18.3224 15.8186 18.1421 15.5147 17.8307C15.2109 17.5194 15.0408 17.1016 15.0408 16.6665C15.0408 16.2315 15.2109 15.8137 15.5147 15.5023C15.8186 15.1909 16.2321 15.0107 16.667 15H23.334C23.5563 14.9946 23.7774 15.0336 23.9844 15.1149C24.1913 15.1962 24.3799 15.3181 24.5391 15.4734C24.6982 15.6287 24.8247 15.8143 24.911 16.0192C24.9974 16.2241 25.0418 16.4442 25.0418 16.6665C25.0418 16.8889 24.9974 17.109 24.911 17.3139C24.8247 17.5188 24.6982 17.7043 24.5391 17.8596C24.3799 18.0149 24.1913 18.1368 23.9844 18.2181C23.7774 18.2994 23.5553 18.3385 23.333 18.333Z" fill="#0099D9"/>
<path d="M30 35.0001H10C8.67441 34.9985 7.40356 34.4712 6.46622 33.5338C5.52888 32.5965 5.00159 31.3257 5 30.0001L5 18.3341C4.99999 18.0365 5.0796 17.7444 5.23058 17.4881C5.38156 17.2317 5.5984 17.0204 5.8586 16.8761C6.1188 16.7318 6.41287 16.6598 6.71029 16.6676C7.00771 16.6753 7.29764 16.7625 7.55 16.9201L20 24.7021L32.45 16.9201C32.7024 16.7625 32.9923 16.6753 33.2897 16.6676C33.5871 16.6598 33.8812 16.7318 34.1414 16.8761C34.4016 17.0204 34.6184 17.2317 34.7694 17.4881C34.9204 17.7444 35 18.0365 35 18.3341V30.0001C34.9984 31.3257 34.4711 32.5965 33.5338 33.5338C32.5964 34.4712 31.3256 34.9985 30 35.0001Z" fill="#0099D9"/>
</g>
</svg>
