<svg xmlns="http://www.w3.org/2000/svg" width="24" height="24" viewBox="0 0 24 24"><path d="M1.06-8.3a.763.763,0,0,0-.276.58.912.912,0,0,0,.88.852.9.9,0,0,0,.57-.239L3.373-8.132a.148.148,0,0,1,.1-.051c.086,0,.086.153.086.153V.033A.761.761,0,0,0,4.426.8.761.761,0,0,0,5.289.033V-10.331A.778.778,0,0,0,4.5-11.2a1.156,1.156,0,0,0-.811.375ZM13.419.732a.719.719,0,0,0,.777-.8.732.732,0,0,0-.777-.818H9.587c-.052,0-.155,0-.155-.085a.7.7,0,0,1,.035-.153,5.723,5.723,0,0,1,1.346-1.722l1.881-1.79a4.191,4.191,0,0,0,1.519-3.17A3.246,3.246,0,0,0,10.692-11.2a3.936,3.936,0,0,0-2.883,1.159,1.155,1.155,0,0,0-.414.716.9.9,0,0,0,.9.835.681.681,0,0,0,.535-.222,2.476,2.476,0,0,1,1.864-.869,1.607,1.607,0,0,1,1.726,1.807,2.618,2.618,0,0,1-1,1.943l-2,1.926A6.43,6.43,0,0,0,7.171-.069c0,.426.1.8.967.8ZM18.7-6.155a.69.69,0,0,0-.759.767.678.678,0,0,0,.759.75h.173a1.833,1.833,0,0,1,1.951,1.909A1.833,1.833,0,0,1,18.874-.819a2.636,2.636,0,0,1-1.968-.92.717.717,0,0,0-.552-.273,1.04,1.04,0,0,0-.932.869A.957.957,0,0,0,15.68-.6,3.946,3.946,0,0,0,18.874.8,3.439,3.439,0,0,0,22.6-2.728a2.978,2.978,0,0,0-1.381-2.506.154.154,0,0,1-.069-.136.154.154,0,0,1,.069-.136,2.84,2.84,0,0,0,1.157-2.352,3.2,3.2,0,0,0-3.5-3.341,3.936,3.936,0,0,0-2.883,1.159,1.154,1.154,0,0,0-.414.716.9.9,0,0,0,.9.835.681.681,0,0,0,.535-.222,2.476,2.476,0,0,1,1.864-.869A1.608,1.608,0,0,1,20.6-7.859a1.6,1.6,0,0,1-1.726,1.7Z" transform="translate(0.216 17.2)" fill="currentColor"/><rect width="24" height="24" fill="none"/></svg>