<svg xmlns="http://www.w3.org/2000/svg" width="80" height="80" viewBox="0 0 80 80"><rect width="80" height="80" fill="none"/><path d="M10427.886-5552a33.783,33.783,0,0,1-13.234-2.672,33.884,33.884,0,0,1-10.809-7.287,33.906,33.906,0,0,1-7.286-10.808,33.808,33.808,0,0,1-2.672-13.235,33.8,33.8,0,0,1,2.672-13.234,33.885,33.885,0,0,1,7.286-10.807,33.9,33.9,0,0,1,10.809-7.287,33.8,33.8,0,0,1,13.234-2.671,33.79,33.79,0,0,1,13.233,2.671,33.883,33.883,0,0,1,10.808,7.287,33.875,33.875,0,0,1,7.286,10.807,33.8,33.8,0,0,1,2.672,13.234,33.808,33.808,0,0,1-2.672,13.235,33.9,33.9,0,0,1-7.286,10.808,33.879,33.879,0,0,1-10.808,7.287A33.782,33.782,0,0,1,10427.886-5552Zm-11.334-35.955a2.686,2.686,0,0,0-1.844.714,2.411,2.411,0,0,0-.782,1.77,2.4,2.4,0,0,0,.782,1.767l7.084,6.608a2.682,2.682,0,0,0,1.843.717,2.683,2.683,0,0,0,1.844-.717l15.583-14.541a2.4,2.4,0,0,0,.782-1.767,2.4,2.4,0,0,0-.782-1.767,2.686,2.686,0,0,0-1.844-.714,2.682,2.682,0,0,0-1.843.714l-13.74,12.818-5.24-4.889A2.682,2.682,0,0,0,10416.552-5587.954Z" transform="translate(-10387.885 5626)" fill="#currentColor"/></svg>