<svg xmlns="http://www.w3.org/2000/svg" width="24" height="24" viewBox="0 0 24 24"><path d="M8330.687-5061.356a1,1,0,0,1-.455-.987l.583-4.014A9.769,9.769,0,0,1,8328-5073.2a9.688,9.688,0,0,1,2.9-6.935,9.866,9.866,0,0,1,6.988-2.866,9.953,9.953,0,0,1,5.592,1.718,2.609,2.609,0,0,1,1.569-.518,2.6,2.6,0,0,1,1.846.758,2.581,2.581,0,0,1,.771,1.844,2.576,2.576,0,0,1-.771,1.841,0,0,0,0,1,0,0l-.031.03a9.529,9.529,0,0,1,.917,4.122,9.689,9.689,0,0,1-2.9,6.935,9.87,9.87,0,0,1-6.989,2.866,9.875,9.875,0,0,1-2.537-.329l-3.578,2.363a1.01,1.01,0,0,1-.551.166A.993.993,0,0,1,8330.687-5061.356ZM8330-5073.2a7.777,7.777,0,0,0,2.552,5.738,1,1,0,0,1,.316.884l-.335,2.315,2.105-1.391a1.008,1.008,0,0,1,.856-.118,7.755,7.755,0,0,0,2.395.371,7.853,7.853,0,0,0,7.888-7.8,7.617,7.617,0,0,0-.454-2.619l-3.514,3.434a1,1,0,0,1-.7.285h-2.223a1,1,0,0,1-1-1v-2.2a1,1,0,0,1,.292-.706l3.831-3.842a7.952,7.952,0,0,0-4.123-1.15A7.855,7.855,0,0,0,8330-5073.2Zm9.889-1.687v.786h.815l4.789-4.678a.587.587,0,0,0,.174-.419.6.6,0,0,0-.176-.423.626.626,0,0,0-.44-.178.625.625,0,0,0-.439.176l-.288.289a.975.975,0,0,1-.125.125Zm-6,3.786a1,1,0,0,1-1-1,1,1,0,0,1,1-1h2a1,1,0,0,1,1,1,1,1,0,0,1-1,1Zm0-3a1,1,0,0,1-1-1,1,1,0,0,1,1-1h2a1,1,0,0,1,1,1,1,1,0,0,1-1,1Z" transform="translate(-8325.889 5084.1)" fill="currentColor"/><rect width="24" height="24" fill="none"/></svg>