<!-- <svg xmlns="http://www.w3.org/2000/svg" width="40" height="40" viewBox="0 0 40 40">
    <rect width="40" height="40" fill="none"/>
    <g transform="translate(-846 -162)">
        <g transform="translate(851 166)">
            <path d="M876,199.333a1.668,1.668,0,0,1-.925-.28l-5.3-3.535A14.842,14.842,0,0,1,866,196a15.011,15.011,0,1,1,10.787-4.583l.863,6.013a1.665,1.665,0,0,1-1.65,1.9Z" transform="translate(-851 -166)" fill="currentColor"/>
        </g>
        <g transform="translate(861 172.667)">
            <path d="M862,181.667A1.667,1.667,0,0,1,860.333,180a3.337,3.337,0,0,1,3.333-3.333V175a1.667,1.667,0,0,0-3.333,0v1.667a1.667,1.667,0,1,1-3.333,0V175a5,5,0,1,1,10,0v1.667A3.336,3.336,0,0,1,863.667,180,1.667,1.667,0,0,1,862,181.667Z" transform="translate(-857 -170)" fill="currentColor"/>
            <circle cx="1.667" cy="1.667" r="1.667" transform="translate(3.334 13.333)" fill="currentColor"/>
        </g>
    </g>
</svg> -->

<svg xmlns="http://www.w3.org/2000/svg" width="40" height="40" viewBox="0 0 40 40">
    <rect width="40" height="40" fill="none"/>
    <g transform="translate(-846 -162)">
        <g transform="translate(851 166)">
            <path d="M876,199.333a1.668,1.668,0,0,1-.925-.28l-5.3-3.535A14.842,14.842,0,0,1,866,196a15.011,15.011,0,1,1,10.787-4.583l.863,6.013a1.665,1.665,0,0,1-1.65,1.9Z" transform="translate(-851 -166)" fill="#2f66d0"/>
        </g>
        <g transform="translate(861 172.667)">
            <path d="M862,181.667A1.667,1.667,0,0,1,860.333,180a3.337,3.337,0,0,1,3.333-3.333V175a1.667,1.667,0,0,0-3.333,0v1.667a1.667,1.667,0,1,1-3.333,0V175a5,5,0,1,1,10,0v1.667A3.336,3.336,0,0,1,863.667,180,1.667,1.667,0,0,1,862,181.667Z" transform="translate(-857 -170)" fill="#cae8fe"/>
            <circle cx="1.667" cy="1.667" r="1.667" transform="translate(3.334 13.333)" fill="#cae8fe"/>
        </g>
    </g>
</svg>