<svg xmlns="http://www.w3.org/2000/svg" width="40" height="40" viewBox="0 0 40 40"><rect width="40" height="40" fill="none"/><g transform="translate(-668 -775)"><rect width="34" height="18" rx="4" transform="translate(671 793)" fill="#ccebff"/><g transform="translate(-3.75 40)"><path d="M16,26.4a2.2,2.2,0,0,1-1.478-.57C12.931,24.389,5,16.914,5,11.233A11.132,11.132,0,0,1,16,0,11.132,11.132,0,0,1,27,11.233c0,5.68-7.931,13.156-9.522,14.6A2.2,2.2,0,0,1,16,26.4" transform="translate(675.75 738)" fill="#2f66d0"/><path d="M16.8,7.4A4.4,4.4,0,1,1,12.4,3a4.4,4.4,0,0,1,4.4,4.4" transform="translate(679.35 741.6)" fill="#ccebff"/></g></g></svg>