<svg xmlns="http://www.w3.org/2000/svg" width="24" height="24" viewBox="0 0 24 24"><g transform="translate(1 2)"><path d="M9739-5064a3,3,0,0,1-3-3v-9a1,1,0,0,1-.864-.5,1,1,0,0,1-.006-1l3.417-6a1,1,0,0,1,.867-.5h6.355l.417-.583A1,1,0,0,1,9747-5085a1,1,0,0,1,.813.419l.416.583h6.354a.994.994,0,0,1,.869.5l3.417,6a1,1,0,0,1,0,1,1,1,0,0,1-.865.5v9a3,3,0,0,1-3,3Zm16-2a1,1,0,0,0,1-1v-9h-4v10Zm-5,0v-10h-6v10Zm-12-1a1,1,0,0,0,1,1h3v-10h-4Zm18.281-11-2.278-4h-4.345l2.858,4Zm-6.225,0-3.056-4.278-3.056,4.278Zm-12.336,0h3.766l2.857-4H9740Zm7.779,6a1.5,1.5,0,0,1,1.5-1.5,1.5,1.5,0,0,1,1.5,1.5,1.5,1.5,0,0,1-1.5,1.5A1.5,1.5,0,0,1,9745.5-5072Z" transform="translate(-9736 5084)" fill="currentColor"/></g><rect width="24" height="24" fill="none"/></svg>