<svg xmlns="http://www.w3.org/2000/svg" width="24" height="24" viewBox="0 0 24 24"><path d="M8946-5063a4,4,0,0,1-4-4v-12a4,4,0,0,1,4-4h4a1,1,0,0,1,1,1,1,1,0,0,1-1,1h-4a2,2,0,0,0-2,2v12a2,2,0,0,0,2,2h12a2,2,0,0,0,2-2v-4a1,1,0,0,1,1-1,1,1,0,0,1,1,1v4a4.006,4.006,0,0,1-4,4Zm3-7a1,1,0,0,1-.245-1.012l1.272-3.977a1.026,1.026,0,0,1,.245-.4l6.759-6.756a2.885,2.885,0,0,1,2.059-.854,2.891,2.891,0,0,1,2.06.854,2.892,2.892,0,0,1,.853,2.058,2.894,2.894,0,0,1-.854,2.058l-6.757,6.757a.977.977,0,0,1-.4.247l-3.977,1.273a1.011,1.011,0,0,1-.3.047A1,1,0,0,1,8949-5070Zm9.446-10.735-6.588,6.587-.607,1.9,1.9-.607,6.588-6.588a.907.907,0,0,0,.268-.643.907.907,0,0,0-.268-.644.909.909,0,0,0-.646-.268A.906.906,0,0,0,8958.444-5080.733Z" transform="translate(-8940 5085)" fill="currentColor"/><rect width="24" height="24" fill="none"/></svg>