<svg xmlns="http://www.w3.org/2000/svg" width="24" height="24" viewBox="0 0 24 24"><path d="M9752.294-4992.294l-7.294-7.293-7.294,7.293a.991.991,0,0,1-.707.294.99.99,0,0,1-.705-.294,1,1,0,0,1,0-1.413l7.294-7.293-7.294-7.294a1,1,0,0,1,0-1.412,1,1,0,0,1,1.412,0l7.294,7.293,7.294-7.293a1,1,0,0,1,1.412,0,1,1,0,0,1,0,1.412l-7.294,7.294,7.294,7.293a1,1,0,0,1,0,1.413.991.991,0,0,1-.707.294A.99.99,0,0,1,9752.294-4992.294Z" transform="translate(-9733 5013)" fill="currentColor"/><rect width="24" height="24" fill="none"/></svg>