<svg xmlns="http://www.w3.org/2000/svg" width="24" height="24" viewBox="0 0 24 24"><g transform="translate(2 2)"><path d="M8916.292-5063.293l-4.395-4.394a9.7,9.7,0,0,1-6.147,2.188,9.76,9.76,0,0,1-9.749-9.75,9.762,9.762,0,0,1,9.749-9.751,9.762,9.762,0,0,1,9.75,9.751,9.709,9.709,0,0,1-2.187,6.147l4.395,4.395a1,1,0,0,1,0,1.414,1,1,0,0,1-.708.293A1,1,0,0,1,8916.292-5063.293ZM8898-5075.25a7.757,7.757,0,0,0,7.75,7.749,7.757,7.757,0,0,0,7.749-7.749,7.757,7.757,0,0,0-7.749-7.75A7.758,7.758,0,0,0,8898-5075.25Z" transform="translate(-8897 5084)" fill="currentColor"/></g><rect width="24" height="24" fill="none"/></svg>