<svg width="40" height="40" viewBox="0 0 40 40" fill="none" xmlns="http://www.w3.org/2000/svg">
<mask id="mask0_296_2479" style="mask-type:luminance" maskUnits="userSpaceOnUse" x="0" y="0" width="40" height="40">
<path d="M40 0H0V40H40V0Z" fill="white"/>
</mask>
<g mask="url(#mask0_296_2479)">
<path d="M20 0C16.0444 0 12.1776 1.17298 8.8886 3.37061C5.59962 5.56824 3.03617 8.69181 1.52242 12.3463C0.00866568 16.0009 -0.387401 20.0222 0.384303 23.9018C1.15601 27.7814 3.06082 31.3451 5.85787 34.1421C8.65492 36.9392 12.2186 38.844 16.0982 39.6157C19.9778 40.3874 23.9992 39.9913 27.6537 38.4776C31.3082 36.9638 34.4318 34.4004 36.6294 31.1114C38.827 27.8224 40 23.9556 40 20C39.9939 14.6975 37.8848 9.614 34.1354 5.86459C30.386 2.11518 25.3025 0.00608734 20 0Z" fill="#C2EDFF"/>
<path d="M20 8C18.8133 8 17.6533 8.35189 16.6666 9.01118C15.6799 9.67047 14.9109 10.6075 14.4567 11.7039C14.0026 12.8003 13.8838 14.0067 14.1153 15.1705C14.3468 16.3344 14.9182 17.4035 15.7574 18.2426C16.5965 19.0818 17.6656 19.6532 18.8295 19.8847C19.9933 20.1162 21.1997 19.9974 22.2961 19.5433C23.3925 19.0892 24.3295 18.3201 24.9888 17.3334C25.6481 16.3467 26 15.1867 26 14C25.9981 12.4093 25.3654 10.8842 24.2406 9.75941C23.1158 8.63459 21.5907 8.00185 20 8Z" fill="#0099D9"/>
<path d="M20 24C16.8178 24.0156 13.7697 25.2834 11.515 27.5291C9.26032 29.7748 7.98037 32.8179 7.95203 36C11.4313 38.6004 15.6584 40.0055 20.002 40.0055C24.3457 40.0055 28.5728 38.6004 32.052 36C32.0237 32.8172 30.7432 29.7735 28.4876 27.5277C26.2321 25.2819 23.1829 24.0146 20 24Z" fill="#0099D9"/>
</g>
</svg>
