<svg xmlns="http://www.w3.org/2000/svg" width="24" height="24" viewBox="0 0 24 24"><path d="M9384.221-5109.222A10.931,10.931,0,0,1,9381-5117a10.932,10.932,0,0,1,3.221-7.778A10.926,10.926,0,0,1,9392-5128a10.927,10.927,0,0,1,7.78,3.221A10.932,10.932,0,0,1,9403-5117a10.931,10.931,0,0,1-3.221,7.778A10.925,10.925,0,0,1,9392-5106,10.924,10.924,0,0,1,9384.221-5109.222ZM9383-5117a9.009,9.009,0,0,0,9,9,9.009,9.009,0,0,0,9-9,9.009,9.009,0,0,0-9-9A9.009,9.009,0,0,0,9383-5117Zm11.624,4.04-3.332-3.332A1,1,0,0,1,9391-5117v-5.555a1,1,0,0,1,1-1,1,1,0,0,1,1,1v5.14l3.04,3.042a1,1,0,0,1,0,1.414.99.99,0,0,1-.706.292A1,1,0,0,1,9394.625-5112.96Z" transform="translate(-9380 5129)" fill="currentColor"/><rect width="24" height="24" fill="none"/></svg>