<svg xmlns="http://www.w3.org/2000/svg" width="24" height="24" viewBox="0 0 24 24"><path d="M8302.293-5063.293l-1.488-1.489a4.352,4.352,0,0,1-2.3.658,4.379,4.379,0,0,1-4.374-4.375,4.379,4.379,0,0,1,4.374-4.376,4.381,4.381,0,0,1,4.375,4.376,4.344,4.344,0,0,1-.658,2.3l1.489,1.489a1,1,0,0,1,0,1.413.99.99,0,0,1-.706.294A1,1,0,0,1,8302.293-5063.293Zm-6.168-5.206a2.376,2.376,0,0,0,2.375,2.374,2.376,2.376,0,0,0,2.374-2.374,2.377,2.377,0,0,0-2.374-2.376A2.377,2.377,0,0,0,8296.125-5068.5ZM8284-5064v-3.374a5.65,5.65,0,0,1,1.6-3.939,5.389,5.389,0,0,1,3.9-1.686h2.251a1,1,0,0,1,1,1,1,1,0,0,1-1,1H8289.5a3.613,3.613,0,0,0-3.5,3.626V-5064a1,1,0,0,1-1,1A1,1,0,0,1,8284-5064Zm3.376-14.626a4.38,4.38,0,0,1,4.374-4.375,4.381,4.381,0,0,1,4.375,4.375,4.381,4.381,0,0,1-4.375,4.376A4.38,4.38,0,0,1,8287.376-5078.626Zm2,0a2.379,2.379,0,0,0,2.376,2.376,2.379,2.379,0,0,0,2.376-2.376,2.379,2.379,0,0,0-2.376-2.374A2.379,2.379,0,0,0,8289.374-5078.626Z" transform="translate(-8282 5085)" fill="currentColor"/><rect width="24" height="24" fill="none"/></svg>