<svg xmlns="http://www.w3.org/2000/svg" width="24" height="24" viewBox="0 0 24 24"><g transform="translate(-1 -2.174)"><path d="M9607.251-5059.825a3.241,3.241,0,0,1-3.251-3.222v-8.78a1,1,0,0,1,.512-.872,1.009,1.009,0,0,1,.487-.128,1.008,1.008,0,0,1,.527.149l.473.292v-6.35a2.111,2.111,0,0,1,2.126-2.091H9620a2,2,0,0,1,2,2.091v6.35l.474-.292a1,1,0,0,1,1.012-.021,1,1,0,0,1,.515.872v8.78a3.242,3.242,0,0,1-3.251,3.222Zm13.2-2-4.575-4.425-1.346.831a1.009,1.009,0,0,1-.526.149,1.008,1.008,0,0,1-.524-.149l-1.348-.832-4.576,4.426ZM9622-5063.1v-6.93l-4.373,2.7Zm-16,0,4.372-4.229-4.372-2.7Zm8-4.339,6-3.7v-7.584a.351.351,0,0,0-.012-.092h-11.864c-.072,0-.126.048-.126.092v7.585Zm-1.5-3.381a1,1,0,0,1-1-1,1,1,0,0,1,1-1h3a1,1,0,0,1,1,1,1,1,0,0,1-1,1Zm0-4a1,1,0,0,1-1-1,1,1,0,0,1,1-1h3a1,1,0,0,1,1,1,1,1,0,0,1-1,1Z" transform="translate(-9601 5084)" fill="currentColor"/></g><rect width="24" height="24" fill="none"/></svg>