<svg xmlns="http://www.w3.org/2000/svg" width="40" height="40" viewBox="0 0 40 40"><g transform="translate(22175 6082)"><rect width="40" height="40" transform="translate(-22175 -6082)" fill="none"/><g transform="translate(-22169.584 -6078.25)"><path d="M5.5-.75H22.167a6.257,6.257,0,0,1,6.25,6.25v15a6.257,6.257,0,0,1-6.25,6.25H5.5A6.257,6.257,0,0,1-.75,20.5V5.5A6.257,6.257,0,0,1,5.5-.75Zm16.667,25a3.754,3.754,0,0,0,3.75-3.75V5.5a3.754,3.754,0,0,0-3.75-3.75H5.5A3.754,3.754,0,0,0,1.75,5.5v15A3.754,3.754,0,0,0,5.5,24.25Z" transform="translate(0.75 4.083)" fill="#2f66d0"/><g transform="translate(6.667 0)"><path d="M.5,8.417A1.25,1.25,0,0,1-.75,7.167V.5a1.25,1.25,0,0,1,2.5,0V7.167A1.25,1.25,0,0,1,.5,8.417Z" transform="translate(0.75 0.75)" fill="#2f66d0"/><path d="M.5,8.417A1.25,1.25,0,0,1-.75,7.167V.5a1.25,1.25,0,0,1,2.5,0V7.167A1.25,1.25,0,0,1,.5,8.417Z" transform="translate(14.083 0.75)" fill="#2f66d0"/></g></g></g><path d="M7.705,16.36a1.5,1.5,0,0,1-1.061-.439L2.939,12.215a1.5,1.5,0,0,1,2.121-2.121L7.67,12.7l5.235-5.587a1.5,1.5,0,0,1,2.189,2.051L8.8,15.885a1.5,1.5,0,0,1-1.07.474Z" transform="translate(11.25 9.805)" fill="#f74f4f"/></svg>