<svg xmlns="http://www.w3.org/2000/svg" width="24" height="24" viewBox="0 0 24 24"><path d="M8374.8-5065a2.709,2.709,0,0,1-2.026-.971A3.151,3.151,0,0,1,8372-5068v-12a3.144,3.144,0,0,1,.773-2.028,2.709,2.709,0,0,1,2.026-.971h10.1a1,1,0,0,1,1,1,1,1,0,0,1-1,1h-9.386l8.652,7.754a1,1,0,0,1,.078,1.414,1,1,0,0,1-.746.333.985.985,0,0,1-.665-.257l-8.833-7.917V-5068c0,.487.41,1,.8,1H8391a1.189,1.189,0,0,0,1-1,1,1,0,0,1,1-1,1,1,0,0,1,1,1,3.16,3.16,0,0,1-3,3Zm14.2-6.1v-8.484l-1.294,1.292a1,1,0,0,1-1.413,0,1,1,0,0,1,0-1.414l3-3A1,1,0,0,1,8390-5083a1,1,0,0,1,.705.292l3,3a1,1,0,0,1,0,1.414.991.991,0,0,1-.706.293.993.993,0,0,1-.707-.293l-1.294-1.293v8.485a1,1,0,0,1-1,1A1,1,0,0,1,8389-5071.1Z" transform="translate(-8371 5086)" fill="currentColor"/><rect width="24" height="24" fill="none"/></svg>