<svg width="49" height="48" viewBox="0 0 49 48" fill="none" xmlns="http://www.w3.org/2000/svg">
<path d="M5.5 15C5.5 11.6863 8.18629 9 11.5 9H37.5C40.8137 9 43.5 11.6863 43.5 15V33C43.5 36.3137 40.8137 39 37.5 39H11.5C8.18629 39 5.5 36.3137 5.5 33V15Z" fill="white"/>
<path fill-rule="evenodd" clip-rule="evenodd" d="M4.5 15C4.5 11.134 7.63401 8 11.5 8H37.5C41.366 8 44.5 11.134 44.5 15V33C44.5 36.866 41.366 40 37.5 40H11.5C7.63401 40 4.5 36.866 4.5 33V15ZM11.5 10C8.73858 10 6.5 12.2386 6.5 15V33C6.5 35.7614 8.73858 38 11.5 38H37.5C40.2614 38 42.5 35.7614 42.5 33V15C42.5 12.2386 40.2614 10 37.5 10H11.5Z" fill="#333333"/>
<path fill-rule="evenodd" clip-rule="evenodd" d="M20.7322 24.7289L11.619 33.8421C11.1816 34.2795 10.4725 34.2795 10.0351 33.8421C9.59768 33.4048 9.59768 32.6956 10.0351 32.2582L19.1483 23.145L20.7322 24.7289Z" fill="#2C9AA3"/>
<path fill-rule="evenodd" clip-rule="evenodd" d="M37.3788 33.8421L28.2656 24.7289L29.8496 23.145L38.9628 32.2582C39.4001 32.6956 39.4001 33.4048 38.9628 33.8421C38.5254 34.2795 37.8162 34.2795 37.3788 33.8421Z" fill="#2C9AA3"/>
<path fill-rule="evenodd" clip-rule="evenodd" d="M10.1351 15.182C10.5868 14.7594 11.2956 14.783 11.7182 15.2347L18.7716 22.7738C21.8699 26.0856 27.1234 26.0856 30.2218 22.7738L37.2752 15.2347C37.6978 14.783 38.4065 14.7594 38.8582 15.182C39.3099 15.6046 39.3335 16.3134 38.9109 16.7651L31.8575 24.3042C27.8739 28.5621 21.1194 28.5621 17.1358 24.3042L10.0824 16.7651C9.65981 16.3134 9.68341 15.6046 10.1351 15.182Z" fill="#2C9AA3"/>
<path d="M42.498 16C45.8118 16 48.498 13.3137 48.498 10C48.498 6.68629 45.8118 4 42.498 4C39.1843 4 36.498 6.68629 36.498 10C36.498 13.3137 39.1843 16 42.498 16Z" fill="#F57105"/>
</svg>
