<svg xmlns="http://www.w3.org/2000/svg" width="24" height="24" viewBox="0 0 24 24"><path d="M9270.268-5106.418l-1.489-1.489a4.352,4.352,0,0,1-2.3.656,4.379,4.379,0,0,1-4.375-4.375,4.379,4.379,0,0,1,4.375-4.375,4.379,4.379,0,0,1,4.375,4.375,4.35,4.35,0,0,1-.657,2.3l1.49,1.49a1,1,0,0,1,0,1.415,1,1,0,0,1-.708.293A1,1,0,0,1,9270.268-5106.418Zm-6.169-5.208a2.378,2.378,0,0,0,2.376,2.375,2.368,2.368,0,0,0,1.643-.661.5.5,0,0,1,.035-.037l.038-.037a2.364,2.364,0,0,0,.66-1.641,2.377,2.377,0,0,0-2.376-2.374A2.376,2.376,0,0,0,9264.1-5111.625ZM9252-5107a3,3,0,0,1-3-3v-9a1,1,0,0,1-.865-.5.994.994,0,0,1,0-1l3.416-6a1,1,0,0,1,.87-.5h6.354l.416-.582A1,1,0,0,1,9260-5128a1,1,0,0,1,.814.419l.415.582h6.354a1,1,0,0,1,.868.5l3.416,6a.994.994,0,0,1,0,1,.994.994,0,0,1-.863.5h-6v1a1,1,0,0,1-1,1,1,1,0,0,1-1-1v-1h-6v10h3a1,1,0,0,1,1,1,1,1,0,0,1-1,1Zm-1-3a1,1,0,0,0,1,1h3v-10h-4Zm18.281-11-2.278-4h-4.345l2.856,4Zm-6.225,0L9260-5125.28l-3.057,4.279Zm-12.336,0h3.767l2.856-4H9253Zm7.779,6a1.5,1.5,0,0,1,1.5-1.5,1.5,1.5,0,0,1,1.5,1.5,1.5,1.5,0,0,1-1.5,1.5A1.5,1.5,0,0,1,9258.5-5115Z" transform="translate(-9248 5129)" fill="currentColor"/><rect width="24" height="24" transform="translate(0)" fill="none"/></svg>