<svg xmlns="http://www.w3.org/2000/svg" width="52" height="30" viewBox="0 0 52 30"><g transform="translate(36)"><circle cx="6" cy="6" r="6" transform="translate(2)" fill="currentColor"/><path d="M253,256h-4a6.007,6.007,0,0,0-6,6v8a2,2,0,0,0,2,2h12a2,2,0,0,0,2-2v-8A6.007,6.007,0,0,0,253,256Z" transform="translate(-243 -242)" fill="currentColor"/></g><g transform="translate(18)"><circle cx="6" cy="6" r="6" transform="translate(2)" fill="currentColor"/><path d="M253,256h-4a6.007,6.007,0,0,0-6,6v8a2,2,0,0,0,2,2h12a2,2,0,0,0,2-2v-8A6.007,6.007,0,0,0,253,256Z" transform="translate(-243 -242)" fill="currentColor"/></g><circle cx="6" cy="6" r="6" transform="translate(2)" fill="currentColor"/><path d="M253,256h-4a6.007,6.007,0,0,0-6,6v8a2,2,0,0,0,2,2h12a2,2,0,0,0,2-2v-8A6.007,6.007,0,0,0,253,256Z" transform="translate(-243 -242)" fill="currentColor"/></svg>