<svg xmlns="http://www.w3.org/2000/svg" width="24" height="24" viewBox="0 0 24 24"><path d="M9563-5063a4.006,4.006,0,0,1-4-4v-12a4,4,0,0,1,4-4h14a4,4,0,0,1,4,4v12a4.005,4.005,0,0,1-4,4Zm-2-16v12a2,2,0,0,0,2,2h14a2,2,0,0,0,2-2v-12a2,2,0,0,0-2-2h-14A2,2,0,0,0,9561-5079Zm12,11a1,1,0,0,1-1-1,1,1,0,0,1,1-1h3a1,1,0,0,1,1,1,1,1,0,0,1-1,1Zm-4.5-1a1.114,1.114,0,0,0-1.2-1h-1.1a1.114,1.114,0,0,0-1.2,1,1,1,0,0,1-1,1,1,1,0,0,1-1-1,3.107,3.107,0,0,1,3.2-3h1.1a3.107,3.107,0,0,1,3.2,3,1,1,0,0,1-1,1A1,1,0,0,1,9568.5-5069Zm4.5-3a1,1,0,0,1-1-1,1,1,0,0,1,1-1h3a1,1,0,0,1,1,1,1,1,0,0,1-1,1Zm-9-4.251a2.753,2.753,0,0,1,2.749-2.75,2.754,2.754,0,0,1,2.751,2.75,2.754,2.754,0,0,1-2.751,2.751A2.753,2.753,0,0,1,9564-5076.25Zm2,0a.751.751,0,0,0,.748.75.752.752,0,0,0,.75-.75.751.751,0,0,0-.75-.75A.751.751,0,0,0,9566-5076.25Zm7,.25a1,1,0,0,1-1-1,1,1,0,0,1,1-1h3a1,1,0,0,1,1,1,1,1,0,0,1-1,1Z" transform="translate(-9558 5085)" fill="currentColor"/><rect width="24" height="24" fill="none"/></svg>