<svg width="40" height="40" viewBox="0 0 40 40" fill="none" xmlns="http://www.w3.org/2000/svg">
<path d="M30 37.333C29.6708 37.333 29.349 37.2356 29.075 37.053L23.775 33.518C22.5426 33.84 21.2738 34.002 20 34C16.5379 34.0025 13.1814 32.8081 10.499 30.6192C7.81666 28.4304 5.97336 25.3816 5.28137 21.9893C4.58939 18.5971 5.09125 15.0699 6.70197 12.0053C8.31268 8.9407 10.9332 6.52707 14.1196 5.17326C17.3061 3.81946 20.8626 3.60872 24.1866 4.57674C27.5106 5.54475 30.3978 7.63202 32.3592 10.485C34.3206 13.3379 35.2355 16.7811 34.949 20.2313C34.6625 23.6816 33.1921 26.9267 30.787 29.417L31.65 35.43C31.6837 35.6663 31.6662 35.907 31.5987 36.1359C31.5312 36.3648 31.4153 36.5766 31.2588 36.7567C31.1023 36.9369 30.909 37.0814 30.6918 37.1803C30.4746 37.2792 30.2387 37.3303 30 37.33V37.333Z" fill="#0099D9"/>
<path d="M20 22.334C19.5579 22.334 19.1339 22.1584 18.8212 21.8457C18.5086 21.5331 18.333 21.1091 18.333 20.667C18.3341 19.7834 18.6855 18.9362 19.3104 18.3114C19.9352 17.6865 20.7824 17.3351 21.666 17.334V15.667C21.6554 15.2321 21.4751 14.8186 21.1637 14.5147C20.8523 14.2109 20.4346 14.0408 19.9995 14.0408C19.5645 14.0408 19.1466 14.2109 18.8353 14.5147C18.5239 14.8186 18.3437 15.2321 18.333 15.667V17.334C18.3385 17.5563 18.2994 17.7774 18.2181 17.9844C18.1368 18.1913 18.0149 18.3799 17.8596 18.539C17.7043 18.6982 17.5188 18.8246 17.3139 18.911C17.109 18.9973 16.8889 19.0418 16.6665 19.0418C16.4442 19.0418 16.2241 18.9973 16.0192 18.911C15.8143 18.8246 15.6287 18.6982 15.4734 18.539C15.3181 18.3799 15.1962 18.1913 15.1149 17.9844C15.0336 17.7774 14.9946 17.5563 15 17.334V15.667C15 14.3409 15.5268 13.0691 16.4645 12.1315C17.4022 11.1938 18.6739 10.667 20 10.667C21.3261 10.667 22.5979 11.1938 23.5355 12.1315C24.4732 13.0691 25 14.3409 25 15.667V17.334C24.9992 18.2177 24.6478 19.065 24.0229 19.6899C23.398 20.3148 22.5507 20.6662 21.667 20.667C21.667 21.1091 21.4914 21.5331 21.1788 21.8457C20.8662 22.1584 20.4421 22.334 20 22.334Z" fill="#C2EDFF"/>
<path d="M20.001 27.334C20.9217 27.334 21.668 26.5877 21.668 25.667C21.668 24.7463 20.9217 24 20.001 24C19.0803 24 18.334 24.7463 18.334 25.667C18.334 26.5877 19.0803 27.334 20.001 27.334Z" fill="#C2EDFF"/>
</svg>
