<svg xmlns="http://www.w3.org/2000/svg" width="24" height="24" viewBox="0 0 24 24"><path d="M8468.56-5061.1a.936.936,0,0,1-.231-.157,49.058,49.058,0,0,1-4.1-4.3c-2.8-3.34-4.228-6.111-4.228-8.232a9.118,9.118,0,0,1,9-9.213,9.12,9.12,0,0,1,9,9.213c0,2.381-1.744,5.487-5.332,9.494-1.482,1.658-2.936,2.979-3,3.034a1.008,1.008,0,0,1-.674.259A.992.992,0,0,1,8468.56-5061.1Zm-6.56-12.685c0,1.589,1.332,4.053,3.749,6.934,1.249,1.485,2.509,2.757,3.251,3.479.552-.532,1.366-1.345,2.177-2.251,3.985-4.453,4.823-6.9,4.823-8.162a7.117,7.117,0,0,0-7-7.213A7.118,7.118,0,0,0,8462-5073.788Zm2.8-.274a4.2,4.2,0,0,1,4.2-4.2,4.2,4.2,0,0,1,4.2,4.2,4.2,4.2,0,0,1-4.2,4.2A4.2,4.2,0,0,1,8464.8-5074.062Zm2,0a2.2,2.2,0,0,0,2.2,2.2,2.2,2.2,0,0,0,2.2-2.2,2.2,2.2,0,0,0-2.2-2.2A2.2,2.2,0,0,0,8466.8-5074.062Z" transform="translate(-8457 5084)" fill="currentColor"/><rect width="24" height="24" fill="none"/></svg>