<svg xmlns="http://www.w3.org/2000/svg" width="24" height="24" viewBox="0 0 24 24"><path d="M9470-5114a4,4,0,0,1,4-4,4,4,0,0,1,4,4,4,4,0,0,1-4,4A4,4,0,0,1,9470-5114Zm2,0a2,2,0,0,0,2,2,2,2,0,0,0,2-2,2,2,0,0,0-2-2A2,2,0,0,0,9472-5114Zm10,1a1,1,0,0,1-1-1,1,1,0,0,1,1-1h9a1,1,0,0,1,1,1,1,1,0,0,1-1,1Zm-12-11a4,4,0,0,1,4-4,4,4,0,0,1,4,4,4,4,0,0,1-4,4A4,4,0,0,1,9470-5124Zm12,1a1,1,0,0,1-1-1,1,1,0,0,1,1-1h9a1,1,0,0,1,1,1,1,1,0,0,1-1,1Z" transform="translate(-9469 5131)" fill="currentColor"/><rect width="24" height="24" fill="none"/></svg>