<svg xmlns="http://www.w3.org/2000/svg" width="24" height="24" viewBox="0 0 24 24"><path d="M9295.833-5105a3.827,3.827,0,0,1-3.832-3.812v-13.377a3.827,3.827,0,0,1,3.832-3.812h2.338a3.007,3.007,0,0,1,2.829-2h2a3.006,3.006,0,0,1,2.827,2h2.34a3.828,3.828,0,0,1,3.833,3.812v13.377a3.828,3.828,0,0,1-3.833,3.812ZM9294-5122.188v13.377a1.823,1.823,0,0,0,1.832,1.812h12.335a1.825,1.825,0,0,0,1.832-1.812v-13.377a1.824,1.824,0,0,0-1.832-1.811h-2.34a3.006,3.006,0,0,1-2.827,2h-2a3.007,3.007,0,0,1-2.829-2h-2.338A1.823,1.823,0,0,0,9294-5122.188Zm6-2.812a1,1,0,0,0,1,1h2a1,1,0,0,0,1-1,1,1,0,0,0-1-1h-2A1,1,0,0,0,9300-5125Zm2,15a1,1,0,0,1-1-1,1,1,0,0,1,1-1h4a1,1,0,0,1,1,1,1,1,0,0,1-1,1Zm-4.5-1a1,1,0,0,1,1-1,1,1,0,0,1,1,1,1,1,0,0,1-1,1A1,1,0,0,1,9297.5-5111Zm4.5-3a1,1,0,0,1-1-1,1,1,0,0,1,1-1h4a1,1,0,0,1,1,1,1,1,0,0,1-1,1Zm-4.5-1a1,1,0,0,1,1-1,1,1,0,0,1,1,1,1,1,0,0,1-1,1A1,1,0,0,1,9297.5-5115Zm4.5-3a1,1,0,0,1-1-1,1,1,0,0,1,1-1h4a1,1,0,0,1,1,1,1,1,0,0,1-1,1Zm-4.5-1a1,1,0,0,1,1-1,1,1,0,0,1,1,1,1,1,0,0,1-1,1A1,1,0,0,1,9297.5-5119Z" transform="translate(-9290 5128)" fill="currentColor"/><rect width="24" height="24" transform="translate(0 0)" fill="none"/></svg>