<svg width="48" height="48" viewBox="0 0 48 48" fill="none" xmlns="http://www.w3.org/2000/svg">
<path d="M22.4498 7H12.3491C11.3953 7 10.4983 7.45355 9.93292 8.22172L3.75849 16.6109C3.02949 17.6013 3.73671 19 4.96656 19H43.0336C44.2634 19 44.9707 17.6013 44.2417 16.6109L38.0672 8.22172C37.5019 7.45355 36.6049 7 35.6511 7H25.5518" fill="#118C46"/>
<path fill-rule="evenodd" clip-rule="evenodd" d="M9.12739 7.62896C9.88122 6.60473 11.0772 6 12.3489 6H35.6509C36.9227 6 38.1186 6.60473 38.8725 7.62896L45.0469 16.0181C46.2619 17.6689 45.0832 20 43.0334 20H4.9664C2.91666 20 1.73795 17.6689 2.95296 16.0181L9.12739 7.62896ZM12.3489 8C11.713 8 11.1151 8.30237 10.7381 8.81448L4.56371 17.2036C4.32071 17.5338 4.55646 18 4.9664 18H43.0334C43.4434 18 43.6791 17.5338 43.4361 17.2036L37.2617 8.81448C36.8848 8.30237 36.2868 8 35.6509 8H12.3489Z" fill="#333333"/>
<path d="M34 18.9999L25.6641 6.49607C24.8725 5.3086 23.1275 5.3086 22.3359 6.49607L14 18.9999" fill="white"/>
<path fill-rule="evenodd" clip-rule="evenodd" d="M21.504 5.94137C22.6914 4.16017 25.3088 4.16017 26.4963 5.94137L34.8322 18.4452C35.1385 18.9047 35.0143 19.5256 34.5548 19.832C34.0953 20.1383 33.4744 20.0141 33.1681 19.5546L24.8322 7.05077C24.4363 6.45704 23.5639 6.45704 23.1681 7.05077L14.8322 19.5546C14.5258 20.0141 13.9049 20.1383 13.4454 19.832C12.9859 19.5256 12.8617 18.9047 13.1681 18.4452L21.504 5.94137Z" fill="#333333"/>
<path d="M5 19H43V37C43 39.2091 41.2091 41 39 41H9C6.79086 41 5 39.2091 5 37V19Z" fill="white"/>
<path fill-rule="evenodd" clip-rule="evenodd" d="M4 18H44V37C44 39.7614 41.7614 42 39 42H9C6.23858 42 4 39.7614 4 37V18ZM6 20V37C6 38.6569 7.34315 40 9 40H39C40.6569 40 42 38.6569 42 37V20H6Z" fill="#333333"/>
<path d="M24 30C25.6569 30 27 28.6569 27 27C27 25.3431 25.6569 24 24 24C22.3431 24 21 25.3431 21 27C21 28.6569 22.3431 30 24 30Z" fill="#EF7448"/>
<path fill-rule="evenodd" clip-rule="evenodd" d="M17 20V41H15V20H17Z" fill="#333333"/>
<path fill-rule="evenodd" clip-rule="evenodd" d="M31 41V20H33V41H31Z" fill="#333333"/>
</svg>
