<svg xmlns="http://www.w3.org/2000/svg" width="24" height="24" viewBox="0 0 24 24"><path d="M2321.691,2010.055a3.329,3.329,0,0,1-2.354-5.683l6.7-6.7-.982-3.927a1,1,0,0,1,.263-.95l4.445-4.445a1,1,0,0,1,.949-.263l4.445,1.111a1,1,0,0,1,.465,1.677l-3.737,3.737,1.919,1.919,3.737-3.737a1,1,0,0,1,1.677.464l1.111,4.444a1,1,0,0,1-.263.95l-4.444,4.444a1,1,0,0,1-.949.263l-3.928-.982-6.7,6.7A3.307,3.307,0,0,1,2321.691,2010.055Zm6.354-12.612a.959.959,0,0,1,.058.118,1,1,0,0,1-.217,1.09l-7.135,7.135a1.329,1.329,0,1,0,1.879,1.879l7.136-7.136a1,1,0,0,1,1.209-.158l3.636.909,3.644-3.644-.546-2.182-3.2,3.2a1,1,0,0,1-1.414,0l-3.333-3.333a1,1,0,0,1,0-1.414l3.2-3.2-2.182-.545-3.644,3.644Z" transform="translate(-2317.362 -1987.055)" fill="currentColor"/><rect width="24" height="24" fill="none"/></svg>