<svg xmlns="http://www.w3.org/2000/svg" width="24" height="24" viewBox="0 0 24 24"><path d="M9783.221-5109.223A10.928,10.928,0,0,1,9780-5117a10.927,10.927,0,0,1,3.22-7.776A10.93,10.93,0,0,1,9791-5128a10.926,10.926,0,0,1,7.779,3.222A10.922,10.922,0,0,1,9802-5117a10.922,10.922,0,0,1-3.223,7.778A10.926,10.926,0,0,1,9791-5106,10.93,10.93,0,0,1,9783.221-5109.223ZM9782-5117a9.01,9.01,0,0,0,9,9,9.01,9.01,0,0,0,9-9,9.01,9.01,0,0,0-9-9A9.009,9.009,0,0,0,9782-5117Zm8.314,3.23-4.251-4a1,1,0,0,1-.044-1.415,1,1,0,0,1,1.414-.042l3.564,3.355,3.565-3.355a1,1,0,0,1,1.414.042,1,1,0,0,1-.042,1.415l-4.251,4a1.007,1.007,0,0,1-.687.271A1,1,0,0,1,9790.315-5113.771Z" transform="translate(-9779 5129)" fill="currentColor"/><rect width="24" height="24" fill="none"/></svg>