<svg xmlns="http://www.w3.org/2000/svg" width="24" height="24" viewBox="0 0 24 24"><path d="M9257-5064a2.98,2.98,0,0,1,.172-1H9251a1,1,0,0,1-1-1,1,1,0,0,1,1-1h1v-8a8.011,8.011,0,0,1,8-8,8.008,8.008,0,0,1,8,8v8h1a1,1,0,0,1,1,1,1,1,0,0,1-1,1h-6.172a2.98,2.98,0,0,1,.172,1,3,3,0,0,1-3,3A3,3,0,0,1,9257-5064Zm2,0a1,1,0,0,0,1,1,1,1,0,0,0,1-1,1,1,0,0,0-1-1A1,1,0,0,0,9259-5064Zm7-3v-8a6.007,6.007,0,0,0-6-6,6.007,6.007,0,0,0-6,6v8h12Z" transform="translate(-9248 5084)" fill="currentColor"/><rect width="24" height="24" fill="none"/></svg>