<svg xmlns="http://www.w3.org/2000/svg" width="24" height="24" viewBox="0 0 24 24"><path d="M9431-5062a4,4,0,0,1-4-4v-11a4.005,4.005,0,0,1,4-4h1v-1a1,1,0,0,1,1-1,1,1,0,0,1,1,1v1h6v-1a1,1,0,0,1,1-1,1,1,0,0,1,1,1v1h1a4.005,4.005,0,0,1,4,4v11a4,4,0,0,1-4,4Zm-2-15v11a2,2,0,0,0,2,2h12a2,2,0,0,0,2-2v-11a2,2,0,0,0-2-2h-1v1a1,1,0,0,1-1,1,1,1,0,0,1-1-1v-1h-6v1a1,1,0,0,1-1,1,1,1,0,0,1-1-1v-1h-1A2,2,0,0,0,9429-5077Zm11,9a1,1,0,0,1,1-1,1,1,0,0,1,1,1,1,1,0,0,1-1,1A1,1,0,0,1,9440-5068Zm-4,0a1,1,0,0,1,1-1,1,1,0,0,1,1,1,1,1,0,0,1-1,1A1,1,0,0,1,9436-5068Zm-4,0a1,1,0,0,1,1-1,1,1,0,0,1,1,1,1,1,0,0,1-1,1A1,1,0,0,1,9432-5068Zm8-4a1,1,0,0,1,1-1,1,1,0,0,1,1,1,1,1,0,0,1-1,1A1,1,0,0,1,9440-5072Zm-4,0a1,1,0,0,1,1-1,1,1,0,0,1,1,1,1,1,0,0,1-1,1A1,1,0,0,1,9436-5072Zm-4,0a1,1,0,0,1,1-1,1,1,0,0,1,1,1,1,1,0,0,1-1,1A1,1,0,0,1,9432-5072Z" transform="translate(-9425 5084)" fill="currentColor"/><rect width="24" height="24" fill="none"/></svg>