<svg xmlns="http://www.w3.org/2000/svg" width="24" height="24" viewBox="0 0 24 24"><rect width="24" height="24" fill="none"/><g transform="translate(-1380 -430)"><path d="M10558.477-7511.4a42.535,42.535,0,0,1-3.992-4.342c-2.312-2.931-3.484-5.408-3.484-7.365a8.712,8.712,0,0,1,8.5-8.89,8.712,8.712,0,0,1,8.5,8.89c0,1.958-1.172,4.435-3.484,7.365a42.535,42.535,0,0,1-3.992,4.342,1.5,1.5,0,0,1-1.023.4A1.5,1.5,0,0,1,10558.477-7511.4Zm-2.478-12.1a3.5,3.5,0,0,0,3.5,3.5,3.5,3.5,0,0,0,3.5-3.5,3.5,3.5,0,0,0-3.5-3.5A3.5,3.5,0,0,0,10556-7523.5Z" transform="translate(-9167.5 7963.5)" fill="currentColor"/></g></svg>