<svg width="49" height="48" viewBox="0 0 49 48" fill="none" xmlns="http://www.w3.org/2000/svg">
<path d="M38.666 34C41.888 34 44.5 31.314 44.5 28C44.5 24.686 41.888 22 38.666 22H36.5C35.396 22 34.5 22.896 34.5 24V32C34.5 33.104 35.396 34 36.5 34H38.666Z" fill="#118C46"/>
<path fill-rule="evenodd" clip-rule="evenodd" d="M33.5 24C33.5 22.3437 34.8437 21 36.5 21H38.666C42.4665 21 45.5 24.1603 45.5 28C45.5 31.8397 42.4665 35 38.666 35H36.5C34.8437 35 33.5 33.6563 33.5 32V24ZM36.5 23C35.9483 23 35.5 23.4483 35.5 24V32C35.5 32.5517 35.9483 33 36.5 33H38.666C41.3095 33 43.5 30.7883 43.5 28C43.5 25.2117 41.3095 23 38.666 23H36.5Z" fill="#333333"/>
<path fill-rule="evenodd" clip-rule="evenodd" d="M34.5 28.8359C35.0523 28.8359 35.5 29.2837 35.5 29.8359V32.9999C35.5 37.9702 31.4703 41.9999 26.5 41.9999H24.5C23.9477 41.9999 23.5 41.5522 23.5 40.9999C23.5 40.4477 23.9477 39.9999 24.5 39.9999H26.5C30.3657 39.9999 33.5 36.8657 33.5 32.9999V29.8359C33.5 29.2837 33.9477 28.8359 34.5 28.8359Z" fill="#333333"/>
<path d="M10.334 34C7.112 34 4.5 31.314 4.5 28C4.5 24.686 7.112 22 10.334 22H12.5C13.604 22 14.5 22.896 14.5 24V32C14.5 33.104 13.604 34 12.5 34H10.334Z" fill="#118C46"/>
<path fill-rule="evenodd" clip-rule="evenodd" d="M10.334 23C7.69051 23 5.5 25.2117 5.5 28C5.5 30.7883 7.69051 33 10.334 33H12.5C13.0517 33 13.5 32.5517 13.5 32V24C13.5 23.4483 13.0517 23 12.5 23H10.334ZM3.5 28C3.5 24.1603 6.53349 21 10.334 21H12.5C14.1563 21 15.5 22.3437 15.5 24V32C15.5 33.6563 14.1563 35 12.5 35H10.334C6.53349 35 3.5 31.8397 3.5 28Z" fill="#333333"/>
<path fill-rule="evenodd" clip-rule="evenodd" d="M24.5 5C16.2163 5 9.5 11.7163 9.5 20V22C9.5 22.5523 9.05228 23 8.5 23C7.94772 23 7.5 22.5523 7.5 22V20C7.5 10.6117 15.1117 3 24.5 3C33.8883 3 41.5 10.6117 41.5 20V22C41.5 22.5523 41.0523 23 40.5 23C39.9477 23 39.5 22.5523 39.5 22V20C39.5 11.7163 32.7837 5 24.5 5Z" fill="#333333"/>
<path d="M28.5 41C28.5 43.2091 26.7091 45 24.5 45C22.2909 45 20.5 43.2091 20.5 41C20.5 38.7909 22.2909 37 24.5 37C26.7091 37 28.5 38.7909 28.5 41Z" fill="#EF7448"/>
</svg>
