<svg width="24" height="24" viewBox="0 0 24 24" fill="none" xmlns="http://www.w3.org/2000/svg">
<path fill-rule="evenodd" clip-rule="evenodd" d="M12 3C8.13428 3 5 6.13428 5 10H6C7.10428 10 8 10.8957 8 12V16C8 17.1043 7.10428 18 6 18H4.917C2.72749 18 1 16.1827 1 14C1 12.5151 1.79947 11.1994 3 10.5098V10C3 5.02972 7.02972 1 12 1C16.9703 1 21 5.02972 21 10V10.5098C22.2005 11.1994 23 12.5151 23 14C23 16.1827 21.2725 18 19.083 18H18C18 20.7613 15.7613 23 13 23H12.0112C12.0074 23 12.0037 23 12 23C10.8954 23 10 22.1046 10 21C10 19.8954 10.8954 19 12 19C13.0479 19 13.9075 19.8059 13.993 20.8317C15.1618 20.4218 16 19.3087 16 18V16.418C16 16.359 16.0051 16.3013 16.0149 16.2451C16.0051 16.1648 16 16.083 16 16V12C16 10.8957 16.8957 10 18 10H19C19 6.13428 15.8657 3 12 3ZM3 14C3 12.8687 3.88451 12 4.917 12H6V16H4.917C3.88451 16 3 15.1313 3 14ZM19.083 12H18V16H19.083C20.1155 16 21 15.1313 21 14C21 12.8687 20.1155 12 19.083 12Z" fill="currentColor"/>
</svg>
