<svg xmlns="http://www.w3.org/2000/svg" width="24" height="24" viewBox="0 0 24 24"><path d="M9298-5065a4,4,0,0,1-4-4v-10a4,4,0,0,1,4-4h14a4.006,4.006,0,0,1,4,4v10a4,4,0,0,1-4,4Zm0-2h14a2.014,2.014,0,0,0,.289-.021l-5.215-5a4.387,4.387,0,0,1-2.074.525,4.383,4.383,0,0,1-2.075-.526l-5.212,5A1.987,1.987,0,0,0,9298-5067Zm-2-12v10a2,2,0,0,0,.135.723l5.257-5.044-5.392-5.7Zm17.865,10.722A1.991,1.991,0,0,0,9314-5069v-10.022l-5.392,5.7Zm-10.6-5.973a2.363,2.363,0,0,0,1.737.753,2.35,2.35,0,0,0,1.732-.75l6.175-6.532A1.987,1.987,0,0,0,9312-5081h-14a1.99,1.99,0,0,0-.907.218Z" transform="translate(-9293 5086)" fill="currentColor"/><rect width="24" height="24" fill="none"/></svg>