<svg xmlns="http://www.w3.org/2000/svg" width="24" height="24" viewBox="0 0 24 24"><path d="M8548.294-5063.293a1,1,0,0,1-.265-.948l1.125-4.5a.989.989,0,0,1,.265-.465l.524-.525.036-.038.038-.036,12.9-12.9a1,1,0,0,1,.708-.294.989.989,0,0,1,.705.294l3.376,3.374a1,1,0,0,1,0,1.415l-2.249,2.249-11.251,11.25a1,1,0,0,1-.464.262l-4.5,1.125a1,1,0,0,1-.244.031A.992.992,0,0,1,8548.294-5063.293Zm2.079-2.082,2.071-.518-1.554-1.552Zm3.688-1.727,9.274-9.273-1.961-1.961-9.274,9.272Zm10.688-10.687.837-.836-1.961-1.961-.837.836Z" transform="translate(-8546 5085)" fill="currentColor"/><rect width="24" height="24" fill="none"/></svg>