<svg xmlns="http://www.w3.org/2000/svg" width="24" height="24" viewBox="0 0 24 24"><g transform="translate(2.5 4)"><path d="M9781.833-5067a4.36,4.36,0,0,1-4.334-4.375v-11.249a4.36,4.36,0,0,1,4.334-4.375h13.334a4.36,4.36,0,0,1,4.334,4.375v11.249a4.36,4.36,0,0,1-4.334,4.375Zm13.334-2a2.356,2.356,0,0,0,2.332-2.375v-11.249a2.358,2.358,0,0,0-2.332-2.376H9789.5v3a1,1,0,0,1,1,1,1,1,0,0,1-1,1v2a1,1,0,0,1,1,1,1,1,0,0,1-1,1v2a1,1,0,0,1,1,1,1,1,0,0,1-1,1v3Zm-15.668-13.625v11.249a2.358,2.358,0,0,0,2.334,2.375h5.666v-3a1,1,0,0,1-1-1,1,1,0,0,1,1-1v-2a1,1,0,0,1-1-1,1,1,0,0,1,1-1v-2a1,1,0,0,1-1-1,1,1,0,0,1,1-1v-3h-5.666A2.359,2.359,0,0,0,9779.5-5082.625Z" transform="translate(-9779 5085)" fill="currentColor"/></g><rect width="24" height="24" fill="none"/></svg>