<!-- <svg xmlns="http://www.w3.org/2000/svg" xmlns:xlink="http://www.w3.org/1999/xlink" width="40" height="40" viewBox="0 0 40 40">
    <defs>
        <clipPath id="a">
            <rect width="30" height="30" fill="none"/>
        </clipPath>
    </defs>
    <rect width="40" height="40" fill="none"/>
    <g transform="translate(5 5)">
        <g clip-path="url(#a)">
            <path d="M23.667,25h-20A1.667,1.667,0,0,1,2,23.333v-20A3.337,3.337,0,0,1,5.333,0H22a3.337,3.337,0,0,1,3.333,3.333v20A1.667,1.667,0,0,1,23.667,25" transform="translate(1.333 0)" fill="#CCEBFF"/>
            <path d="M14.333,6.333H7.667A1.667,1.667,0,0,1,7.667,3h6.667a1.667,1.667,0,1,1,0,3.333" transform="translate(4 2)" fill="currentColor"/>
            <path d="M14.333,9.333H7.667A1.667,1.667,0,0,1,7.667,6h6.667a1.667,1.667,0,1,1,0,3.333" transform="translate(4 4)" fill="currentColor"/>
            <path d="M25,25.333H5a5.006,5.006,0,0,1-5-5V8.667A1.667,1.667,0,0,1,2.55,7.253L15,15.035,27.45,7.253A1.667,1.667,0,0,1,30,8.667V20.333a5.006,5.006,0,0,1-5,5" transform="translate(0 4.667)" fill="currentColor"/>
        </g>
    </g>
</svg> -->

<!-- <svg xmlns="http://www.w3.org/2000/svg" xmlns:xlink="http://www.w3.org/1999/xlink" width="40" height="40" viewBox="0 0 40 40">
    <defs>
        <clipPath id="a">
            <rect width="30" height="30" fill="none"/>
        </clipPath>
    </defs>
<rect width="40" height="40" fill="none"/>
    <g transform="translate(5 5)">
        <g clip-path="url(#a)">
            <path d="M23.667,25h-20A1.667,1.667,0,0,1,2,23.333v-20A3.337,3.337,0,0,1,5.333,0H22a3.337,3.337,0,0,1,3.333,3.333v20A1.667,1.667,0,0,1,23.667,25" transform="translate(1.333 0)" fill="#cae8fe"/>
            <path d="M14.333,6.333H7.667A1.667,1.667,0,0,1,7.667,3h6.667a1.667,1.667,0,1,1,0,3.333" transform="translate(4 2)" fill="#2f66d0"/>
            <path d="M14.333,9.333H7.667A1.667,1.667,0,0,1,7.667,6h6.667a1.667,1.667,0,1,1,0,3.333" transform="translate(4 4)" fill="#2f66d0"/>
            <path d="M25,25.333H5a5.006,5.006,0,0,1-5-5V8.667A1.667,1.667,0,0,1,2.55,7.253L15,15.035,27.45,7.253A1.667,1.667,0,0,1,30,8.667V20.333a5.006,5.006,0,0,1-5,5" transform="translate(0 4.667)" fill="#2f66d0"/>
        </g>
    </g>
</svg> -->

<svg id="icon_information_2t" xmlns="http://www.w3.org/2000/svg" xmlns:xlink="http://www.w3.org/1999/xlink" width="40" height="40" viewBox="0 0 40 40">
  <defs>
    <clipPath id="clip-path">
      <rect id="長方形_17" data-name="長方形 17" width="30" height="30" fill="none"/>
    </clipPath>
  </defs>
  <g id="グループ_160" data-name="グループ 160" transform="translate(5 5)">
    <g id="グループ_24" data-name="グループ 24" clip-path="url(#clip-path)">
      <path id="パス_32" data-name="パス 32" d="M23.667,25h-20A1.667,1.667,0,0,1,2,23.333v-20A3.337,3.337,0,0,1,5.333,0H22a3.337,3.337,0,0,1,3.333,3.333v20A1.667,1.667,0,0,1,23.667,25" transform="translate(1.333 0)" fill="#ccebff"/>
      <path id="パス_33" data-name="パス 33" d="M14.333,6.333H7.667A1.667,1.667,0,0,1,7.667,3h6.667a1.667,1.667,0,1,1,0,3.333" transform="translate(4 2)" fill="#2f66d0"/>
      <path id="パス_34" data-name="パス 34" d="M14.333,9.333H7.667A1.667,1.667,0,0,1,7.667,6h6.667a1.667,1.667,0,1,1,0,3.333" transform="translate(4 4)" fill="#2f66d0"/>
      <path id="パス_35" data-name="パス 35" d="M25,25.333H5a5.006,5.006,0,0,1-5-5V8.667A1.667,1.667,0,0,1,2.55,7.253L15,15.035,27.45,7.253A1.667,1.667,0,0,1,30,8.667V20.333a5.006,5.006,0,0,1-5,5" transform="translate(0 4.667)" fill="#2f66d0"/>
    </g>
  </g>
  <rect id="長方形_69" data-name="長方形 69" width="40" height="40" fill="none"/>
</svg>
