<svg width="49" height="48" viewBox="0 0 49 48" fill="none" xmlns="http://www.w3.org/2000/svg">
<path d="M11.5 9C11.5 6.79086 13.2909 5 15.5 5H33.5C35.7091 5 37.5 6.79086 37.5 9V35H11.5V9Z" fill="white"/>
<path fill-rule="evenodd" clip-rule="evenodd" d="M10.5 9C10.5 6.23858 12.7386 4 15.5 4H33.5C36.2614 4 38.5 6.23858 38.5 9V36H10.5V9ZM15.5 6C13.8431 6 12.5 7.34315 12.5 9V34H36.5V9C36.5 7.34315 35.1569 6 33.5 6H15.5Z" fill="#333333"/>
<path d="M7.49902 34.9999V21.0002C7.49902 19.3521 9.38064 18.4113 10.6991 19.4003L24.499 29.7513L38.2989 19.4003C39.6174 18.4113 41.499 19.3521 41.499 21.0002V34.9999C41.499 38.3136 38.8127 40.9999 35.499 40.9999L13.499 40.9999C10.1853 40.9998 7.49902 38.3136 7.49902 34.9999Z" fill="white"/>
<path fill-rule="evenodd" clip-rule="evenodd" d="M37.6989 18.6004C39.6766 17.117 42.499 18.5281 42.499 21.0003V35C42.499 38.866 39.365 42 35.499 42L13.499 42C9.63302 42 6.49902 38.8659 6.49902 35V21.0003C6.49902 18.5281 9.32146 17.117 11.2991 18.6004L24.499 28.5014L37.6989 18.6004ZM40.499 21.0003C40.499 20.1763 39.5582 19.7059 38.899 20.2004L25.0991 30.5514C24.7435 30.8181 24.2546 30.8181 23.899 30.5514L10.0991 20.2004C9.43983 19.7059 8.49902 20.1763 8.49902 21.0003V35C8.49902 37.7614 10.7376 40 13.499 40L35.499 40C38.2604 40 40.499 37.7614 40.499 35V21.0003Z" fill="#333333"/>
<path fill-rule="evenodd" clip-rule="evenodd" d="M19.501 13C19.501 12.4477 19.9487 12 20.501 12H28.501C29.0533 12 29.501 12.4477 29.501 13C29.501 13.5523 29.0533 14 28.501 14H20.501C19.9487 14 19.501 13.5523 19.501 13Z" fill="#EF7448"/>
<path fill-rule="evenodd" clip-rule="evenodd" d="M19.501 19C19.501 18.4477 19.9487 18 20.501 18H28.501C29.0533 18 29.501 18.4477 29.501 19C29.501 19.5523 29.0533 20 28.501 20H20.501C19.9487 20 19.501 19.5523 19.501 19Z" fill="#118C46"/>
</svg>
