<svg width="49" height="48" viewBox="0 0 49 48" fill="none" xmlns="http://www.w3.org/2000/svg">
<path d="M33.2369 7.9097C33.7001 7.03121 34.3999 6.29973 35.2569 5.79789C36.1139 5.29604 37.0942 5.04373 38.087 5.06962C38.8965 5.23432 39.6533 5.59504 40.2911 6.12015C40.9288 6.64527 41.4282 7.31871 41.7452 8.08158C43.0546 11.0648 40.4423 14.7919 35.3214 18.984C34.0843 19.9966 32.3053 19.9967 31.0685 18.9837C25.9657 14.8038 23.4239 11.1263 24.733 8.14359C25.0363 7.3607 25.5296 6.66542 26.168 6.12015C26.8065 5.57489 27.5704 5.19668 28.3912 5.01957C29.3891 4.99581 30.3732 5.2546 31.2305 5.76591C32.0879 6.27721 32.7834 7.02037 33.2369 7.9097Z" fill="#EF7448"/>
<path d="M12.5 24H4.5V40H12.5V24Z" fill="#118C46"/>
<path fill-rule="evenodd" clip-rule="evenodd" d="M3.5 24C3.5 23.4477 3.94772 23 4.5 23H12.5C13.0523 23 13.5 23.4477 13.5 24V40C13.5 40.5523 13.0523 41 12.5 41H4.5C3.94772 41 3.5 40.5523 3.5 40V24ZM5.5 25V39H11.5V25H5.5Z" fill="#333333"/>
<path d="M23.6649 41.4236L12.543 37.8756V26.2H23.5559C24.1818 26.2 24.7968 26.3631 25.3404 26.6733L30.3295 29.5208C30.3295 29.5208 41.1773 28.7177 42.8988 28.5896C44.6204 28.4616 45.2309 29.5155 45.364 29.8174C45.4971 30.1193 45.8783 31.617 44.245 32.5437C42.6118 33.4705 28.7509 41.3216 28.7509 41.3216C27.9747 41.7491 27.1065 41.9818 26.2206 41.9996C25.3347 42.0173 24.4576 41.8197 23.6649 41.4236Z" fill="white"/>
<path fill-rule="evenodd" clip-rule="evenodd" d="M11.543 26.2C11.543 25.6477 11.9907 25.2 12.543 25.2H23.5559C24.3556 25.2 25.1415 25.4084 25.8361 25.8048L30.5601 28.501L35.8947 28.106C38.822 27.8892 41.9641 27.6564 42.8247 27.5924C43.9169 27.5112 44.7393 27.8063 45.3229 28.2391C45.8854 28.6564 46.165 29.1553 46.2791 29.414C46.411 29.7133 46.5838 30.3636 46.452 31.1183C46.3097 31.9328 45.8219 32.7988 44.7385 33.4135C43.9215 33.8771 40.0475 36.0718 36.3784 38.1503L29.2444 42.1913C29.2443 42.1914 29.2437 42.1917 28.7509 41.3216L29.2444 42.1913L29.2334 42.1976C28.3155 42.7032 27.2885 42.9783 26.2407 42.9994C25.2198 43.0198 24.2088 42.7985 23.2904 42.3538L12.239 38.8283C11.8244 38.696 11.543 38.3108 11.543 37.8756V26.2ZM28.2634 40.4484L35.3926 36.4101C39.0622 34.3313 42.9353 32.1371 43.7515 31.674C44.3014 31.362 44.4396 31.0158 44.4818 30.7742C44.5064 30.6337 44.5021 30.4981 44.4856 30.3854C44.4721 30.2935 44.4534 30.2358 44.4488 30.2214C44.447 30.2174 44.4473 30.217 44.4488 30.2214C44.4297 30.1782 44.3377 29.9986 44.1313 29.8454C43.946 29.7079 43.6023 29.5401 42.973 29.5869C42.112 29.6509 38.9695 29.8837 36.0424 30.1005L30.4039 30.518C30.4038 30.5181 30.4034 30.5181 30.3295 29.5208L30.4039 30.518C30.2054 30.5327 30.0066 30.4879 29.8338 30.3893L24.8447 27.5418C24.4521 27.3178 24.0079 27.2 23.5559 27.2H13.543V37.1449L23.9689 40.4709C24.018 40.4866 24.0658 40.5061 24.1119 40.5291C24.7597 40.8528 25.4765 41.0143 26.2006 40.9998C26.9226 40.9853 27.6303 40.7961 28.2634 40.4484Z" fill="#333333"/>
<path fill-rule="evenodd" clip-rule="evenodd" d="M28.9746 28.4272C29.4347 28.1218 30.0553 28.2472 30.3608 28.7073C30.6067 29.0779 30.7608 29.5025 30.8089 29.9457C30.8568 30.3879 30.7984 30.8357 30.6372 31.2514C30.4772 31.6642 30.2211 32.0325 29.8904 32.3261L29.6513 32.5437L29.6393 32.5544C28.8534 33.2468 27.8838 33.6966 26.8481 33.8501C25.8124 34.0037 24.7545 33.8543 23.8019 33.4201L22.3341 32.7521C21.8314 32.5233 21.6093 31.9304 21.8381 31.4277C22.0669 30.925 22.6598 30.703 23.1625 30.9317L24.6303 31.5997C25.2319 31.874 25.9007 31.9687 26.5548 31.8718C27.2065 31.7751 27.8166 31.4928 28.3116 31.0587L28.5494 30.8423L28.5607 30.8321C28.6547 30.7492 28.7273 30.6451 28.7724 30.5286C28.8175 30.4124 28.8341 30.2864 28.8205 30.1614C28.8071 30.0375 28.7639 29.9181 28.6944 29.8134C28.389 29.3532 28.5144 28.7326 28.9746 28.4272Z" fill="#333333"/>
</svg>
