<!-- <svg xmlns="http://www.w3.org/2000/svg" xmlns:xlink="http://www.w3.org/1999/xlink" width="40" height="40" viewBox="0 0 40 40"><defs><clipPath id="a"><rect width="40" height="40" fill="currentColor"/></clipPath></defs><g clip-path="url(#a)"><path d="M20,40A20,20,0,1,1,40,20,20.023,20.023,0,0,1,20,40" fill="currentColor"/><path d="M14.87,20A9.971,9.971,0,0,1,5.192,12.5a2,2,0,0,1,3.876-.988,5.992,5.992,0,0,0,11.6,0,2,2,0,1,1,3.876.988A9.971,9.971,0,0,1,14.87,20" transform="translate(5.13 10.999)" fill="currentColor"/><path d="M5,2.5A2.5,2.5,0,1,1,2.5,0,2.5,2.5,0,0,1,5,2.5" transform="translate(11 13)" fill="currentColor"/><path d="M11,2.5A2.5,2.5,0,1,1,8.5,0,2.5,2.5,0,0,1,11,2.5" transform="translate(18 13)" fill="currentColor"/></g></svg> -->



<svg xmlns="http://www.w3.org/2000/svg" xmlns:xlink="http://www.w3.org/1999/xlink" width="40" height="40" viewBox="0 0 40 40"><defs><clipPath id="a"><rect width="40" height="40" fill="#ccebff"/></clipPath></defs><g clip-path="url(#a)"><path d="M20,40A20,20,0,1,1,40,20,20.023,20.023,0,0,1,20,40" fill="#ccebff"/><path d="M14.87,20A9.971,9.971,0,0,1,5.192,12.5a2,2,0,0,1,3.876-.988,5.992,5.992,0,0,0,11.6,0,2,2,0,1,1,3.876.988A9.971,9.971,0,0,1,14.87,20" transform="translate(5.13 10.999)" fill="#2f66d0"/><path d="M5,2.5A2.5,2.5,0,1,1,2.5,0,2.5,2.5,0,0,1,5,2.5" transform="translate(11 13)" fill="#2f66d0"/><path d="M11,2.5A2.5,2.5,0,1,1,8.5,0,2.5,2.5,0,0,1,11,2.5" transform="translate(18 13)" fill="#2f66d0"/></g></svg>