<svg xmlns="http://www.w3.org/2000/svg" width="24" height="24" viewBox="0 0 24 24"><path d="M9474.5-5063a3.506,3.506,0,0,1-3.5-3.5v-13a3.506,3.506,0,0,1,3.5-3.5h11a3.5,3.5,0,0,1,3.5,3.5v12.131l-.033.129a1.253,1.253,0,0,1-.405.6c-.095.1-.233.238-.4.4-.312.317-.741.743-1.2,1.205l-1.2,1.2c-.167.165-.3.3-.4.4a1.141,1.141,0,0,1-.857.436Zm-1.5-16.5v13a1.5,1.5,0,0,0,1.5,1.5h9.6c.647-.641,2.27-2.26,2.9-2.905v-11.6a1.5,1.5,0,0,0-1.5-1.5h-11A1.5,1.5,0,0,0,9473-5079.5Zm5,11.5a1,1,0,0,1-1-1,1,1,0,0,1,1-1h3a1,1,0,0,1,1,1,1,1,0,0,1-1,1Zm0-4a1,1,0,0,1-1-1,1,1,0,0,1,1-1h4a1,1,0,0,1,1,1,1,1,0,0,1-1,1Zm0-4a1,1,0,0,1-1-1,1,1,0,0,1,1-1h4a1,1,0,0,1,1,1,1,1,0,0,1-1,1Z" transform="translate(-9468 5085)" fill="currentColor"/><rect width="24" height="24" fill="none"/></svg>