<svg width="49" height="48" viewBox="0 0 49 48" fill="none" xmlns="http://www.w3.org/2000/svg">
<path d="M11.8328 7H37.1672C38.0041 7.00519 38.8317 7.17421 39.6029 7.4974C40.374 7.82058 41.0736 8.29161 41.6616 8.88359C42.2497 9.47557 42.7147 10.1769 43.0301 10.9475C43.3455 11.7182 43.5051 12.543 43.4999 13.375V34.625C43.5051 35.457 43.3455 36.2818 43.0301 37.0525C42.7147 37.8231 42.2497 38.5244 41.6616 39.1164C41.0736 39.7084 40.374 40.1794 39.6029 40.5026C38.8317 40.8258 38.0041 40.9948 37.1672 41H11.8328C10.9959 40.9948 10.1683 40.8258 9.39713 40.5026C8.62597 40.1794 7.9264 39.7084 7.33835 39.1164C6.75031 38.5244 6.28531 37.8231 5.96991 37.0525C5.6545 36.2818 5.49487 35.457 5.50013 34.625V13.375C5.49487 12.543 5.6545 11.7182 5.96991 10.9475C6.28531 10.1769 6.75031 9.47557 7.33835 8.88359C7.9264 8.29161 8.62597 7.82058 9.39713 7.4974C10.1683 7.17421 10.9959 7.00519 11.8328 7Z" fill="white"/>
<path fill-rule="evenodd" clip-rule="evenodd" d="M11.8328 6H37.1734C38.1408 6.006 39.0976 6.20139 39.9894 6.57512C40.8811 6.94885 41.6905 7.4937 42.3711 8.17884C43.0517 8.864 43.5902 9.67604 43.9556 10.5688C44.3206 11.4605 44.5055 12.4151 44.4999 13.3782V34.6218C44.5055 35.5849 44.3206 36.5395 43.9556 37.4312C43.5902 38.324 43.0517 39.136 42.3711 39.8212C41.6905 40.5063 40.8812 41.0512 39.9894 41.4249C39.0976 41.7986 38.1408 41.994 37.1734 42L37.1672 42H11.8328L11.8266 42C10.8592 41.994 9.90235 41.7986 9.01061 41.4249C8.11885 41.0512 7.30949 40.5063 6.6289 39.8212C5.94829 39.136 5.40978 38.324 5.04442 37.4312C4.67946 36.5395 4.49447 35.585 4.50013 34.622V13.378C4.49447 12.415 4.67946 11.4605 5.04442 10.5688C5.40978 9.67604 5.94829 8.864 6.6289 8.17884C7.30949 7.4937 8.11885 6.94885 9.01061 6.57512C9.90235 6.20139 10.8592 6.00602 11.8266 6.00002L11.8328 6ZM11.836 8C11.1307 8.00476 10.4333 8.14741 9.78365 8.41968C9.13309 8.69232 8.54331 9.08953 8.04781 9.58834C7.55233 10.0871 7.16083 10.6777 6.89539 11.3263C6.62995 11.9749 6.49568 12.6688 6.50011 13.3687L6.50015 13.375L6.50013 34.6313C6.4957 35.3312 6.62995 36.0251 6.89539 36.6737C7.16083 37.3223 7.55233 37.9129 8.04781 38.4117C8.54331 38.9105 9.1331 39.3077 9.78365 39.5803C10.4333 39.8526 11.1307 39.9952 11.836 40H37.164C37.8693 39.9952 38.5667 39.8526 39.2164 39.5803C39.8669 39.3077 40.4567 38.9105 40.9522 38.4117C41.4477 37.9129 41.8392 37.3223 42.1046 36.6737C42.37 36.0251 42.5043 35.3312 42.4999 34.6313L42.4999 34.625V13.375L42.4999 13.3687C42.5043 12.6688 42.37 11.9749 42.1046 11.3263C41.8392 10.6777 41.4477 10.0871 40.9522 9.58834C40.4567 9.08953 39.8669 8.69232 39.2164 8.41968C38.5667 8.14741 37.8693 8.00476 37.164 8H11.836Z" fill="#333333"/>
<path fill-rule="evenodd" clip-rule="evenodd" d="M23.5 40L23.5 8L25.5 8L25.5 40L23.5 40Z" fill="#2C9AA3"/>
<path fill-rule="evenodd" clip-rule="evenodd" d="M21.5 16C21.5 15.4477 21.9477 15 22.5 15H26.5C27.0523 15 27.5 15.4477 27.5 16C27.5 16.5523 27.0523 17 26.5 17H22.5C21.9477 17 21.5 16.5523 21.5 16Z" fill="#2C9AA3"/>
<path fill-rule="evenodd" clip-rule="evenodd" d="M21.5 24C21.5 23.4477 21.9477 23 22.5 23H26.5C27.0523 23 27.5 23.4477 27.5 24C27.5 24.5523 27.0523 25 26.5 25H22.5C21.9477 25 21.5 24.5523 21.5 24Z" fill="#2C9AA3"/>
<path fill-rule="evenodd" clip-rule="evenodd" d="M21.5 32C21.5 31.4477 21.9477 31 22.5 31H26.5C27.0523 31 27.5 31.4477 27.5 32C27.5 32.5523 27.0523 33 26.5 33H22.5C21.9477 33 21.5 32.5523 21.5 32Z" fill="#2C9AA3"/>
<path d="M34.107 16.7406L32.493 18.1394C32.1044 18.4762 31.5 18.2002 31.5 17.686V6H37.5V17.686C37.5 18.2002 36.8956 18.4762 36.507 18.1394L34.893 16.7406C34.6674 16.5451 34.3326 16.5451 34.107 16.7406Z" fill="#F57105"/>
</svg>
