<svg xmlns="http://www.w3.org/2000/svg" width="24" height="24" viewBox="0 0 24 24"><g transform="translate(3.5 8.029)"><path d="M9382.5-5071.028a4.005,4.005,0,0,1-4-4v-1a1,1,0,0,1,1-1,1,1,0,0,1,1,1v1a2,2,0,0,0,2,2h12a2,2,0,0,0,2-2v-12a2.005,2.005,0,0,0-2-2h-12a2,2,0,0,0-2,2v1a1,1,0,0,1-1,1,1,1,0,0,1-1-1v-1a4.005,4.005,0,0,1,4-4h12a4.006,4.006,0,0,1,4,4v12a4.006,4.006,0,0,1-4,4Zm.295-5.293-4-4a1,1,0,0,1,0-1.415l4-4a1,1,0,0,1,1.413,0,1,1,0,0,1,0,1.415l-2.293,2.293h7.586a1,1,0,0,1,1,1,1,1,0,0,1-1,1h-7.586l2.293,2.292a1,1,0,0,1,0,1.416,1,1,0,0,1-.708.292A1,1,0,0,1,9382.794-5076.321Z" transform="translate(-9380 5085)" fill="currentColor"/></g><rect width="24" height="24" fill="none"/></svg>