<svg width="40" height="40" viewBox="0 0 40 40" fill="none" xmlns="http://www.w3.org/2000/svg">
<mask id="mask0_296_2470" style="mask-type:luminance" maskUnits="userSpaceOnUse" x="0" y="0" width="40" height="40">
<path d="M40 0H0V40H40V0Z" fill="white"/>
</mask>
<g mask="url(#mask0_296_2470)">
<path d="M20 40C16.0444 40 12.1776 38.827 8.8886 36.6294C5.59962 34.4318 3.03617 31.3082 1.52242 27.6537C0.00866568 23.9992 -0.387401 19.9778 0.384303 16.0982C1.15601 12.2186 3.06082 8.65492 5.85787 5.85787C8.65492 3.06082 12.2186 1.15601 16.0982 0.384303C19.9778 -0.387401 23.9992 0.00866568 27.6537 1.52242C31.3082 3.03617 34.4318 5.59962 36.6294 8.8886C38.827 12.1776 40 16.0444 40 20C39.9939 25.3025 37.8848 30.386 34.1354 34.1354C30.386 37.8848 25.3025 39.9939 20 40Z" fill="#C2EDFF"/>
<path d="M20 30.9988C17.7825 31.0028 15.627 30.2675 13.8742 28.9092C12.1215 27.5509 10.8715 25.6471 10.322 23.4988C10.1943 22.9859 10.2747 22.4433 10.5458 21.9896C10.8169 21.5359 11.2565 21.2079 11.7687 21.0773C12.2809 20.9468 12.8239 21.0243 13.2791 21.2929C13.7343 21.5615 14.0646 21.9993 14.198 22.5108C14.5313 23.7954 15.2817 24.9331 16.3314 25.7453C17.3811 26.5574 18.6708 26.9981 19.998 26.9981C21.3252 26.9981 22.6149 26.5574 23.6646 25.7453C24.7143 24.9331 25.4647 23.7954 25.798 22.5108C25.8617 22.255 25.9753 22.0144 26.1323 21.8027C26.2894 21.591 26.4867 21.4124 26.7129 21.2772C26.9392 21.1421 27.1899 21.0529 27.4507 21.015C27.7116 20.977 27.9773 20.991 28.2327 21.0561C28.4881 21.1212 28.7281 21.2362 28.9389 21.3943C29.1498 21.5525 29.3273 21.7508 29.4612 21.9778C29.5951 22.2048 29.6829 22.456 29.7194 22.717C29.7559 22.978 29.7405 23.2437 29.674 23.4988C29.1246 25.6464 27.8753 27.5497 26.1233 28.9079C24.3714 30.2662 22.2168 31.0019 20 30.9988Z" fill="#0099D9"/>
<path d="M16 15.5C16 15.9945 15.8534 16.4778 15.5787 16.8889C15.304 17.3 14.9135 17.6205 14.4567 17.8097C13.9999 17.9989 13.4972 18.0484 13.0123 17.952C12.5273 17.8555 12.0819 17.6174 11.7322 17.2678C11.3826 16.9181 11.1445 16.4727 11.048 15.9877C10.9516 15.5028 11.0011 15.0001 11.1903 14.5433C11.3795 14.0865 11.7 13.696 12.1111 13.4213C12.5222 13.1466 13.0055 13 13.5 13C14.163 13 14.7989 13.2634 15.2678 13.7322C15.7366 14.2011 16 14.837 16 15.5Z" fill="#0099D9"/>
<path d="M29 15.5C29 15.9945 28.8534 16.4778 28.5787 16.8889C28.304 17.3 27.9135 17.6205 27.4567 17.8097C26.9999 17.9989 26.4972 18.0484 26.0123 17.952C25.5273 17.8555 25.0819 17.6174 24.7322 17.2678C24.3826 16.9181 24.1445 16.4727 24.048 15.9877C23.9516 15.5028 24.0011 15.0001 24.1903 14.5433C24.3795 14.0865 24.7 13.696 25.1111 13.4213C25.5222 13.1466 26.0055 13 26.5 13C27.163 13 27.7989 13.2634 28.2678 13.7322C28.7366 14.2011 29 14.837 29 15.5Z" fill="#0099D9"/>
</g>
</svg>
