<svg width="40" height="40" viewBox="0 0 40 40" fill="none" xmlns="http://www.w3.org/2000/svg">
<path fill-rule="evenodd" clip-rule="evenodd" d="M13.5 4C14.3284 4 15 4.67157 15 5.5V7H25V5.5C25 4.67157 25.6716 4 26.5 4C27.3284 4 28 4.67157 28 5.5V7H29C32.3137 7 35 9.68629 35 13V29C35 32.3137 32.3137 35 29 35H11C7.68629 35 5 32.3137 5 29V13C5 9.68629 7.68629 7 11 7H12V5.5C12 4.67157 12.6716 4 13.5 4ZM12 10H11C9.34315 10 8 11.3431 8 13V29C8 30.6569 9.34315 32 11 32H29C30.6569 32 32 30.6569 32 29V13C32 11.3431 30.6569 10 29 10H28V11.5C28 12.3284 27.3284 13 26.5 13C25.6716 13 25 12.3284 25 11.5V10H15V11C15 11.8284 14.3284 12.5 13.5 12.5C12.6716 12.5 12 11.8284 12 11V10Z" fill="#0099D9"/>
<path d="M15 21L17.5858 23.5858C18.3668 24.3668 19.6332 24.3668 20.4142 23.5858L26 18" stroke="#F74F4F" stroke-width="3" stroke-linecap="round"/>
</svg>
