<svg xmlns="http://www.w3.org/2000/svg" width="24" height="24" viewBox="0 0 24 24"><path d="M9123-5063a5,5,0,0,1-5-5v-10a5,5,0,0,1,5-5h10a5.006,5.006,0,0,1,5,5v10a5.006,5.006,0,0,1-5,5Zm-3-5a3,3,0,0,0,3,3h9.5l-6.378-6.086a3.413,3.413,0,0,0-4.653,0,.6.6,0,0,1-.058.048l-1.415,1.158Zm7.507-4.534,7.277,6.945A3,3,0,0,0,9136-5068v-10a3,3,0,0,0-3-3h-10a3,3,0,0,0-3,3v5.537l.122-.1A5.34,5.34,0,0,1,9123.8-5074,5.348,5.348,0,0,1,9127.507-5072.535ZM9128-5076a3,3,0,0,1,3-3,3,3,0,0,1,3,3,3,3,0,0,1-3,3A3,3,0,0,1,9128-5076Zm2,0a1,1,0,0,0,1,1,1,1,0,0,0,1-1,1,1,0,0,0-1-1A1,1,0,0,0,9130-5076Z" transform="translate(-9116 5085)" fill="currentColor"/><rect width="24" height="24" fill="none"/></svg>