<svg width="40" height="40" viewBox="0 0 40 40" fill="none" xmlns="http://www.w3.org/2000/svg">
<path d="M31.9 34H8.09993C6.72807 33.9781 5.42081 33.4132 4.4648 32.4291C3.50878 31.445 2.98204 30.1219 2.99995 28.75V11.25C2.98204 9.87808 3.50878 8.55504 4.4648 7.57091C5.42081 6.58678 6.72807 6.02185 8.09993 6H31.9C33.2718 6.02185 34.5791 6.58678 35.5351 7.57091C36.4911 8.55504 37.0179 9.87808 37 11.25V28.75C37.0179 30.1219 36.4911 31.445 35.5351 32.4291C34.5791 33.4132 33.2718 33.9781 31.9 34Z" fill="#C2EDFF"/>
<path d="M21.595 6H18.407V34H21.595V6Z" fill="#0099D9"/>
<path d="M21.594 14.75H18.407C17.9717 14.7083 17.5676 14.506 17.2736 14.1824C16.9795 13.8588 16.8165 13.4372 16.8165 13C16.8165 12.5628 16.9795 12.1412 17.2736 11.8176C17.5676 11.494 17.9717 11.2917 18.407 11.25H21.595C22.0302 11.2917 22.4343 11.494 22.7284 11.8176C23.0225 12.1412 23.1854 12.5628 23.1854 13C23.1854 13.4372 23.0225 13.8588 22.7284 14.1824C22.4343 14.506 22.0293 14.7083 21.594 14.75Z" fill="#0099D9"/>
<path d="M21.594 21.75H18.407C17.9717 21.7083 17.5676 21.506 17.2736 21.1824C16.9795 20.8588 16.8165 20.4372 16.8165 20C16.8165 19.5628 16.9795 19.1412 17.2736 18.8176C17.5676 18.494 17.9717 18.2917 18.407 18.25H21.595C22.0302 18.2917 22.4343 18.494 22.7284 18.8176C23.0225 19.1412 23.1854 19.5628 23.1854 20C23.1854 20.4372 23.0225 20.8588 22.7284 21.1824C22.4343 21.506 22.0293 21.7083 21.594 21.75Z" fill="#0099D9"/>
<path d="M21.594 28.75H18.407C17.9717 28.7083 17.5676 28.506 17.2736 28.1824C16.9795 27.8588 16.8165 27.4372 16.8165 27C16.8165 26.5628 16.9795 26.1412 17.2736 25.8176C17.5676 25.494 17.9717 25.2917 18.407 25.25H21.595C22.0302 25.2917 22.4343 25.494 22.7284 25.8176C23.0225 26.1412 23.1854 26.5628 23.1854 27C23.1854 27.4372 23.0225 27.8588 22.7284 28.1824C22.4343 28.506 22.0293 28.7083 21.594 28.75Z" fill="#0099D9"/>
</svg>
