<svg xmlns="http://www.w3.org/2000/svg" width="24" height="24" viewBox="0 0 24 24"><path d="M8597-5062a3,3,0,0,1-3-3v-12h2v12a1,1,0,0,0,1,1h10a1,1,0,0,0,1-1v-12h2v12a3,3,0,0,1-3,3Zm6-6v-5a1,1,0,0,1,1-1,1,1,0,0,1,1,1v5a1,1,0,0,1-1,1A1,1,0,0,1,8603-5068Zm-4,0v-5a1,1,0,0,1,1-1,1,1,0,0,1,1,1v5a1,1,0,0,1-1,1A1,1,0,0,1,8599-5068Zm-6-9a1,1,0,0,1-1-1,1,1,0,0,1,1-1h6v-2a2,2,0,0,1,2-2h2a2,2,0,0,1,2,2v2h6a1,1,0,0,1,1,1,1,1,0,0,1-1,1Zm10-2v-2h-2v2Z" transform="translate(-8590 5084)" fill="currentColor"/><rect width="24" height="24" fill="none"/></svg>