<svg xmlns="http://www.w3.org/2000/svg" width="24" height="24" viewBox="0 0 24 24"><g transform="translate(-2 -2)"><path d="M9693-5070a1,1,0,0,1,1-1,1,1,0,0,1,1,1,9.01,9.01,0,0,0,9,9,9.011,9.011,0,0,0,9-9,9.012,9.012,0,0,0-9-9,8.965,8.965,0,0,0-6.159,2.445h1.715a1,1,0,0,1,1,1,1,1,0,0,1-1,1h-4.442a1,1,0,0,1-1-1V-5080a1,1,0,0,1,1-1,1,1,0,0,1,1,1v2.344A10.959,10.959,0,0,1,9704-5081a11.013,11.013,0,0,1,11,11,11.013,11.013,0,0,1-11,11A11.012,11.012,0,0,1,9693-5070Zm13.293,3.706-3-3A1,1,0,0,1,9703-5070v-5a1,1,0,0,1,1-1,1,1,0,0,1,1,1v4.586l2.709,2.707a1,1,0,0,1,0,1.414,1,1,0,0,1-.707.292A1,1,0,0,1,9706.294-5066.293Z" transform="translate(-9690 5084)" fill="currentColor"/></g><rect width="24" height="24" fill="none"/></svg>