<svg xmlns="http://www.w3.org/2000/svg" width="24" height="24" viewBox="0 0 24 24"><g transform="translate(-71.6 -71.6)"><g transform="translate(73.6 84.135)"><path d="M77.8,140.4a2.1,2.1,0,1,1-2.1-2.1h2.1Z" transform="translate(-73.6 -138.3)" fill="currentColor"/><path d="M105.9,140.4a2.1,2.1,0,1,1,4.2,0v5.262a2.1,2.1,0,1,1-4.2,0Z" transform="translate(-100.638 -138.3)" fill="currentColor"/></g><g transform="translate(73.6 73.6)"><path d="M108,77.8a2.1,2.1,0,1,1,2.1-2.1v2.1Z" transform="translate(-100.638 -73.6)" fill="currentColor"/><path d="M80.963,105.9a2.1,2.1,0,0,1,0,4.2H75.7a2.1,2.1,0,0,1,0-4.2Z" transform="translate(-73.6 -100.638)" fill="currentColor"/></g><g transform="translate(84.135 73.6)"><path d="M170.6,108a2.1,2.1,0,1,1,2.1,2.1h-2.1Z" transform="translate(-165.338 -100.638)" fill="currentColor"/><path d="M142.5,80.963a2.1,2.1,0,0,1-4.2,0V75.7a2.1,2.1,0,0,1,4.2,0Z" transform="translate(-138.3 -73.6)" fill="currentColor"/></g><g transform="translate(84.135 84.135)"><path d="M140.4,170.6a2.1,2.1,0,1,1-2.1,2.1v-2.1Z" transform="translate(-138.3 -165.338)" fill="currentColor"/><path d="M140.4,142.5a2.1,2.1,0,1,1,0-4.2h5.262a2.1,2.1,0,1,1,0,4.2Z" transform="translate(-138.3 -138.3)" fill="currentColor"/></g></g><rect width="24" height="24" fill="none"/></svg>