<svg xmlns="http://www.w3.org/2000/svg" width="24.001" height="24" viewBox="0 0 24.001 24"><rect width="24" height="24" transform="translate(0)" fill="none"/><path d="M8955.393-5106.291a1.009,1.009,0,0,1-.279-.877l.448-2.588a1.011,1.011,0,0,1,.278-.536l5.345-5.344a2.493,2.493,0,0,1,1.775-.736,2.5,2.5,0,0,1,1.777.736,2.493,2.493,0,0,1,.738,1.775,2.5,2.5,0,0,1-.738,1.778l-5.344,5.344a1.007,1.007,0,0,1-.538.279l-2.585.446a.89.89,0,0,1-.172.016A1,1,0,0,1,8955.393-5106.291Zm7.205-7.932-5.119,5.122-.15.875.875-.151,5.121-5.119a.515.515,0,0,0,0-.727.514.514,0,0,0-.364-.15A.513.513,0,0,0,8962.6-5114.223ZM8946-5107a3,3,0,0,1-3-3v-9a.994.994,0,0,1-.864-.5,1,1,0,0,1-.007-1l3.418-6a1,1,0,0,1,.869-.5h6.355l.415-.581A1,1,0,0,1,8954-5128a1,1,0,0,1,.814.421l.415.581h6.355a1,1,0,0,1,.868.5l3.416,6a1,1,0,0,1,0,1,1,1,0,0,1-.864.5h-6v2.6a1,1,0,0,1-1,1,1,1,0,0,1-1-1l0-2.6h-6v10h1.3a1,1,0,0,1,1,1,1,1,0,0,1-1,1Zm-1-3a1,1,0,0,0,1,1h3v-10h-4Zm18.28-11-2.277-4h-4.344l2.856,4Zm-6.222,0-3.058-4.28-3.057,4.28Zm-12.338,0h3.767l2.857-4H8947Zm7.781,6a1.5,1.5,0,0,1,1.5-1.5,1.5,1.5,0,0,1,1.5,1.5,1.5,1.5,0,0,1-1.5,1.5A1.5,1.5,0,0,1,8952.5-5115Z" transform="translate(-8942 5129)" fill="currentColor"/></svg>