<svg xmlns="http://www.w3.org/2000/svg" width="24" height="24" viewBox="0 0 24 24"><path d="M8820.766-5061.378l-4.346-1.79v.049a1,1,0,0,1-1,1H8811a1,1,0,0,1-1-1v-7.823a1,1,0,0,1,1-1h4.421a1,1,0,0,1,1,1v.118h5.336a1,1,0,0,1,.519.146l2.049,1.244a1.953,1.953,0,0,1,.69.7l5.614-.96a.993.993,0,0,1,.561.066l.546.23a2.007,2.007,0,0,1,1.261,1.718,1.966,1.966,0,0,1-1.03,1.818l-7.748,4.389a3.687,3.687,0,0,1-1.812.472A3.685,3.685,0,0,1,8820.766-5061.378Zm.8-1.835c.024.011.049.022.073.036a1.743,1.743,0,0,0,1.594-.031l7.689-4.356-.243-.1-5.783.99a2.027,2.027,0,0,1-.26.287l-.122.111a3.174,3.174,0,0,1-2.135.81,3.23,3.23,0,0,1-1.335-.286l-.733-.335a1,1,0,0,1-.494-1.323,1,1,0,0,1,1.323-.5l.736.335a1.214,1.214,0,0,0,1.29-.182l.026-.022-1.716-1.042h-5.055v3.494Zm-9.563-.9h2.421v-.521a.391.391,0,0,1,0-.048v-5.255H8812Zm12.749-9.258c-2.525-1.893-5.744-4.724-4.547-7.453a3.445,3.445,0,0,1,2.641-2.155,2.592,2.592,0,0,1,.3-.018,3.4,3.4,0,0,1,2.238.9,3.43,3.43,0,0,1,2.222-.878,2.605,2.605,0,0,1,.3.016,3.5,3.5,0,0,1,2.641,2.093.025.025,0,0,1,0,.006c1.2,2.727-2.046,5.578-4.591,7.484a1,1,0,0,1-.6.2A1,1,0,0,1,8824.749-5073.376Zm-1.7-7.619c-.609.064-.974.865-1.011.956l-.007.011c-.306.7.314,1.578.519,1.867a14.425,14.425,0,0,0,2.8,2.724,14.6,14.6,0,0,0,2.817-2.742c.561-.782.743-1.414.541-1.875v0c-.016-.033-.384-.849-1.018-.914-.028,0-.06,0-.091,0a1.777,1.777,0,0,0-1.372.944,1,1,0,0,1-.858.486h-.006a1,1,0,0,1-.858-.5,1.761,1.761,0,0,0-1.365-.958A.583.583,0,0,0,8823.051-5081Z" transform="translate(-8809 5084)" fill="currentColor"/><rect width="24" height="24" fill="none"/></svg>