<!-- <svg xmlns="http://www.w3.org/2000/svg" width="40" height="40" viewBox="0 0 40 40"><rect width="40" height="40" fill="none"/><g transform="translate(-1720 -238)"><g transform="translate(1723 244)"><path d="M1752.9,272h-23.8a5.183,5.183,0,0,1-5.1-5.25v-17.5a5.183,5.183,0,0,1,5.1-5.25h23.8a5.183,5.183,0,0,1,5.1,5.25v17.5A5.183,5.183,0,0,1,1752.9,272Z" transform="translate(-1724 -244)" fill="currentColor"/></g><g transform="translate(1736.813 244)"><g transform="translate(1.594)"><rect width="3.188" height="28" fill="currentColor"/></g><g transform="translate(0 5.25)"><path d="M1736.781,250.5h-3.187a1.758,1.758,0,0,1,0-3.5h3.188a1.758,1.758,0,0,1,0,3.5Z" transform="translate(-1732 -247)" fill="currentColor"/></g><g transform="translate(0 12.25)"><path d="M1736.781,254.5h-3.187a1.758,1.758,0,0,1,0-3.5h3.188a1.758,1.758,0,0,1,0,3.5Z" transform="translate(-1732 -251)" fill="currentColor"/></g><g transform="translate(0 19.25)"><path d="M1736.781,258.5h-3.187a1.758,1.758,0,0,1,0-3.5h3.188a1.758,1.758,0,0,1,0,3.5Z" transform="translate(-1732 -255)" fill="currentColor"/></g></g></g></svg> -->

<svg xmlns="http://www.w3.org/2000/svg" width="40" height="40" viewBox="0 0 40 40"><rect width="40" height="40" fill="none"/><g transform="translate(-1720 -238)"><g transform="translate(1723 244)"><path d="M1752.9,272h-23.8a5.183,5.183,0,0,1-5.1-5.25v-17.5a5.183,5.183,0,0,1,5.1-5.25h23.8a5.183,5.183,0,0,1,5.1,5.25v17.5A5.183,5.183,0,0,1,1752.9,272Z" transform="translate(-1724 -244)" fill="#cae8fe"/></g><g transform="translate(1736.813 244)"><g transform="translate(1.594)"><rect width="3.188" height="28" fill="#2f66d0"/></g><g transform="translate(0 5.25)"><path d="M1736.781,250.5h-3.187a1.758,1.758,0,0,1,0-3.5h3.188a1.758,1.758,0,0,1,0,3.5Z" transform="translate(-1732 -247)" fill="#2f66d0"/></g><g transform="translate(0 12.25)"><path d="M1736.781,254.5h-3.187a1.758,1.758,0,0,1,0-3.5h3.188a1.758,1.758,0,0,1,0,3.5Z" transform="translate(-1732 -251)" fill="#2f66d0"/></g><g transform="translate(0 19.25)"><path d="M1736.781,258.5h-3.187a1.758,1.758,0,0,1,0-3.5h3.188a1.758,1.758,0,0,1,0,3.5Z" transform="translate(-1732 -255)" fill="#2f66d0"/></g></g></g></svg>