<svg xmlns="http://www.w3.org/2000/svg" width="24" height="24" viewBox="0 0 24 24"><path d="M9215.127-5068H9207a1,1,0,0,1-1-1,1,1,0,0,1,1-1h8.127a4.007,4.007,0,0,1,3.874-3,4.007,4.007,0,0,1,3.872,3H9225a1,1,0,0,1,1,1,1,1,0,0,1-1,1h-2.127a4.007,4.007,0,0,1-3.872,3A4.008,4.008,0,0,1,9215.127-5068Zm1.874-1a2,2,0,0,0,2,2,2,2,0,0,0,2-2,2,2,0,0,0-2-2A2,2,0,0,0,9217-5069Zm-6.873-9H9207a1,1,0,0,1-1-1,1,1,0,0,1,1-1h3.128a4,4,0,0,1,3.872-3,4.007,4.007,0,0,1,3.874,3H9225a1,1,0,0,1,1,1,1,1,0,0,1-1,1h-7.126a4.007,4.007,0,0,1-3.874,3A4,4,0,0,1,9210.128-5078Zm1.871-1a2,2,0,0,0,2,2,2,2,0,0,0,2-2,2,2,0,0,0-2-2A2,2,0,0,0,9212-5079Z" transform="translate(-9204 5086)" fill="currentColor"/><rect width="24" height="24" fill="none"/></svg>