<svg xmlns="http://www.w3.org/2000/svg" width="24" height="24" viewBox="0 0 24 24"><path d="M8637.223-5064.221A10.937,10.937,0,0,1,8634-5072a10.937,10.937,0,0,1,3.222-7.779A10.928,10.928,0,0,1,8645-5083a10.933,10.933,0,0,1,7.779,3.222A10.937,10.937,0,0,1,8656-5072a10.937,10.937,0,0,1-3.222,7.779A10.933,10.933,0,0,1,8645-5061,10.928,10.928,0,0,1,8637.223-5064.221ZM8636-5072a9.012,9.012,0,0,0,9,9,9.011,9.011,0,0,0,9-9,9.011,9.011,0,0,0-9-9A9.012,9.012,0,0,0,8636-5072Zm8,4.262V-5071h-3.263a1,1,0,0,1-1-1,1,1,0,0,1,1-1H8644v-3.263a1,1,0,0,1,1-1,1,1,0,0,1,1,1V-5073h3.261a1,1,0,0,1,1,1,1,1,0,0,1-1,1H8646v3.263a1,1,0,0,1-1,1A1,1,0,0,1,8644-5067.738Z" transform="translate(-8633 5084)" fill="currentColor"/><rect width="24" height="24" fill="none"/></svg>