<svg xmlns="http://www.w3.org/2000/svg" width="24" height="24" viewBox="0 0 24 24"><path d="M9203.374-5106.221a.993.993,0,0,1-.331-1.067l2.912-9.712-2.912-9.712a1,1,0,0,1,.331-1.067,1,1,0,0,1,.625-.22,1,1,0,0,1,.486.125l18,10a1,1,0,0,1,.514.873,1,1,0,0,1-.514.875l-18,10a.985.985,0,0,1-.483.126A1,1,0,0,1,9203.374-5106.221Zm2.292-2.847L9219.94-5117l-14.274-7.93,2.077,6.93H9212a1,1,0,0,1,1,1,1,1,0,0,1-1,1h-4.258Z" transform="translate(-9201 5129)" fill="currentColor"/><rect width="24" height="24" fill="none"/></svg>