<svg xmlns="http://www.w3.org/2000/svg" width="24" height="24" viewBox="0 0 24 24"><path d="M9425.528-5107.119A1,1,0,0,1,9425-5108l0-16.749a3.254,3.254,0,0,1,3.25-3.25h13.5a3.254,3.254,0,0,1,3.25,3.25v11.449a3.311,3.311,0,0,1-.941,2.313,3.2,3.2,0,0,1-2.309.986H9430.8l-4.245,2.833a1.007,1.007,0,0,1-.555.168A.988.988,0,0,1,9425.528-5107.119ZM9427-5124.75v14.881l2.946-1.963a.979.979,0,0,1,.555-.168h11.25a1.292,1.292,0,0,0,1.249-1.3v-11.449a1.251,1.251,0,0,0-1.249-1.251h-13.5A1.253,1.253,0,0,0,9427-5124.75Zm5,8.749a1,1,0,0,1-1-1,1,1,0,0,1,1-1h6a1,1,0,0,1,1,1,1,1,0,0,1-1,1Zm0-4a1,1,0,0,1-1-1,1,1,0,0,1,1-1h6a1,1,0,0,1,1,1,1,1,0,0,1-1,1Z" transform="translate(-9423 5130)" fill="currentColor"/><rect width="24" height="24" fill="none"/></svg>