<svg xmlns="http://www.w3.org/2000/svg" width="24" height="24" viewBox="0 0 24 24"><path d="M10.074.13a1,1,0,0,1,.9.555l2.548,5.126,5.7.823a1,1,0,0,1,.553,1.708L15.65,12.33l.972,5.629a1,1,0,0,1-1.448,1.057l-5.1-2.663-5.1,2.662A1,1,0,0,1,3.527,17.96L4.5,12.33.379,8.342A1,1,0,0,1,.931,6.634l5.7-.823L9.179.685A1,1,0,0,1,10.074.13Zm6.841,8.192-4.2-.607a1,1,0,0,1-.753-.545L10.074,3.377,8.189,7.171a1,1,0,0,1-.753.545l-4.2.607L6.27,11.261a1,1,0,0,1,.29.889l-.718,4.158,3.77-1.968a1,1,0,0,1,.926,0l3.77,1.968-.718-4.158a1,1,0,0,1,.29-.889Z" transform="translate(1.926 1.87)" fill="currentColor"/><path d="M0,0H24V24H0Z" fill="none"/></svg>