<svg xmlns="http://www.w3.org/2000/svg" width="24" height="24" viewBox="0 0 24 24"><rect width="24" height="24" transform="translate(0)" fill="none"/><path d="M8919.954-5106.741v-.26a1,1,0,0,0-1-1H8916.5a1,1,0,0,0-1,1v.26a1,1,0,0,1-1,1,1,1,0,0,1-1-1v-.26a3,3,0,0,1,3-3h2.456a3,3,0,0,1,3,3v.26a1,1,0,0,1-1,1A1,1,0,0,1,8919.954-5106.741ZM8902-5107a3,3,0,0,1-3-3v-9a1,1,0,0,1-.864-.5,1,1,0,0,1,0-1l3.414-6a1,1,0,0,1,.869-.506h6.356l.415-.58A1,1,0,0,1,8910-5128a1,1,0,0,1,.813.419l.415.58h6.356a1,1,0,0,1,.869.506l3.414,6a1,1,0,0,1,0,1,1,1,0,0,1-.864.5h-6v1a1,1,0,0,1-1,1,1,1,0,0,1-1-1v-1h-6v10h3a1,1,0,0,1,1,1,1,1,0,0,1-1,1Zm-1-3a1,1,0,0,0,1,1h3v-10h-4Zm18.28-11-2.277-4h-4.345l2.856,4Zm-6.224,0-3.056-4.279-3.058,4.279Zm-12.337,0h3.766l2.856-4H8903Zm14.008,7.21a3,3,0,0,1,3-3,3,3,0,0,1,3,3,3,3,0,0,1-3,3A3,3,0,0,1,8914.728-5113.79Zm2,0a1,1,0,0,0,1,1,1,1,0,0,0,1-1,1,1,0,0,0-1-1A1,1,0,0,0,8916.728-5113.79ZM8908.5-5115a1.5,1.5,0,0,1,1.5-1.5,1.5,1.5,0,0,1,1.5,1.5,1.5,1.5,0,0,1-1.5,1.5A1.5,1.5,0,0,1,8908.5-5115Z" transform="translate(-8898 5129)" fill="currentColor"/></svg>