<svg xmlns="http://www.w3.org/2000/svg" width="24" height="24" viewBox="0 0 24 24"><path d="M9607-5106a4.006,4.006,0,0,1-4-4v-6a4.005,4.005,0,0,1,4-4v-2a6.007,6.007,0,0,1,6-6,6.007,6.007,0,0,1,6,6v2a4.005,4.005,0,0,1,4,4v6a4.006,4.006,0,0,1-4,4Zm-2-10v6a2,2,0,0,0,2,2h12a2,2,0,0,0,2-2v-6a2,2,0,0,0-2-2h-12A2,2,0,0,0,9605-5116Zm12-4v-2a4,4,0,0,0-4-4,4,4,0,0,0-4,4v2Zm-5,9v-2a1,1,0,0,1-1-1,1,1,0,0,1,1-1h2a1,1,0,0,1,1,1,1,1,0,0,1-1,1v2a1,1,0,0,1-1,1A1,1,0,0,1,9612-5111Z" transform="translate(-9601 5129)" fill="currentColor"/><rect width="24" height="24" fill="none"/></svg>