<svg xmlns="http://www.w3.org/2000/svg" width="24" height="24" viewBox="0 0 24 24"><path d="M9833.9-4511a2.9,2.9,0,0,1-2.9-2.9v-6.19a2.9,2.9,0,0,1,2.9-2.9h.187a4.66,4.66,0,0,1-.08-.843,7.088,7.088,0,0,1,7-7.157,7.087,7.087,0,0,1,7,7.157,4.66,4.66,0,0,1-.08.843h.188a2.9,2.9,0,0,1,2.9,2.9v6.19a2.9,2.9,0,0,1-2.9,2.9Zm-.9-9.093v6.19a.9.9,0,0,0,.9.9h14.21a.9.9,0,0,0,.9-.9v-6.19a.9.9,0,0,0-.9-.9h-.917a14.788,14.788,0,0,1-2.225,3.033,19.964,19.964,0,0,1-2.148,2c-1.12.89-1.525.964-1.819.964s-.7-.077-1.817-.964a20.086,20.086,0,0,1-2.144-2,14.788,14.788,0,0,1-2.225-3.033h-.915A.9.9,0,0,0,9833-4520.094Zm3-3.748c0,1.108.811,2.628,2.279,4.275a16.14,16.14,0,0,0,2.717,2.462,16.105,16.105,0,0,0,2.717-2.462c1.474-1.647,2.282-3.165,2.282-4.275a5.086,5.086,0,0,0-5-5.157A5.086,5.086,0,0,0,9836-4523.842Zm1.748-.158a3.254,3.254,0,0,1,3.248-3.251,3.254,3.254,0,0,1,3.251,3.251,3.254,3.254,0,0,1-3.251,3.249A3.253,3.253,0,0,1,9837.75-4524Zm2,0a1.251,1.251,0,0,0,1.248,1.249,1.252,1.252,0,0,0,1.251-1.249,1.253,1.253,0,0,0-1.251-1.251A1.252,1.252,0,0,0,9839.75-4524Z" transform="translate(-9829 4533)" fill="currentColor"/><rect width="24" height="24" fill="none"/></svg>