<svg xmlns="http://www.w3.org/2000/svg" width="40" height="40" viewBox="0 0 40 40"><g transform="translate(2.5 6)"><path d="M30.75,6h-28A1.748,1.748,0,0,0,1,7.75v14A1.748,1.748,0,0,0,2.75,23.5h28a1.748,1.748,0,0,0,1.75-1.75v-14A1.748,1.748,0,0,0,30.75,6" transform="translate(0.75 4.5)" fill="#ccebff"/><rect width="14" height="17.5" transform="translate(10.5 10.5)" fill="#2f66d0"/><path d="M12.5,10.75A1.75,1.75,0,1,1,10.75,9a1.751,1.751,0,0,1,1.75,1.75" transform="translate(6.75 6.75)" fill="#ccebff"/><path d="M34.876,10.851l-3.5-8.75A1.751,1.751,0,0,0,29.75,1H5.25A1.749,1.749,0,0,0,3.626,2.1l-3.5,8.75a1.75,1.75,0,0,0,1.626,2.4h31.5a1.75,1.75,0,0,0,1.626-2.4" transform="translate(0 0.75)" fill="#2f66d0"/><path d="M22.206,11.27l-7-10.537a1.812,1.812,0,0,0-2.912,0l-7,10.537A1.756,1.756,0,0,0,6.75,14h14a1.756,1.756,0,0,0,1.456-2.73" transform="translate(3.75 0)" fill="#ccebff"/></g><rect width="40" height="40" fill="none"/></svg>