<svg xmlns="http://www.w3.org/2000/svg" width="80" height="80" viewBox="0 0 80 80"><rect width="80" height="80" fill="none"/><path d="M13820.35-11379h-56.7a6.584,6.584,0,0,1-4.76-1.99,6.7,6.7,0,0,1-1.893-4.559v-.125a6.542,6.542,0,0,1,.9-3.227l28.347-48.8a6.6,6.6,0,0,1,5.577-3.3h.351a6.6,6.6,0,0,1,5.576,3.3l28.351,48.8a6.494,6.494,0,0,1,.9,3.237v.1a6.7,6.7,0,0,1-1.89,4.567A6.584,6.584,0,0,1,13820.35-11379Zm-28.352-19.888a4,4,0,0,0-4,4,4,4,0,0,0,4,4,4.006,4.006,0,0,0,4-4A4.006,4.006,0,0,0,13792-11398.889Zm0-21.5a3.5,3.5,0,0,0-3.5,3.5v8a3.5,3.5,0,0,0,3.5,3.5,3.5,3.5,0,0,0,3.5-3.5v-8A3.5,3.5,0,0,0,13792-11420.386Z" transform="translate(-13752 11450)" fill="#currentColor" stroke="rgba(0,0,0,0)" stroke-miterlimit="10" stroke-width="1"/></svg>