<svg xmlns="http://www.w3.org/2000/svg" width="24" height="24" viewBox="0 0 24 24"><path d="M9342-5063a4,4,0,0,1-4-4v-12a4,4,0,0,1,4-4h4a1,1,0,0,1,1,1,1,1,0,0,1-1,1h-4a2,2,0,0,0-2,2v12a2,2,0,0,0,2,2h12a2,2,0,0,0,2-2v-4a1,1,0,0,1,1-1,1,1,0,0,1,1,1v4a4,4,0,0,1-4,4Zm5.764-9.765a1,1,0,0,1,0-1.414l6.824-6.822h-3.7a1,1,0,0,1-1-1,1,1,0,0,1,1-1H9357a1,1,0,0,1,1,1v6.115a1,1,0,0,1-1,1,1,1,0,0,1-1-1v-3.7l-6.82,6.82a1.007,1.007,0,0,1-.709.293A1.006,1.006,0,0,1,9347.763-5072.765Z" transform="translate(-9336 5085)" fill="currentColor"/><rect width="24" height="24" fill="none"/></svg>