<svg xmlns="http://www.w3.org/2000/svg" width="24" height="24" viewBox="0 0 24 24"><path d="M8509-5067a1,1,0,0,1-1-1,1,1,0,0,1,1-1h13a1,1,0,0,1,1,1,1,1,0,0,1-1,1Zm-5-1a1,1,0,0,1,1-1,1,1,0,0,1,1,1,1,1,0,0,1-1,1A1,1,0,0,1,8504-5068Zm5-6a1,1,0,0,1-1-1,1,1,0,0,1,1-1h13a1,1,0,0,1,1,1,1,1,0,0,1-1,1Zm-5-1a1,1,0,0,1,1-1,1,1,0,0,1,1,1,1,1,0,0,1-1,1A1,1,0,0,1,8504-5075Zm5-6a1,1,0,0,1-1-1,1,1,0,0,1,1-1h13a1,1,0,0,1,1,1,1,1,0,0,1-1,1Zm-5-1a1,1,0,0,1,1-1,1,1,0,0,1,1,1,1,1,0,0,1-1,1A1,1,0,0,1,8504-5082Z" transform="translate(-8501 5087)" fill="currentColor"/><rect width="24" height="24" fill="none"/></svg>