<svg width="49" height="48" viewBox="0 0 49 48" fill="none" xmlns="http://www.w3.org/2000/svg">
<path d="M36.4996 20H39.4994C40.5606 20.0058 41.5765 20.4484 42.3258 21.2314C43.0752 22.0143 43.4972 23.0742 43.5 24.18V37.82C43.4972 38.9258 43.0752 39.9857 42.3258 40.7686C41.5765 41.5516 40.5606 41.9942 39.4994 42H9.50056C8.43943 41.9942 7.42351 41.5516 6.67416 40.7686C5.92481 39.9857 5.50277 38.9258 5.5 37.82V24.18C5.50277 23.0742 5.92481 22.0143 6.67416 21.2314C7.42351 20.4484 8.43943 20.0058 9.50056 20H12.5004" fill="white"/>
<path fill-rule="evenodd" clip-rule="evenodd" d="M9.50056 19H39.5049C40.8434 19.0073 42.1161 19.5659 43.0483 20.5399C43.9791 21.5125 44.4966 22.8207 44.5 24.1775L44.5 24.18L44.5 37.82L44.5 37.8225C44.4966 39.1793 43.9791 40.4875 43.0483 41.4601C42.1161 42.4341 40.8434 42.9927 39.5049 43L39.4994 43H9.49509C8.1566 42.9927 6.88389 42.4341 5.95172 41.4601C5.02086 40.4875 4.5034 39.1793 4.5 37.8225L4.5 37.82V24.18L4.5 24.1775C4.5034 22.8207 5.02086 21.5125 5.95172 20.5399C6.88389 19.5659 8.1566 19.0073 9.49509 19L9.50056 19ZM9.50349 21C8.72063 21.005 7.96252 21.3315 7.3966 21.9228C6.82903 22.5158 6.50244 23.3269 6.5 24.1813V37.8187C6.50244 38.6731 6.82903 39.4842 7.3966 40.0772C7.96251 40.6685 8.7206 40.995 9.50344 41H39.4966C40.2794 40.995 41.0375 40.6685 41.6034 40.0772C42.1709 39.4842 42.4975 38.6733 42.5 37.8189C42.5 37.8184 42.5 37.818 42.5 37.8175V24.1825C42.5 24.182 42.5 24.1816 42.5 24.1811C42.4975 23.3267 42.1709 22.5158 41.6034 21.9228C41.0375 21.3315 40.2794 21.005 39.4965 21H9.50349Z" fill="#333333"/>
<path d="M36.5 21H38.5V34H36.5V21Z" fill="#118C46"/>
<path d="M14.5 34H17L14 41H11.5L14.5 34Z" fill="#118C46"/>
<path d="M6.5 32H42.5V34H6.5V32Z" fill="#118C46"/>
<path d="M36.502 16.3159C36.502 23.1199 25.73 31.9999 24.502 31.9999C23.274 31.9999 12.502 23.1199 12.502 16.3159C12.502 13.1333 13.7662 10.0811 16.0167 7.83064C18.2671 5.5802 21.3194 4.31592 24.502 4.31592C27.6846 4.31592 30.7368 5.5802 32.9872 7.83064C35.2377 10.0811 36.502 13.1333 36.502 16.3159Z" fill="#EF7448"/>
<path fill-rule="evenodd" clip-rule="evenodd" d="M24.502 5.31592C21.5846 5.31592 18.7867 6.47484 16.7238 8.53774C14.6609 10.6006 13.502 13.3985 13.502 16.3159C13.502 17.7688 14.0836 19.4214 15.0711 21.1384C16.0512 22.8425 17.3843 24.5296 18.7748 26.0296C20.1634 27.5274 21.5877 28.8155 22.7307 29.7229C23.3035 30.1777 23.7926 30.5264 24.1616 30.7557C24.3015 30.8427 24.4147 30.9066 24.502 30.951C24.5892 30.9066 24.7024 30.8427 24.8423 30.7557C25.2113 30.5264 25.7004 30.1777 26.2732 29.7229C27.4162 28.8155 28.8405 27.5274 30.2291 26.0296C31.6196 24.5296 32.9527 22.8425 33.9328 21.1384C34.9203 19.4214 35.502 17.7688 35.502 16.3159C35.502 13.3985 34.343 10.6006 32.2801 8.53774C30.2172 6.47484 27.4193 5.31592 24.502 5.31592ZM24.35 31.0186C24.3501 31.0185 24.3525 31.0177 24.357 31.0165C24.3522 31.0181 24.35 31.0187 24.35 31.0186ZM24.6469 31.0165C24.6515 31.0177 24.6539 31.0185 24.6539 31.0186C24.6539 31.0187 24.6516 31.0181 24.6469 31.0165ZM15.3096 7.12353C17.7475 4.68556 21.0541 3.31592 24.502 3.31592C27.9498 3.31592 31.2564 4.68556 33.6943 7.12353C36.1323 9.5615 37.502 12.8681 37.502 16.3159C37.502 18.2651 36.7371 20.274 35.6665 22.1355C34.5884 24.0101 33.1518 25.8187 31.6958 27.3893C30.2379 28.9619 28.7389 30.3191 27.5168 31.2893C26.9071 31.7733 26.3531 32.1715 25.898 32.4544C25.6718 32.595 25.4533 32.7176 25.2538 32.8085C25.0933 32.8816 24.81 32.9999 24.502 32.9999C24.1939 32.9999 23.9106 32.8816 23.7501 32.8085C23.5506 32.7176 23.3321 32.595 23.1059 32.4544C22.6508 32.1715 22.0968 31.7733 21.4871 31.2893C20.265 30.3191 18.766 28.9619 17.3081 27.3893C15.8521 25.8187 14.4155 24.0101 13.3374 22.1355C12.2668 20.274 11.502 18.2651 11.502 16.3159C11.502 12.8681 12.8716 9.5615 15.3096 7.12353Z" fill="#333333"/>
<path d="M24.498 20.494C26.9822 20.494 28.996 18.4802 28.996 15.996C28.996 13.5119 26.9822 11.498 24.498 11.498C22.0138 11.498 20 13.5119 20 15.996C20 18.4802 22.0138 20.494 24.498 20.494Z" fill="white"/>
<path fill-rule="evenodd" clip-rule="evenodd" d="M24.498 12.498C22.5661 12.498 21 14.0642 21 15.996C21 17.9279 22.5661 19.494 24.498 19.494C26.4299 19.494 27.996 17.9279 27.996 15.996C27.996 14.0642 26.4299 12.498 24.498 12.498ZM19 15.996C19 12.9596 21.4615 10.498 24.498 10.498C27.5345 10.498 29.996 12.9596 29.996 15.996C29.996 19.0325 27.5345 21.494 24.498 21.494C21.4615 21.494 19 19.0325 19 15.996Z" fill="#333333"/>
</svg>
