<svg xmlns="http://www.w3.org/2000/svg" width="24" height="24" viewBox="0 0 24 24"><path d="M801.112,858.055h-2.25a14.5,14.5,0,0,1-14.5-14.5V841.3a3.254,3.254,0,0,1,3.25-3.25h3.375a1,1,0,0,1,.97.757l1.125,4.5a1,1,0,0,1-.523,1.137l-1.671.835a6.887,6.887,0,0,0,6.244,6.244l.835-1.671a1,1,0,0,1,1.137-.523l4.5,1.125a1,1,0,0,1,.757.97V854.8A3.254,3.254,0,0,1,801.112,858.055Zm-13.5-18a1.251,1.251,0,0,0-1.25,1.25v2.25a12.5,12.5,0,0,0,12.5,12.5h2.25a1.251,1.251,0,0,0,1.25-1.25v-2.594l-2.964-.741L798.632,853a1,1,0,0,1-.894.553,8.885,8.885,0,0,1-8.875-8.875,1,1,0,0,1,.553-.894l1.533-.766-.741-2.964Z" transform="translate(-782.362 -836.055)" fill="currentColor"/><rect width="24" height="24" fill="none"/></svg>